<svg id="图层_1" data-name="图层 1" xmlns="http://www.w3.org/2000/svg" xmlns:xlink="http://www.w3.org/1999/xlink" viewBox="0 0 2082.743 2464.8113"><defs><style>.cls-1{fill:url(#未命名的渐变_87);}.cls-2{fill:url(#未命名的渐变_19);}.cls-3{fill:url(#未命名的渐变_207);}.cls-4{fill:url(#未命名的渐变_87-2);}.cls-5{fill:url(#未命名的渐变_207-2);}.cls-6{opacity:0.66;}.cls-7{fill:url(#未命名的渐变_102);}.cls-46,.cls-50,.cls-51,.cls-52,.cls-8,.cls-9{fill:#fff;}.cls-14,.cls-9{opacity:0.34;}.cls-10{opacity:0.48;}.cls-11{fill:url(#未命名的渐变_11);}.cls-12{fill:url(#未命名的渐变_252);}.cls-13{clip-path:url(#clip-path);}.cls-14{fill:url(#未命名的渐变_254);}.cls-15{fill:url(#未命名的渐变_247);}.cls-16{fill:url(#未命名的渐变_87-4);}.cls-17{fill:url(#未命名的渐变_247-2);}.cls-18{fill:url(#未命名的渐变_87-5);}.cls-19{fill:url(#未命名的渐变_19-2);}.cls-20{fill:url(#未命名的渐变_557);}.cls-21{fill:url(#未命名的渐变_556);}.cls-22{fill:url(#未命名的渐变_19-3);}.cls-23{fill:url(#未命名的渐变_252-2);}.cls-24{fill:url(#未命名的渐变_252-3);}.cls-25{fill:url(#未命名的渐变_835);}.cls-26{fill:url(#未命名的渐变_835-2);}.cls-27{fill:url(#未命名的渐变_557-2);}.cls-28{fill:url(#未命名的渐变_556-2);}.cls-29{clip-path:url(#clip-path-2);}.cls-30{fill:#006ff1;}.cls-31{clip-path:url(#clip-path-3);}.cls-32{fill:url(#未命名的渐变_207-4);}.cls-33{fill:url(#未命名的渐变_207-5);}.cls-34{fill:url(#未命名的渐变_207-6);}.cls-35{fill:url(#未命名的渐变_207-7);}.cls-36{fill:url(#未命名的渐变_87-6);}.cls-37{fill:url(#未命名的渐变_554);}.cls-38{clip-path:url(#clip-path-4);}.cls-39{fill:url(#未命名的渐变_19-5);}.cls-40{clip-path:url(#clip-path-5);}.cls-41{fill:url(#未命名的渐变_207-9);}.cls-42{fill:url(#未命名的渐变_207-10);}.cls-43{fill:url(#未命名的渐变_87-8);}.cls-44{opacity:0.73;}.cls-45{fill:url(#未命名的渐变_11-2);}.cls-46{opacity:0.43;}.cls-47{fill:url(#未命名的渐变_252-4);}.cls-48{opacity:0.69;}.cls-49{fill:url(#未命名的渐变_192);}.cls-50{opacity:0.44;}.cls-51{opacity:0.27;}.cls-52{opacity:0.46;}.cls-53,.cls-54{fill:none;stroke-linecap:round;stroke-linejoin:round;stroke-width:34.3553px;}.cls-53{stroke:#fff;}.cls-54{stroke:url(#未命名的渐变_102-2);}.cls-55,.cls-56{opacity:0.2;}.cls-55{fill:url(#未命名的渐变_191);}.cls-56{fill:#0280f1;}</style><linearGradient id="未命名的渐变_87" x1="-801.7646" y1="-150.6607" x2="-512.4157" y2="179.7152" gradientTransform="matrix(-0.8253, -0.5647, -0.5647, 0.8253, 1464.3183, 461.9515)" gradientUnits="userSpaceOnUse"><stop offset="0.1023" stop-color="#fcadba"/><stop offset="0.8855" stop-color="#fbdad9"/></linearGradient><linearGradient id="未命名的渐变_19" x1="2504.9044" y1="1587.1108" x2="1915.9468" y2="1839.0875" gradientUnits="userSpaceOnUse"><stop offset="0" stop-color="#00a6f0"/><stop offset="1" stop-color="#006ff1"/></linearGradient><linearGradient id="未命名的渐变_207" x1="1952.741" y1="896.059" x2="1425.1429" y2="1517.0597" gradientUnits="userSpaceOnUse"><stop offset="0.0035" stop-color="#b585ff"/><stop offset="1" stop-color="#4e37f0"/></linearGradient><linearGradient id="未命名的渐变_87-2" x1="2401.2228" y1="960.5872" x2="1902.2827" y2="1197.9861" gradientTransform="matrix(1, 0, 0, 1, 0, 0)" xlink:href="#未命名的渐变_87"/><linearGradient id="未命名的渐变_207-2" x1="2049.706" y1="992.7774" x2="1540.0909" y2="1592.6114" xlink:href="#未命名的渐变_207"/><linearGradient id="未命名的渐变_102" x1="1768.7448" y1="433.8065" x2="1234.2321" y2="1738.0175" gradientUnits="userSpaceOnUse"><stop offset="0.1011" stop-color="#ffdf94"/><stop offset="1" stop-color="#ffa200"/></linearGradient><linearGradient id="未命名的渐变_11" x1="2319.1487" y1="630.0751" x2="2933.3479" y2="630.0751" gradientUnits="userSpaceOnUse"><stop offset="0.0083" stop-color="#00cafe"/><stop offset="1" stop-color="#0088fa"/></linearGradient><linearGradient id="未命名的渐变_252" x1="2617.2353" y1="253.3491" x2="2573.4113" y2="491.061" gradientUnits="userSpaceOnUse"><stop offset="0.0035" stop-color="#4aaafd"/><stop offset="1" stop-color="#00ded8"/></linearGradient><clipPath id="clip-path" transform="translate(-872.6285 -230.5944)"><polygon class="cls-1" points="1966.671 828.556 1885.21 983.467 1755.091 908.587 1873.835 767.612 1966.671 828.556"/></clipPath><linearGradient id="未命名的渐变_254" x1="3534.2148" y1="843.8531" x2="3172.4515" y2="1233.6403" gradientTransform="translate(-1293.5439 -437.9638) rotate(3.0328)" gradientUnits="userSpaceOnUse"><stop offset="0.1011" stop-color="#ff7638"/><stop offset="0.8855" stop-color="#ff3929"/></linearGradient><linearGradient id="未命名的渐变_247" x1="1847.0502" y1="669.918" x2="2000.6266" y2="669.918" gradientUnits="userSpaceOnUse"><stop offset="0" stop-color="#6162b4"/><stop offset="1" stop-color="#0e0e6c"/></linearGradient><linearGradient id="未命名的渐变_87-4" x1="-19.8146" y1="472.8667" x2="230.8384" y2="759.06" gradientTransform="matrix(-0.9901, -0.1403, -0.1403, 0.9901, 2137.1675, 153.4715)" xlink:href="#未命名的渐变_87"/><linearGradient id="未命名的渐变_247-2" x1="1696.5582" y1="723.8562" x2="1938.7168" y2="723.8562" xlink:href="#未命名的渐变_247"/><linearGradient id="未命名的渐变_87-5" x1="11.346" y1="445.5757" x2="261.999" y2="731.769" gradientTransform="matrix(-0.9901, -0.1403, -0.1403, 0.9901, 2137.1675, 153.4715)" xlink:href="#未命名的渐变_87"/><linearGradient id="未命名的渐变_19-2" x1="2782.5018" y1="1181.3251" x2="1531.7257" y2="1861.3587" xlink:href="#未命名的渐变_19"/><linearGradient id="未命名的渐变_557" x1="2107.398" y1="2247.4852" x2="2257.9796" y2="2247.4852" gradientTransform="translate(-1194.1064 200.2868) rotate(-10.0236)" gradientUnits="userSpaceOnUse"><stop offset="0" stop-color="#fbbfcc"/><stop offset="0.9942" stop-color="#f596aa"/></linearGradient><linearGradient id="未命名的渐变_556" x1="1937.7365" y1="2367.4829" x2="2222.6101" y2="2367.4829" gradientTransform="matrix(1.3864, -0.2072, 0.2829, 1.3864, -1179.7622, -382.9789)" gradientUnits="userSpaceOnUse"><stop offset="0" stop-color="#583b8d"/><stop offset="0.991"/></linearGradient><linearGradient id="未命名的渐变_19-3" x1="2780.0613" y1="1871.373" x2="2455.2238" y2="1929.0545" xlink:href="#未命名的渐变_19"/><linearGradient id="未命名的渐变_252-2" x1="1750.2877" y1="928.6337" x2="1108.2024" y2="1707.3329" xlink:href="#未命名的渐变_252"/><linearGradient id="未命名的渐变_252-3" x1="1658.2883" y1="852.7746" x2="1016.203" y2="1631.4738" xlink:href="#未命名的渐变_252"/><linearGradient id="未命名的渐变_835" x1="2333.7135" y1="45.3757" x2="2317.5907" y2="1512.5503" gradientTransform="matrix(1.9476, 0.0005, -0.0004, 1.5338, -1906.3521, -641.2923)" gradientUnits="userSpaceOnUse"><stop offset="0.036" stop-color="#7fe6ff"/><stop offset="1" stop-color="#2fd5ff"/></linearGradient><linearGradient id="未命名的渐变_835-2" x1="2150.0625" y1="1225.8754" x2="2148.53" y2="1365.34" gradientTransform="matrix(1.9476, 0.0005, -0.0004, 1.5338, -2778.9806, -871.8866)" xlink:href="#未命名的渐变_835"/><linearGradient id="未命名的渐变_557-2" x1="2024.4137" y1="2462.1633" x2="2210.5051" y2="2462.1633" gradientTransform="matrix(0.7415, -0.6709, 0.6709, 0.7415, -1581.1031, 1492.2354)" xlink:href="#未命名的渐变_557"/><linearGradient id="未命名的渐变_556-2" x1="1878.2881" y1="2501.6898" x2="2181.6074" y2="2501.6898" gradientTransform="matrix(1.0641, -0.9125, 0.9766, 1.0239, -1868.0869, 1489.7649)" xlink:href="#未命名的渐变_556"/><clipPath id="clip-path-2" transform="translate(-872.6285 -230.5944)"><path class="cls-2" d="M2593.5518,2109.841c-7.7142,33.239-136.274,111.7482-228.8434,68.4936-94.6871-44.2441-213.5154-251.4148-273.1688-415.3106,0,0-940.1569,183.6376-757.6568-263.1873,0,0,484.7873-93.7513,773.4853-26.5478,50.4031,11.7328,94.59,10.6077,126.1022,56.41C2414.89,1793.3849,2593.5518,2109.841,2593.5518,2109.841Z"/></clipPath><clipPath id="clip-path-3" transform="translate(-872.6285 -230.5944)"><path class="cls-3" d="M1793.23,861.69c-142.392,68.57-231.0933-8.4015-415.6375,422.2208-50.3206,117.42-350.1909,261.0995-24.6986,321.964,208.4723,38.9826,487.1147-188.49,487.1147-188.49s37.0116-73.5075,0-119.5868,73.0145-241.4671,73.0145-316.445C1913.0228,951.73,1813.7917,915.4492,1793.23,861.69Z"/></clipPath><linearGradient id="未命名的渐变_207-4" x1="1774.4284" y1="1044.5434" x2="1774.4284" y2="1321.819" xlink:href="#未命名的渐变_207"/><linearGradient id="未命名的渐变_207-5" x1="719.8752" y1="1878.2747" x2="839.0889" y2="1739.1921" gradientTransform="translate(-357.8499 497.9444) rotate(-18.9941)" xlink:href="#未命名的渐变_207"/><linearGradient id="未命名的渐变_207-6" x1="930.253" y1="2105.9649" x2="1049.4667" y2="1966.8822" gradientTransform="translate(-662.0914 1374.781) rotate(-44.535)" xlink:href="#未命名的渐变_207"/><linearGradient id="未命名的渐变_207-7" x1="1037.6941" y1="787.1903" x2="992.2821" y2="840.6417" xlink:href="#未命名的渐变_207"/><linearGradient id="未命名的渐变_87-6" x1="1713.1556" y1="1469.0058" x2="1907.8372" y2="1469.0058" gradientTransform="matrix(1, 0, 0, 1, 0, 0)" xlink:href="#未命名的渐变_87"/><linearGradient id="未命名的渐变_554" x1="1789.7475" y1="1368.8115" x2="1980.8581" y2="1368.8115" gradientUnits="userSpaceOnUse"><stop offset="0" stop-color="#5be3fc"/><stop offset="0.9942" stop-color="#3ed1f7"/></linearGradient><clipPath id="clip-path-4" transform="translate(-872.6285 -230.5944)"><path class="cls-4" d="M2210.2192,1072.4373c0,23.9111-10.9008,53.1359,6.5406,55.7927s21.8017-61.1063,23.9819-63.7631,13.0811,29.2248,23.9819,21.2544-23.9819-111.5853-65.4052-100.9581-95.9278,29.2247-100.2881,50.479-94.0825,170.44-94.0825,170.44l118.0644-45.5705s19.6216-77.047,26.1621-79.7038S2179.6968,1101.662,2210.2192,1072.4373Z"/></clipPath><linearGradient id="未命名的渐变_19-5" x1="1721.5632" y1="604.3747" x2="470.7871" y2="1284.4083" xlink:href="#未命名的渐变_19"/><clipPath id="clip-path-5" transform="translate(-872.6285 -230.5944)"><path class="cls-5" d="M2072.6816,1052.8024c56.0756-16.8227,88.58,72.78,64.962,151.1911s-134.6813,305.0013-252.3989,284.7045c-72.9524-12.5785-296.25-390.8678-146.6694-516.8859s212.5614,243.6349,212.5614,243.6349S2046.2188,1060.7412,2072.6816,1052.8024Z"/></clipPath><linearGradient id="未命名的渐变_207-9" x1="1058.7602" y1="1069.1204" x2="1058.0151" y2="1004.2979" xlink:href="#未命名的渐变_207"/><linearGradient id="未命名的渐变_207-10" x1="1781.4494" y1="1056.2851" x2="1781.4494" y2="1056.2851" xlink:href="#未命名的渐变_207"/><linearGradient id="未命名的渐变_87-8" x1="3276.5656" y1="-1528.6202" x2="2525.1892" y2="-768.1362" gradientTransform="matrix(1, 0, 0, 1, 0, 0)" xlink:href="#未命名的渐变_87"/><linearGradient id="未命名的渐变_11-2" x1="2313.0721" y1="926.8477" x2="2946.9999" y2="926.8477" xlink:href="#未命名的渐变_11"/><linearGradient id="未命名的渐变_252-4" x1="2812.5731" y1="779.8327" x2="2695.3935" y2="1127.5917" xlink:href="#未命名的渐变_252"/><linearGradient id="未命名的渐变_192" x1="2397.3275" y1="1664.8757" x2="1849.1176" y2="2613.4231" gradientUnits="userSpaceOnUse"><stop offset="0" stop-color="#ff95f8"/><stop offset="0.8855" stop-color="#9c00ff"/></linearGradient><linearGradient id="未命名的渐变_102-2" x1="1937.2605" y1="2253.9156" x2="2350.3395" y2="2411.8575" xlink:href="#未命名的渐变_102"/><linearGradient id="未命名的渐变_191" x1="1768.1071" y1="1428.9703" x2="1972.8081" y2="1428.9703" gradientUnits="userSpaceOnUse"><stop offset="0.0048" stop-color="#ff88d6"/><stop offset="0.9986" stop-color="#ff16b4"/></linearGradient></defs><title>商务协作渐变扁平矢量人物场景插画1320220902果冻</title><g class="cls-6"><path class="cls-7" d="M1825.201,1593.16c-196.92,34.0536-394.8428,81.2046-578.95,160.5042-59.3535,25.565-118.16,54.5968-170.835,92.3227-37.5562,26.898-79.7958,61.94-92.2187,108.5649q-.7745,1.4115-1.5492,2.8232c-5.7963-9.783-6.4327-22.8171-8.2624-33.9137q-47.3685-310.09-94.7369-620.1811c-2.8853-19.9-8.5666-43.9251-4.736-64.1436,12.4229-46.6246,54.6625-81.6668,92.2186-108.5647,52.6746-37.726,111.4816-66.7577,170.8351-92.3228,184.1068-79.2995,382.03-126.4505,578.95-160.5042,26.0015-4.0753,61.8742,8.0479,65.5456,38.2157q47.3683,310.09,94.7369,620.181C1881.6746,1566.2017,1851.0439,1588.3606,1825.201,1593.16Z" transform="translate(-872.6285 -230.5944)"/><path class="cls-8" d="M1501.5356,1204.2183c-64.382,16.5439-128.1474,35.08-191.1481,56.3005-14.4258,5.9148-28.0729-5.429-30.5979-19.2637v0c-2.7549-15.3222,7.3955-32.363,21.9257-37.5065,63.0008-21.22,126.7661-39.7568,191.1482-56.3008,14.5049-3.19,33.5517,3.7426,35.3515,20.6714v0C1530.4867,1184.479,1517.2853,1200.7285,1501.5356,1204.2183Z" transform="translate(-872.6285 -230.5944)"/><path class="cls-9" d="M1667.8835,1400.8817c-109.1418,23.0265-217.0678,51.1038-322.8083,86.7151-14.4251,5.9146-28.0725-5.4272-30.5977-19.2618h0c-2.7547-15.3221,7.3962-32.3622,21.9261-37.5057,105.7406-35.6109,213.6667-63.6877,322.8086-86.7138,15.4923-3.8838,34.7087,4.8774,37.41,21.6594h0C1698.9659,1382.7305,1683.8717,1398.1061,1667.8835,1400.8817Z" transform="translate(-872.6285 -230.5944)"/><path class="cls-9" d="M1456.5831,1334.3646q-64.9227,18.2905-128.8514,39.6956c-14.4258,5.9148-28.0729-5.4289-30.5979-19.2637h0c-2.7549-15.3221,7.3955-32.3633,21.9258-37.5068q63.9241-21.5272,128.8515-39.6956c14.2993-3.4762,32.4947,3.71,34.1889,20.2372h0C1484.3329,1313.85,1472.155,1330.5106,1456.5831,1334.3646Z" transform="translate(-872.6285 -230.5944)"/><path class="cls-8" d="M990.1388,1291.0438l-10.2927-67.38c-44.6339,32.0736-56.1077,94.3272-60.0528,145.4635-5.5133,71.4635,2.1237,144.37,12.9982,214.9892,3.8876-9.5324,6.5159-14.3429,13.0472-24.011-8.0477-52.7311-11.6264-107.4175-4.9344-160.5021C945.7666,1361.0333,956.6547,1315.1619,990.1388,1291.0438Z" transform="translate(-872.6285 -230.5944)"/><path class="cls-8" d="M945.8387,1560.1056c-6.5313,9.6681-9.16,14.4786-13.0472,24.011,8.1318,51.4685,15.349,110.6886,42.337,156.5294q2.7286-32.0991,6.7978-64.02C959.0557,1643.2681,952.21,1599.0748,945.8387,1560.1056Z" transform="translate(-872.6285 -230.5944)"/><path class="cls-9" d="M1111.2191,1237.286c-37.0005-28.2218-89.1328-44.012-131.3727-13.6222q5.1462,33.69,10.2926,67.38c31.3046-21.7537,66.7694-11.4276,93.9845,9.927,35.0423,27.4963,51.3981,73.6266,59.1335,116.9025q25.6886-12.13,51.749-23.3707C1184.67,1334.6276,1159.6326,1274.213,1111.2191,1237.286Z" transform="translate(-872.6285 -230.5944)"/><path class="cls-8" d="M1143.257,1417.8728c13.513,88.6563-16.8655,217.4214-92.7658,268.257-23.81,15.9473-50.383,17.6242-68.5651-9.5038q-4.0645,31.9582-6.7976,64.02c21.81,36.3865,54.5037,34.2055,85.6556,12.8648,47.5449-32.5707,81.0266-91.0621,103.6381-144.7435,28.262-67.096,41.6364-141.823,30.5838-214.265Q1168.9318,1405.777,1143.257,1417.8728Z" transform="translate(-872.6285 -230.5944)"/><path class="cls-9" d="M1064.5878,1459.7217c-28.3117,17.2843-55.8216,35.7351-80.6222,57.8647-12.3532,9.9911-16.9214-16.1614-18.3239-21.9325h0c-2.3511-14.0727-2.8069-35.6958,7.8194-46.8343,24.8005-22.13,52.31-40.58,80.6222-57.8645,14.4338-7.6231,25.5238,9.483,26.5974,22.0688h0C1083.0532,1429.2642,1078.704,1449.7231,1064.5878,1459.7217Z" transform="translate(-872.6285 -230.5944)"/><path class="cls-9" d="M1106.3457,1506.43c-46.96,25.9092-94.2832,54.6671-131.1605,94.2539-2.9408,3.1677-6.2388-1.3768-7.5783-10.145h0c-1.3393-8.768-.2129-18.4394,2.7279-21.6072,36.8774-39.5866,84.2-68.3444,131.1606-94.2534,5.7754-3.1209,11.6831,1.4668,13.0224,10.2347h0C1115.8572,1493.6808,1112.1211,1503.3088,1106.3457,1506.43Z" transform="translate(-872.6285 -230.5944)"/></g><g class="cls-10"><path class="cls-11" d="M2445.5823,890.0679c104.592-11.7167,212.907-11.3663,314.886,17.5539,65.372,18.5387,142.75,52.4756,171.0124,119.4022l1.7549,2.5318c.6267-9.3429-1.5149-19.1875-2.8167-28.3219q-43.6017-285.4327-87.2036-570.8656c-2.8127-18.42-5.1533-37.919-11.37-55.5927-28.2619-66.9266-105.64-100.8635-171.0122-119.4022-101.979-28.92-210.2939-29.2706-314.8862-17.5539-20.87,2.7347-29.0711,27.0157-26.2649,45.1346q43.6019,285.4329,87.2036,570.8658C2409.6792,872.3422,2424.8118,892.3482,2445.5823,890.0679Z" transform="translate(-872.6285 -230.5944)"/><path class="cls-12" d="M2553.1475,480.283q-17.3149-26.65-34.9681-53.0731c-4.6748-6.9755-10.5825-7.0906-13.1948-.2569q-18.5035,48.3325-37.3081,96.5482c-2.7453,7.0485.3838,12.5045,6.9539,12.254,73.4011-2.231,146.2295,2.8079,217.74,20.0785,5.14,1.2989,5.9755-3.8012,1.9648-11.4376q-43.79-82.94-91.6069-163.6081c-4.3914-7.3918-9.7847-8.0763-12.1038-1.6455Q2572.2719,429.8574,2553.1475,480.283Zm-83.4336-158.3544" transform="translate(-872.6285 -230.5944)"/><path class="cls-8" d="M2474.1794,351.1613c2.1082,13.5853,9.4585,28.3969,20.2593,34.8027,7.9971,4.743,20.1814,9.2391,29.3687.699,9.1953-8.5477,10.9682-22.311,9.0893-34.1089-2.7556-17.3029-15.38-40.747-35.1435-41.3652-19.3091-.604-26.6663,24.2375-23.5738,39.9724Z" transform="translate(-872.6285 -230.5944)"/><path class="cls-9" d="M2876.2876,773.6121c-36.7654-44.4174-95.0254-68.8537-149.1238-84.2032-75.9726-21.5561-155.5156-26.447-234.1047-24.0449-12.2112-.2807-20.2334-11.8616-21.93-22.9692h0c-1.7388-10.3145,2.59-23.7007,14.6384-24.76,78.5891-2.4025,158.1321,2.4881,234.1048,24.0436,54.0981,15.3491,112.3581,39.785,149.1235,84.202,5.9648,9.09,8.1277,21.0514,9.7419,31.5986h0C2880.7515,770.6594,2879.8252,777.8207,2876.2876,773.6121Z" transform="translate(-872.6285 -230.5944)"/><path class="cls-9" d="M2891.9116,875.8935c-36.7654-44.418-95.0251-68.8552-149.1238-84.2053-75.9729-21.5567-155.5158-26.4483-234.1052-24.0468-12.2114-.281-20.2336-11.8629-21.93-22.9707h0c-1.739-10.3145,2.59-23.7009,14.6387-24.76,78.5893-2.4015,158.1323,2.49,234.1052,24.0469,54.0986,15.35,112.3584,39.7872,149.1238,84.2052,5.9648,9.09,8.1276,21.0512,9.7419,31.5983h0C2896.3757,872.9412,2895.4492,880.1021,2891.9116,875.8935Z" transform="translate(-872.6285 -230.5944)"/></g><polygon class="cls-1" points="1094.043 597.962 1012.582 752.873 882.462 677.993 1001.207 537.018 1094.043 597.962"/><g class="cls-13"><path class="cls-14" d="M1887.1428,781.87c67.2242,45.94,22.3593,109.4289,43.7923,149.22s42.8558-100.7264,42.8558-100.7264l-60.53-29.1012" transform="translate(-872.6285 -230.5944)"/></g><path class="cls-15" d="M1899.2542,769.1017c180.6538-91.1668,74.3376-244.6541,26.74-184.9409s-78.9437,80.43-78.9437,80.43Z" transform="translate(-872.6285 -230.5944)"/><path class="cls-16" d="M1892.4946,827.7571c234.06,87.1556,104.563-182.8172,46.174-194.8065-58.8892-12.092-111.7271,160.0254-111.7271,160.0254Z" transform="translate(-872.6285 -230.5944)"/><path class="cls-17" d="M1834.066,863.5774s54.1961-117.6183,47.3166-138.4014c0,0,89.8253-47.9484,44.6113-141.0152-174.07-1.48-264.02,60.7022-217.0869,220.1313a33.2412,33.2412,0,0,0,23.2888-10.7826C1748.0936,849.64,1806.8668,826.7629,1834.066,863.5774Z" transform="translate(-872.6285 -230.5944)"/><path class="cls-18" d="M1888.6755,742.2257c-97.1767-31.6054-110.0123,67.1338-18.4862,73.6967" transform="translate(-872.6285 -230.5944)"/><path class="cls-19" d="M1950.9528,1725.8394l-55.4847,10.934s-131.883,28.7772-200.9453,20.3888-26.7219-62.196-26.7219-62.196l240.0363-32.534Z" transform="translate(-872.6285 -230.5944)"/><polygon class="cls-20" points="1386.161 2193.077 1428.735 2203.906 1394.703 1874 1251.706 1865.42 1296.089 2181.221 1386.161 2193.077"/><path class="cls-21" d="M2168.7179,2411.815l129.9794-30.1815s55.5946,130.1675,175.423,94.9257S2588.89,2533.93,2588.89,2533.93l-356.8826,39.5243a43.3593,43.3593,0,0,1-47.7972-37.7173Z" transform="translate(-872.6285 -230.5944)"/><path class="cls-22" d="M2294.6555,2207.8738C2278.9786,2052.9176,2235.11,1708.2,2153.88,1692.17c-104.9413-20.7088-181.3638-28.8355-170.4562,36.2507,8.9084,53.1572,29.963,302.8523,137.5933,578.9282C2130.8407,2332.5473,2300.1325,2262.01,2294.6555,2207.8738Z" transform="translate(-872.6285 -230.5944)"/><polygon class="cls-23" points="1598.117 1141.581 1638.168 1122.669 1778.427 756.854 1818.477 745.825 1662.183 1173.137 1598.117 1141.581"/><polygon class="cls-24" points="1163.6 1176.161 1129.564 1158.806 1219.679 1122.56 1638.168 1122.669 1682.21 1158.95 1632.147 1176.283 1163.6 1176.161"/><path class="cls-25" d="M2532.8085,1406.8848l22.03-17.3407,136.4488-376.5616a52.21,52.21,0,0,0,1.02-32.4554l-1.2023-4.1072Z" transform="translate(-872.6285 -230.5944)"/><path class="cls-26" d="M1129.56,1158.8778h552.6458a0,0,0,0,1,0,0v0a36.27,36.27,0,0,1-36.27,36.27H1129.56a0,0,0,0,1,0,0v-36.27A0,0,0,0,1,1129.56,1158.8778Z"/><polygon class="cls-27" points="1750.702 1992.544 1791.874 1977.077 1602.391 1716.067 1497.27 1877.251 1672.074 2070.184 1750.702 1992.544"/><path class="cls-28" d="M2525.76,2282.5062l110.7271-118.2775s110.3125,78.5371,194.1619-20.9232,124.7221-17.7167,124.7221-17.7167L2663.18,2379.7674a37.1034,37.1034,0,0,1-51.8129-3.0427Z" transform="translate(-872.6285 -230.5944)"/><path class="cls-2" d="M2593.5518,2109.841c-7.7142,33.239-136.274,111.7482-228.8434,68.4936-94.6871-44.2441-213.5154-251.4148-273.1688-415.3106,0,0-940.1569,183.6376-757.6568-263.1873,0,0,484.7873-93.7513,773.4853-26.5478,50.4031,11.7328,94.59,10.6077,126.1022,56.41C2414.89,1793.3849,2593.5518,2109.841,2593.5518,2109.841Z" transform="translate(-872.6285 -230.5944)"/><g class="cls-29"><polyline class="cls-30" points="1030.58 1224.026 132.421 1697.684 394.041 1354.722 640.618 1223.665 1030.58 1224.026"/></g><path class="cls-3" d="M1793.23,861.69c-142.392,68.57-231.0933-8.4015-415.6375,422.2208-50.3206,117.42-350.1909,261.0995-24.6986,321.964,208.4723,38.9826,487.1147-188.49,487.1147-188.49s37.0116-73.5075,0-119.5868,73.0145-241.4671,73.0145-316.445C1913.0228,951.73,1813.7917,915.4492,1793.23,861.69Z" transform="translate(-872.6285 -230.5944)"/><g class="cls-31"><path class="cls-32" d="M1829.2239,987.5275l-116.4363,82.9168s-80.27,750.6612-1.7642,667.7444c266.119-281.0694,122.611-630.6965,122.611-630.6965l-92.62-131.4319" transform="translate(-872.6285 -230.5944)"/><path class="cls-33" d="M944.5573,1588.3113c200.9846-41.8308,362.1523-134.6222,423.5341-219.1868,0,0-131.3,266.2892-281.746,314.3429S944.5573,1588.3113,944.5573,1588.3113Z" transform="translate(-872.6285 -230.5944)"/><path class="cls-34" d="M1292.8107,1811.8082c163.3082-124.3988,268.7186-277.6108,287.6414-380.3767,0,0-3.6567,296.8775-118.682,405.1011S1292.8107,1811.8082,1292.8107,1811.8082Z" transform="translate(-872.6285 -230.5944)"/><polygon class="cls-35" points="1077.442 847.789 980.412 747.23 983.94 840.732 1007.47 871.857 1077.442 847.789"/></g><path class="cls-36" d="M1747.9932,1454.1385c-17.3721,74.1539-47.469,132.3618-29.0995,126.761s34.1148-61.6088,34.1148-61.6088-15.7453,92.4132,7.8726,86.8124,15.7453-53.2076,15.7453-53.2076-2.6188,52.0486,18.3695,39.2056c8.5148-5.21,28.0771-83.7427,51.695-106.1459s61.1463-112.2854,61.1463-112.2854l-36.7391-42.0061S1763.7385,1386.9288,1747.9932,1454.1385Z" transform="translate(-872.6285 -230.5944)"/><path class="cls-37" d="M1789.7475,1376.47c2.6242,0,57.7327,89.6128,104.9686,75.6108s86.142-82.97,86.142-82.97l-62.5241-85.0542Z" transform="translate(-872.6285 -230.5944)"/><path class="cls-4" d="M2210.2192,1072.4373c0,23.9111-10.9008,53.1359,6.5406,55.7927s21.8017-61.1063,23.9819-63.7631,13.0811,29.2248,23.9819,21.2544-23.9819-111.5853-65.4052-100.9581-95.9278,29.2247-100.2881,50.479-94.0825,170.44-94.0825,170.44l118.0644-45.5705s19.6216-77.047,26.1621-79.7038S2179.6968,1101.662,2210.2192,1072.4373Z" transform="translate(-872.6285 -230.5944)"/><g class="cls-38"><polygon class="cls-39" points="1240.054 837.754 1277.429 858.675 1258.375 884.618 1240.054 837.754"/></g><path class="cls-5" d="M2072.6816,1052.8024c56.0756-16.8227,88.58,72.78,64.962,151.1911s-134.6813,305.0013-252.3989,284.7045c-72.9524-12.5785-296.25-390.8678-146.6694-516.8859s212.5614,243.6349,212.5614,243.6349S2046.2188,1060.7412,2072.6816,1052.8024Z" transform="translate(-872.6285 -230.5944)"/><g class="cls-40"><polygon class="cls-41" points="1080.088 928.059 1078.324 987.159 1035.102 1037.439 1080.088 898.068 1080.088 928.059"/></g><path class="cls-42" d="M1781.4494,1056.2851" transform="translate(-872.6285 -230.5944)"/><circle class="cls-43" cx="1021.8703" cy="753.4048" r="6.1747"/><g class="cls-44"><path class="cls-45" d="M2946.7925,1145.5721c-8.0755,83.4316-81.6236,147.3987-147.1712,190.382-102.163,66.9941-221.5981,104.8124-340.6858,127.7875-23.9038,4.2695-41.3845-19.4478-44.5656-40.5021Q2364.032,1093.71,2313.6943,764.181c-3.3137-21.4744,6.5855-48.5747,30.2618-53.1358,119.0876-22.9751,238.5227-60.7933,340.6857-127.7875,65.5477-42.9832,139.0957-106.95,147.1712-190.382q.531-1.7124,1.0625-3.4249c3.9145,10.0084,4.9336,21.5567,6.6374,32.0021q50.3379,329.5292,100.6756,659.0583C2943.2954,1101.5464,2948.0513,1124.1658,2946.7925,1145.5721Z" transform="translate(-872.6285 -230.5944)"/><path class="cls-8" d="M2738.5891,973.848c13.199-9.039,30.8054-16.6694,47.4624-9.1583q10.0226-142.7534,13.5159-285.8161c-37.35-16.8153-79.4568,7.0866-108.8714,27.6731C2557.7817,799.57,2482.81,983.5075,2475.71,1143.7522a1594.9313,1594.9313,0,0,0,192.395,7.0917C2668.3152,1090.4517,2687.9988,1008.4937,2738.5891,973.848Z" transform="translate(-872.6285 -230.5944)"/><path class="cls-46" d="M2837.8132,1048.84c28.4654-49.6151,48.9844-101.091,58.564-157.62-9.6831-48.31-19.926-97.6425-39.6-143.0658-11.9016-27.4784-28.5369-56.6689-57.21-69.28q-3.4146,143.0652-13.5159,285.8161C2817.6587,978.5209,2829.4822,1018.6682,2837.8132,1048.84Z" transform="translate(-872.6285 -230.5944)"/><path class="cls-47" d="M2704.2725,757.4q13.7406,194.6065,26.4128,389.2858a5.5736,5.5736,0,0,0,.75,2.5607q22.3191,36.0555,44.096,72.4366c1.7644,2.9595,5.2463.7119,5.8542-3.7788q7.3452-54.7727,13.6014-109.6746a8.7877,8.7877,0,0,0-.1436-2.9517q-41.5368-176.148-84.1084-352.0491C2709.395,747.6927,2703.84,751.2784,2704.2725,757.4Z" transform="translate(-872.6285 -230.5944)"/></g><g class="cls-48"><path class="cls-49" d="M1638.2476,2571.5029c25.6565,41.0718,76.6624,62.05,120.6554,76.5833,61.8138,20.4209,126.9226,30.6225,191.5062,37.3337,200.4836,20.833,404.5874,6.5918,603.77-19.9328,26.6633-4.0047,54.9341-27.6536,49.4822-57.3348q-47.2962-309.617-94.5921-619.2337c-3.6652-29.9946-37.8049-44.1424-64.4843-40.8744-199.1827,26.5246-403.2864,40.7659-603.77,19.933-64.5836-6.7112-129.6925-16.9129-191.5062-37.3338-43.9929-14.5335-94.999-35.5116-120.6554-76.5832l-2.219-2.0464c-2.3009,11.782.9272,24.7212,2.5918,36.4972q47.2962,309.6171,94.5923,619.2339C1626.8514,2527.9348,1628.5548,2552.9692,1638.2476,2571.5029Z" transform="translate(-872.6285 -230.5944)"/><path class="cls-50" d="M1724.8066,2138.8147c-41.2514-10.6494-83.336-23.3469-119.7606-46.1172-7.8482-6.7776-10.6878-19.1518-12.1728-28.9075l0,0c-1.9648-12.8626.1219-20.7251,5.0577-17.6724,36.4245,22.7705,78.5091,35.468,119.7606,46.1175,10.9061,3.8752,16.9155,16.1211,18.6335,26.8581h0C1738.29,2131.9558,1732.9865,2140.8384,1724.8066,2138.8147Z" transform="translate(-872.6285 -230.5944)"/><path class="cls-8" d="M1812.3451,2377.41c-57.1338-10.86-116.07-24.5588-166.9135-53.9641-13.0878-9.3528-17.9342-31.843-20.03-46.7139h0c-.35-4.1367-5.4722-34.78,8.51-28.7046,50.8435,29.4055,109.78,43.1045,166.9135,53.9646,18.4964,3.9541,30.484,25.12,33.1948,42.3238h0C1834.4945,2358.5247,1832.26,2379.9067,1812.3451,2377.41Z" transform="translate(-872.6285 -230.5944)"/><path class="cls-51" d="M1709.1224,2194.1917c-34.4785-10.398-68.5036-22.6246-98.9773-42.1734-2.3791-1.5513-5.0234-8.0447-6.0058-14.4763h0c-.9824-6.4314.0688-10.3652,2.4481-8.814,30.4736,19.5489,64.4988,31.7757,98.9773,42.1736,3.8268,1.1047,7.7942,7.19,8.7766,13.6213h0C1715.3237,2190.9543,1712.9492,2195.2964,1709.1224,2194.1917Z" transform="translate(-872.6285 -230.5944)"/><path class="cls-51" d="M1849.6951,2446.3662c-69.6537-11.3323-144.1278-26.01-204.48-64.7668-2.3791-1.5513-5.0234-8.045-6.006-14.4766h0c-.9824-6.4314.069-10.3655,2.4481-8.8142,60.3522,38.7573,134.8262,53.4346,204.48,64.7666,4.7886.7427,9.5267,6.5337,10.5093,12.9653h0C1857.6289,2442.4719,1854.4836,2447.1086,1849.6951,2446.3662Z" transform="translate(-872.6285 -230.5944)"/><path class="cls-51" d="M1738.5966,2483.4187c-29.3339-9.8052-57.1755-21.2422-83.5553-37.4939-2.3792-1.5513-5.0234-8.0449-6.0058-14.4763h0c-.9825-6.4312.0689-10.365,2.448-8.814,26.38,16.252,54.2215,27.689,83.5553,37.4939,3.6511,1.1643,7.4778,7.2981,8.46,13.7295h0C1744.4814,2480.2893,1742.2477,2484.583,1738.5966,2483.4187Z" transform="translate(-872.6285 -230.5944)"/><path class="cls-52" d="M2165.1667,2374.3347q-34.0344.8123-68.0676.8889c-26.7925.6277-49.1777-23.573-53.4231-48.5861v0c-3.9433-24.7466,12.8179-47.8,38.7281-47.6133q34.0437-.0656,68.0676-.8891c26.11-.2254,53.3557,19.3728,56.8049,46.3488v0C2211.34,2350.5674,2191.3967,2373.7175,2165.1667,2374.3347Z" transform="translate(-872.6285 -230.5944)"/><path class="cls-53" d="M1929.98,2321.0559c-16.5859-108.16,48.005-201.7991,161.52-203.1846" transform="translate(-872.6285 -230.5944)"/><path class="cls-54" d="M2091.4993,2117.8713c113.3979-.9023,233.9431,81.2181,251.7507,197.4632,17.29,112.8672-74.4839,218.4594-187.8843,220.6294-118.2922,2.2636-208.13-105.2-225.3861-214.908" transform="translate(-872.6285 -230.5944)"/></g><circle class="cls-55" cx="1870.4576" cy="1428.9703" r="102.3505"/><circle class="cls-56" cx="338.2656" cy="484.4684" r="102.3505"/></svg>