<svg id="图层_1" data-name="图层 1" xmlns="http://www.w3.org/2000/svg" xmlns:xlink="http://www.w3.org/1999/xlink" viewBox="0 0 2244.9742 2648.4324"><defs><style>.cls-1{fill:url(#未命名的渐变_125);}.cls-2{fill:url(#未命名的渐变_207);}.cls-3{fill:url(#未命名的渐变_87);}.cls-4{opacity:0.48;}.cls-5{fill:url(#未命名的渐变_11);}.cls-6{fill:url(#未命名的渐变_252);}.cls-35,.cls-39,.cls-40,.cls-41,.cls-7,.cls-8{fill:#fff;}.cls-28,.cls-8{opacity:0.34;}.cls-9{opacity:0.66;}.cls-10{fill:url(#未命名的渐变_102);}.cls-11{fill:url(#未命名的渐变_45);}.cls-12{fill:url(#未命名的渐变_87-2);}.cls-13{fill:url(#未命名的渐变_87-3);}.cls-14{fill:url(#未命名的渐变_125-2);}.cls-15{fill:url(#未命名的渐变_45-2);}.cls-16{clip-path:url(#clip-path);}.cls-17{fill:url(#未命名的渐变_195);}.cls-18{fill:url(#未命名的渐变_45-3);}.cls-19{fill:url(#未命名的渐变_87-4);}.cls-20{fill:url(#未命名的渐变_87-5);}.cls-21{fill:url(#未命名的渐变_87-6);}.cls-22{fill:url(#未命名的渐变_207-2);}.cls-23{clip-path:url(#clip-path-2);}.cls-24{fill:url(#未命名的渐变_87-7);}.cls-25{fill:url(#未命名的渐变_207-4);}.cls-26{fill:url(#未命名的渐变_45-4);}.cls-27{clip-path:url(#clip-path-3);}.cls-28{fill:url(#未命名的渐变_254);}.cls-29{fill:url(#未命名的渐变_45-5);}.cls-30{fill:url(#未命名的渐变_87-9);}.cls-31{fill:url(#未命名的渐变_45-6);}.cls-32{fill:url(#未命名的渐变_45-7);}.cls-33{fill:url(#未命名的渐变_45-8);}.cls-34{fill:url(#未命名的渐变_11-2);}.cls-35{opacity:0.43;}.cls-36{fill:url(#未命名的渐变_252-2);}.cls-37{opacity:0.36;}.cls-38{fill:url(#未命名的渐变_192);}.cls-39{opacity:0.44;}.cls-40{opacity:0.27;}.cls-41{opacity:0.46;}.cls-42,.cls-43{fill:none;stroke-linecap:round;stroke-linejoin:round;stroke-width:37.3036px;}.cls-42{stroke:#fff;}.cls-43{stroke:url(#未命名的渐变_102-2);}.cls-44,.cls-45{opacity:0.2;}.cls-44{fill:url(#未命名的渐变_191);}.cls-45{fill:url(#未命名的渐变_191-2);}.cls-46{fill:url(#未命名的渐变_252-3);}.cls-47{fill:url(#未命名的渐变_72);}.cls-48{fill:url(#未命名的渐变_252-4);}.cls-49{fill:url(#未命名的渐变_39);}.cls-50{fill:url(#未命名的渐变_39-2);}</style><linearGradient id="未命名的渐变_125" x1="2445.762" y1="2493.8505" x2="2041.2777" y2="1640.3516" gradientTransform="matrix(0.9937, 0.1124, -0.1124, 0.9937, -136.088, -17.8643)" gradientUnits="userSpaceOnUse"><stop offset="0.1011" stop-color="#fece63"/><stop offset="1" stop-color="#f55850"/></linearGradient><linearGradient id="未命名的渐变_207" x1="2637.2449" y1="608.0014" x2="2212.7068" y2="1168.9982" gradientTransform="matrix(0.9937, 0.1124, -0.1124, 0.9937, -136.088, -17.8643)" gradientUnits="userSpaceOnUse"><stop offset="0.0035" stop-color="#b585ff"/><stop offset="1" stop-color="#4e37f0"/></linearGradient><linearGradient id="未命名的渐变_87" x1="222.1586" y1="1678.7789" x2="68.0552" y2="2158.2119" gradientTransform="translate(1103.7453 -642.778) rotate(-23.3618)" gradientUnits="userSpaceOnUse"><stop offset="0.1023" stop-color="#fcadba"/><stop offset="0.8855" stop-color="#fbdad9"/></linearGradient><linearGradient id="未命名的渐变_11" x1="2044.9425" y1="879.5648" x2="3110.0753" y2="879.5648" gradientUnits="userSpaceOnUse"><stop offset="0.0083" stop-color="#00cafe"/><stop offset="1" stop-color="#0088fa"/></linearGradient><linearGradient id="未命名的渐变_252" x1="2555.5048" y1="505.4798" x2="2506.2226" y2="772.7983" gradientUnits="userSpaceOnUse"><stop offset="0.0035" stop-color="#4aaafd"/><stop offset="1" stop-color="#00ded8"/></linearGradient><linearGradient id="未命名的渐变_102" x1="1850.3642" y1="15.1242" x2="1269.9707" y2="1431.2844" gradientUnits="userSpaceOnUse"><stop offset="0.1011" stop-color="#ffdf94"/><stop offset="1" stop-color="#ffa200"/></linearGradient><linearGradient id="未命名的渐变_45" x1="484.8567" y1="-272.382" x2="458.6479" y2="-190.8437" gradientTransform="translate(1104.6655 1185.2356) scale(1.7722 1.7114)" gradientUnits="userSpaceOnUse"><stop offset="0.1023" stop-color="#915758"/><stop offset="0.8855" stop-color="#2c090b"/></linearGradient><linearGradient id="未命名的渐变_87-2" x1="2216.3414" y1="2417.6408" x2="2331.8799" y2="2417.6408" gradientTransform="matrix(0.9937, 0.1124, -0.1124, 0.9937, -1013.6009, -193.6481)" xlink:href="#未命名的渐变_87"/><linearGradient id="未命名的渐变_87-3" x1="1986.5073" y1="2269.624" x2="2161.6166" y2="2269.624" gradientTransform="translate(-1118.8607 -173.4318) rotate(7.7105)" xlink:href="#未命名的渐变_87"/><linearGradient id="未命名的渐变_125-2" x1="2856.2558" y1="2268.4374" x2="2303.337" y2="1808.2902" xlink:href="#未命名的渐变_125"/><linearGradient id="未命名的渐变_45-2" x1="2200.2105" y1="2533.9157" x2="2442.0185" y2="2533.9157" gradientTransform="matrix(0.9937, 0.1124, -0.1124, 0.9937, -136.088, -17.8643)" xlink:href="#未命名的渐变_45"/><clipPath id="clip-path" transform="translate(-877.5129 -175.7838)"><path class="cls-1" d="M1451.6332,2434.8005s12.4431,83.9232,116.8531,106.0083l391.7368-357.0238a91.3354,91.3354,0,0,0,29.1216-56.2989l73.4193-593.8651-229.8625-10.018s-44.7969,373.9452-33.1714,581.9227Z"/></clipPath><linearGradient id="未命名的渐变_195" x1="1975.0005" y1="1830.0606" x2="2004.6875" y2="1758.3172" gradientTransform="matrix(0.9937, 0.1124, -0.1124, 0.9937, -136.088, -17.8643)" gradientUnits="userSpaceOnUse"><stop offset="0.1011" stop-color="#f1b551"/><stop offset="1" stop-color="#e83f51"/></linearGradient><linearGradient id="未命名的渐变_45-3" x1="1949.6277" y1="2390.1772" x2="2147.4806" y2="2390.1772" gradientTransform="translate(-241.3478 2.352) rotate(7.7105)" xlink:href="#未命名的渐变_45"/><linearGradient id="未命名的渐变_87-4" x1="2409.1822" y1="1204.8863" x2="2648.1026" y2="1204.8863" gradientTransform="matrix(0.9937, 0.1124, -0.1124, 0.9937, -136.088, -17.8643)" xlink:href="#未命名的渐变_87"/><linearGradient id="未命名的渐变_87-5" x1="2597.7786" y1="795.3336" x2="2804.7935" y2="528.2176" gradientTransform="matrix(0.9937, 0.1124, -0.1124, 0.9937, -136.088, -17.8643)" xlink:href="#未命名的渐变_87"/><linearGradient id="未命名的渐变_87-6" x1="2613.6543" y1="807.6372" x2="2820.6691" y2="540.5213" gradientTransform="matrix(0.9937, 0.1124, -0.1124, 0.9937, -136.088, -17.8643)" xlink:href="#未命名的渐变_87"/><linearGradient id="未命名的渐变_207-2" x1="2826.7812" y1="470.5062" x2="2237.9906" y2="1093.9315" xlink:href="#未命名的渐变_207"/><clipPath id="clip-path-2" transform="translate(-877.5129 -175.7838)"><path class="cls-2" d="M1782.4092,1535.7445s188.5836,106.939,369.38-6.9045l-39.7722-176.9828s85.5-64.1709-65.9812-220.7379l-10.6838-75.4846-100.9688-31.58C1807.1712,1115.4362,1860.55,1448.9876,1782.4092,1535.7445Z"/></clipPath><linearGradient id="未命名的渐变_87-7" x1="2171.9338" y1="856.5234" x2="2335.1873" y2="856.5234" gradientTransform="matrix(0.9937, 0.1124, -0.1124, 0.9937, -136.088, -17.8643)" xlink:href="#未命名的渐变_87"/><linearGradient id="未命名的渐变_207-4" x1="2763.6189" y1="772.2786" x2="2093.1087" y2="1227.5328" xlink:href="#未命名的渐变_207"/><linearGradient id="未命名的渐变_45-4" x1="392.7656" y1="1193.2375" x2="319.2766" y2="1421.87" gradientTransform="translate(1735.2288 -560.7463)" xlink:href="#未命名的渐变_45"/><clipPath id="clip-path-3" transform="translate(-877.5129 -175.7838)"><polygon class="cls-3" points="1959.161 953.994 1958.719 1073.232 2041.823 1101.356 2020.229 931.25 1959.161 953.994"/></clipPath><linearGradient id="未命名的渐变_254" x1="244.1283" y1="1767.2063" x2="144.2818" y2="2077.8399" gradientTransform="translate(1103.7453 -642.778) rotate(-23.3618)" gradientUnits="userSpaceOnUse"><stop offset="0.1011" stop-color="#ff7638"/><stop offset="0.8855" stop-color="#ff3929"/></linearGradient><linearGradient id="未命名的渐变_45-5" x1="218.4344" y1="1608.9816" x2="164.7864" y2="1775.8866" gradientTransform="translate(226.2323 -818.5618) rotate(-23.3618)" xlink:href="#未命名的渐变_45"/><linearGradient id="未命名的渐变_87-9" x1="138.1625" y1="1787.4877" x2="282.6433" y2="1787.4877" xlink:href="#未命名的渐变_87"/><linearGradient id="未命名的渐变_45-6" x1="239.0085" y1="1619.9487" x2="189.4532" y2="1774.1204" gradientTransform="translate(1103.7453 -642.778) rotate(-23.3618)" xlink:href="#未命名的渐变_45"/><linearGradient id="未命名的渐变_45-7" x1="176.6047" y1="1599.8903" x2="127.0495" y2="1754.0621" gradientTransform="translate(1810.45 -834.6379)" xlink:href="#未命名的渐变_45"/><linearGradient id="未命名的渐变_45-8" x1="499.8355" y1="-410.4185" x2="438.4194" y2="-219.3461" gradientTransform="translate(1150.9571 1213.4945) scale(1.7722 1.7114)" xlink:href="#未命名的渐变_45"/><linearGradient id="未命名的渐变_11-2" x1="1974.7907" y1="1217.2954" x2="3122.4871" y2="1217.2954" xlink:href="#未命名的渐变_11"/><linearGradient id="未命名的渐变_252-2" x1="2832.0841" y1="1045.7968" x2="2704.3852" y2="1424.7742" xlink:href="#未命名的渐变_252"/><linearGradient id="未命名的渐变_192" x1="1826.4196" y1="721.3197" x2="1231.1426" y2="1751.3055" gradientUnits="userSpaceOnUse"><stop offset="0" stop-color="#ff95f8"/><stop offset="0.8855" stop-color="#9c00ff"/></linearGradient><linearGradient id="未命名的渐变_102-2" x1="1326.9661" y1="1360.5988" x2="1775.8026" y2="1532.2128" xlink:href="#未命名的渐变_102"/><linearGradient id="未命名的渐变_191" x1="1381.6235" y1="99.0691" x2="1579.7617" y2="99.0691" gradientUnits="userSpaceOnUse"><stop offset="0.0048" stop-color="#ff88d6"/><stop offset="0.9986" stop-color="#ff16b4"/></linearGradient><linearGradient id="未命名的渐变_191-2" x1="291.0268" y1="1864.5746" x2="573.2367" y2="1864.5746" xlink:href="#未命名的渐变_191"/><linearGradient id="未命名的渐变_252-3" x1="2338.9376" y1="2350.6902" x2="2490.2145" y2="2350.6902" xlink:href="#未命名的渐变_252"/><linearGradient id="未命名的渐变_72" x1="2295.7213" y1="2425.9825" x2="2418.5737" y2="2425.9825" gradientUnits="userSpaceOnUse"><stop offset="0.0048" stop-color="#fff091"/><stop offset="0.9986" stop-color="#ffa71a"/></linearGradient><linearGradient id="未命名的渐变_252-4" x1="2433.6831" y1="2399.977" x2="2518.9562" y2="2399.977" xlink:href="#未命名的渐变_252"/><linearGradient id="未命名的渐变_39" x1="2470.2835" y1="2393.1434" x2="2359.2515" y2="2819.1964" gradientUnits="userSpaceOnUse"><stop offset="0.0048" stop-color="#b68bff"/><stop offset="0.9986" stop-color="#8948ff"/></linearGradient><linearGradient id="未命名的渐变_39-2" x1="1516.0341" y1="2449.6716" x2="1499.4379" y2="2503.2901" xlink:href="#未命名的渐变_39"/></defs><title>商务协作渐变扁平矢量人物场景插画1020220902果冻</title><g class="cls-4"><path class="cls-5" d="M2208.3469,1200.6879c194.909-25.6383,394.44-39.247,590.57-18.935,62.6658,6.49,125.7752,16.3773,185.8645,35.8022,43.7662,14.1479,95.5086,34.6971,121.4512,75.2783l2.9949,2.5825c2.2546-9.8324-.5557-21.2926-1.8557-30.9359q-47.3437-309.928-94.6873-619.8561c-2.904-19.02-5.0114-42.8194-14.6379-60.0135-25.9424-40.5812-77.6848-61.13-121.4509-75.2783-60.09-19.4247-123.1988-29.3121-185.8648-35.802-196.1294-20.3121-395.6606-6.7035-590.57,18.9349-25.8777,2.8691-58.6653,23.2708-54.9253,53.0417q47.3438,309.9281,94.6873,619.8562C2145.39,1195.0013,2182.6038,1204.6663,2208.3469,1200.6879Z" transform="translate(-877.5129 -175.7838)"/><path class="cls-6" d="M2460.6538,735.0359q-29.451-27.4356-59.36-54.36c-6.3693-6.513-19.3991-6.5279-24.8039,1.3214q-40.7731,55.7378-81.9649,111.1663c-6.0246,8.1183-.799,13.7634,11.5972,12.6876,135.4754-11.4245,271.7446-15.3429,407.3826-4.3132,9.5161.8093,11.7095-4.9252,5.09-12.8709q-73.2756-87.4683-152.5176-169.5448c-7.3665-7.63-17.4338-7.7292-22.5813-.3449Q2502.6166,677.2948,2460.6538,735.0359Zm-137.7725-164.737" transform="translate(-877.5129 -175.7838)"/><path class="cls-7" d="M2327.73,602.04c2.2109,17.3573,18.896,31.2168,33.8979,35.9716,17.2183,5.4573,38.0474,6.9142,55.1922-2.8007,13.3828-7.5832,23.7917-23.008,21.2561-38.7756-4.3391-26.9825-36.2249-42.1736-61.1131-41.4084-24.6848.7589-52.8347,19.53-49.2331,47.0131Z" transform="translate(-877.5129 -175.7838)"/><path class="cls-8" d="M3033.1765,1019.68c-76.4079-52.2917-180.6672-65.5472-270.45-74.8456-145.3313-15.0513-292.3543-10.3819-437.6844,1.9156-15.6606,1.3848-34.8391-5.789-38.4809-22.7h0c-1.6892-17.1,15.3467-27.8714,30.5642-29.1262,145.33-12.2978,292.353-16.9676,437.6841-1.9169,89.7832,9.2981,194.0422,22.5531,270.45,74.8442,9.1159,8.14,12.7011,22.1211,14.4922,33.7124h0C3041.9377,1015.8754,3039.3228,1023.897,3033.1765,1019.68Z" transform="translate(-877.5129 -175.7838)"/><path class="cls-8" d="M3050.1414,1130.7384c-76.4078-52.2925-180.667-65.5488-270.4507-74.8478-145.3311-15.0521-292.3543-10.3834-437.6846,1.9135-15.6614,1.3849-34.8394-5.79-38.4812-22.7013h0c-1.6895-17.1,15.3467-27.8715,30.5642-29.1262,145.33-12.2969,292.3535-16.9656,437.6846-1.9134,89.7837,9.2989,194.043,22.5552,270.4507,74.8477,9.1159,8.14,12.7011,22.1208,14.4922,33.7121h0C3058.9028,1126.9348,3056.2878,1134.9559,3050.1414,1130.7384Z" transform="translate(-877.5129 -175.7838)"/></g><g class="cls-9"><path class="cls-10" d="M1911.6565,1274.0021c-213.8416,36.93-428.679,88.2468-628.6165,174.2805-65.0887,28.0079-129.5958,59.897-187.2248,101.4509-40.1585,28.9567-85.1581,66.7315-98.4212,116.6742q-.8409,1.5328-1.682,3.0656c-6.2939-10.6226-6.9849-24.7754-8.9716-36.8244L883.8734,959.2451c-3.3906-22.19-8.7946-47.1933-5.1424-69.6481,13.263-49.9428,58.2627-87.7175,98.4211-116.6741,57.629-41.5541,122.1361-73.4431,187.2247-101.451,199.9377-86.0337,414.7751-137.35,628.6166-174.2806,28.2963-4.3511,67.1032,8.5685,71.1707,41.4952l102.867,673.4037C1972.9772,1244.73,1939.7169,1268.7909,1911.6565,1274.0021Z" transform="translate(-877.5129 -175.7838)"/><path class="cls-7" d="M1560.2148,851.6822c-69.9062,17.9545-139.15,38.0818-207.552,61.1321-15.6638,6.4223-30.4823-5.8949-33.2241-20.9171h0c-2.9913-16.6373,8.03-35.1407,23.8079-40.7256,68.4013-23.05,137.6456-43.1778,207.5519-61.1324,16.3222-4.9122,35.6843,5.013,38.3852,22.4455h0C1591.65,830.2486,1577.3162,847.8929,1560.2148,851.6822Z" transform="translate(-877.5129 -175.7838)"/><path class="cls-8" d="M1740.8387,1065.2225c-118.5028,24.9757-235.7163,55.4626-350.5113,94.1568-15.663,6.4222-30.4819-5.8924-33.2239-20.9146h0c-2.9912-16.6369,8.0313-35.1395,23.8081-40.7243,114.7952-38.6939,232.0087-69.18,350.5115-94.1555,16.8217-4.217,37.687,5.2965,40.62,23.5184h0C1774.588,1045.5137,1758.1989,1062.2087,1740.8387,1065.2225Z" transform="translate(-877.5129 -175.7838)"/><path class="cls-8" d="M1511.4045,992.9973q-70.4954,19.8464-139.909,43.1021c-15.6637,6.4223-30.4823-5.8943-33.2241-20.9166h0c-2.9914-16.6373,8.03-35.1406,23.8078-40.7257q69.4029-23.3885,139.9091-43.102c16.0547-5.2686,34.5482,5.0232,37.1228,21.9739h0C1541.5356,970.7218,1528.3126,988.8126,1511.4045,992.9973Z" transform="translate(-877.5129 -175.7838)"/><path class="cls-7" d="M1004.931,945.9589l-11.1761-73.1624c-48.4509,34.8065-60.9753,102.38-65.23,157.9246-5.9469,77.63,2.3307,156.7468,14.1376,233.4613a133.5,133.5,0,0,1,14.1669-26.0717c-8.6745-57.2749-12.6232-116.6242-5.3614-174.2793C956.7783,1021.6677,968.7315,972.55,1004.931,945.9589Z" transform="translate(-877.5129 -175.7838)"/><path class="cls-7" d="M956.829,1238.1107a133.5,133.5,0,0,0-14.1669,26.0717c8.8456,56.1032,16.5712,120.08,45.9705,169.9623q2.9628-34.8537,7.3811-69.5141C971.159,1328.4546,963.7081,1280.42,956.829,1238.1107Z" transform="translate(-877.5129 -175.7838)"/><path class="cls-8" d="M1136.4021,887.5876c-40.2849-30.8737-96.7827-47.7714-142.6469-14.7912q5.588,36.5811,11.176,73.162c32.7834-24.7721,73.7713-11.7793,102.05,10.7788,37.821,30.17,55.8285,79.52,64.2081,126.9348,18.5346-8.891,37.3179-17.231,56.19-25.3763C1216.2284,993.2855,1188.9915,927.8914,1136.4021,887.5876Z" transform="translate(-877.5129 -175.7838)"/><path class="cls-7" d="M1171.1893,1083.672c15.3128,96.6639-19.0567,236.07-100.7267,291.2784-27.5672,18.6353-52.2816,17.3127-74.4491-10.32q-4.4135,34.7012-7.3809,69.5138c22.4084,40.35,59.9006,36.6386,93.0063,13.9693,51.7771-35.4545,88.0731-99.0878,112.5355-157.1619,30.6891-72.8564,45.2085-153.9965,33.2048-232.6562C1208.5072,1066.441,1189.7239,1074.781,1171.1893,1083.672Z" transform="translate(-877.5129 -175.7838)"/><path class="cls-8" d="M1085.7689,1129.1122c-30.7629,18.742-60.6067,38.8094-87.5409,62.83-13.31,9.5342-18.0978-15.7713-19.8963-23.8145h0c-2.553-15.2806-3.0479-38.7592,8.49-50.8537,26.9343-24.0209,56.778-44.0882,87.5409-62.83,17.3446-9.16,25.44,11.2947,28.88,23.963h0C1105.6471,1094.865,1101.527,1119.61,1085.7689,1129.1122Z" transform="translate(-877.5129 -175.7838)"/><path class="cls-8" d="M1131.1106,1179.8285c-51.0273,28.0814-102.3973,59.3508-142.4167,102.3425-3.1931,3.44-6.7741-1.495-8.2284-11.0154h0c-1.4543-9.5205-.2313-20.0218,2.9619-23.4613,40.0194-42.9917,91.3894-74.261,142.4166-102.3422,6.2709-3.3887,12.6855,1.5927,14.14,11.1131h0C1141.4381,1165.9856,1137.3813,1176.44,1131.1106,1179.8285Z" transform="translate(-877.5129 -175.7838)"/></g><ellipse class="cls-11" cx="1887.2659" cy="949.4013" rx="48.4215" ry="40.6277" transform="translate(-1099.9795 883.9082) rotate(-29.6975)"/><polygon class="cls-12" points="906.127 2553.03 946.153 2362.199 1039.966 2397.786 980.666 2563.984 906.127 2553.03"/><polygon class="cls-13" points="536.155 2408.831 656.245 2251.855 723.586 2329.628 597.342 2454.637 536.155 2408.831"/><path class="cls-14" d="M1810.507,2556.7914s-12.2767,43.0591,132.6992,33.5735l129.7583-413.9539a84.6817,84.6817,0,0,0,3.6695-19.4071l14.7439-644.071-178.2192,2.4915-.273,621.1164Z" transform="translate(-877.5129 -175.7838)"/><path class="cls-15" d="M1786.9693,2699.384l-23.3655,69.9341c-5.3049,13.609,3.3306,28.6067,17.3871,30.1971l218.3267,24.701c18.4546-47.3425-173.4631-40.81-119.2389-108.8206Z" transform="translate(-877.5129 -175.7838)"/><path class="cls-1" d="M1451.6332,2434.8005s12.4431,83.9232,116.8531,106.0083l391.7368-357.0238a91.3354,91.3354,0,0,0,29.1216-56.2989l73.4193-593.8651-229.8625-10.018s-44.7969,373.9452-33.1714,581.9227Z" transform="translate(-877.5129 -175.7838)"/><g class="cls-16"><path class="cls-17" d="M1703.6488,1598.9958c313.0374,59.3115,387.7291-86.0629,387.7291-86.0629l-344.0216-61.3235s-16.1354,118.6791-12.3992,135.9941" transform="translate(-877.5129 -175.7838)"/></g><path class="cls-18" d="M1439.0694,2545.2535l-61.3525,62.4289a22.2932,22.2932,0,0,0-2.1655,28.4313l71.1687,97.3335a19.1293,19.1293,0,0,0,12.86,7.7767l93.2808,12.6294c15.404-47.41-158.4491-57.428-45.3893-138.6664Z" transform="translate(-877.5129 -175.7838)"/><path class="cls-19" d="M2143.9592,1414.4847s125.6156-1.4692,143.31.5327,45.2906.6438,47.2522,3.1059,6.9605,22.6291-45.3793,23.2413c0,0,66.6355,31.4341,64.8865,86.4937,0,0-16.3373,15.7-24.839-14.7578-.3673,19.7466-17.29,20.8189-22.2571,5.3225-1.2929,11.4279-17.11,12.6253-31.1543-11.7387s-156.82-26.33-156.82-26.33Z" transform="translate(-877.5129 -175.7838)"/><path class="cls-20" d="M2417.71,969.3106s29.999-45.2137,38.9352-57.7048,31.021-44.018,53.9683-47.3627,66.7976-12.4259,67.7594-10.6968,2.25,15.9171-17.45,21.25-45.5681,19.1484-45.5681,19.1484l-8.8936,63.264L2438.83,1033.27Z" transform="translate(-877.5129 -175.7838)"/><path class="cls-21" d="M2471.2987,976.4537l13.5946-7.4407,21.568-11.8048s42.4166-37.3278,46.2991-46.07,1.09-19.86-5.5576-17.3714-56.4889,38.9524-56.4889,38.9524" transform="translate(-877.5129 -175.7838)"/><path class="cls-22" d="M2431.2628,941.3558s46.8335,70.03,40.7523,100.3144l-141.8333,143.6621a63.332,63.332,0,0,1-32.2626,17.3182l-231.52,48.03-48.9622-148.0111,242.8742-13.0744Z" transform="translate(-877.5129 -175.7838)"/><path class="cls-2" d="M1782.4092,1535.7445s188.5836,106.939,369.38-6.9045l-39.7722-176.9828s85.5-64.1709-65.9812-220.7379l-10.6838-75.4846-100.9688-31.58C1807.1712,1115.4362,1860.55,1448.9876,1782.4092,1535.7445Z" transform="translate(-877.5129 -175.7838)"/><g class="cls-23"><path class="cls-24" d="M2081.6465,1151.9537s-5.7364,25.8091-22.2452,26.7371-56.5062-94.8825-113.4363-108.0647c-43.8587-10.1556,10.94-75.9428,10.94-75.9428l63.95,23.4182,35.73,19.7792" transform="translate(-877.5129 -175.7838)"/></g><path class="cls-25" d="M2216.1379,1409.8436s11.4256,64.0147-30.4944,91.33l-311.9577,5.6347c-31.5045,1.71-62.0394-11.6232-81.1307-35.426h0c-19.9423-24.8639-24.5062-57.5282-12.001-85.8937l104.8054-237.73c13.5138-30.6532,49.441-46.7931,83.89-37.6868h0c37.9444,10.03,60.403,46.8752,50.0743,82.1507l-56.722,193.72Z" transform="translate(-877.5129 -175.7838)"/><ellipse class="cls-26" cx="2006.6971" cy="1009.861" rx="76.6127" ry="66.5635" transform="translate(-1114.2456 951.0181) rotate(-29.6975)"/><polygon class="cls-3" points="1081.648 778.21 1081.207 897.448 1164.31 925.572 1142.716 755.466 1081.648 778.21"/><g class="cls-27"><path class="cls-28" d="M1981.4936,982.7429c63.9483,45.1352,75.688,90.1281,75.688,90.1281l44.8434-19.37-40.0287-92.67-80.5027,21.9121" transform="translate(-877.5129 -175.7838)"/></g><circle class="cls-29" cx="1079.3087" cy="721.6138" r="88.132"/><path class="cls-30" d="M1955.38,980.4122c196.247,77.1053,131.4611-130.7366,58.7445-157.9123S1955.38,980.4122,1955.38,980.4122Z" transform="translate(-877.5129 -175.7838)"/><path class="cls-31" d="M1917.0034,1018.8515c225.0951-41.25,45.4515-151.071,110.4945-188.7332,41.3465-23.9412,4-57.6519-30.1165-20.923s-65.7665,51.3995-65.7665,51.3995l-9.1246,66.8176Z" transform="translate(-877.5129 -175.7838)"/><ellipse class="cls-32" cx="1921.104" cy="970.4323" rx="37.9201" ry="35.248" transform="translate(-1104.8306 665.5612) rotate(-23.3618)"/><ellipse class="cls-33" cx="1857.1175" cy="1050.8331" rx="113.4682" ry="95.2046" transform="translate(-1154.1909 882.2947) rotate(-29.6975)"/><g class="cls-4"><path class="cls-34" d="M3120.63,1421.8955c-14.5718,53.5267-64.35,93.9208-107.5926,124.5426-59.5454,42.1668-125.7224,74.8455-192.5857,103.6165-208.9279,89.9-433.332,143.7478-656.759,182.5747-27.9455,4.8132-74.6177-4.3335-78.9521-39.3092q-54.6578-357.8089-109.3156-715.6177c-6.2886-34.5958,35.5565-57.6181,63.4209-62.3643,223.4271-38.8269,447.8312-92.6742,656.7589-182.5747,66.8633-28.771,133.0406-61.45,192.5857-103.6164,43.2424-30.6219,93.0208-71.0159,107.5928-124.5427q.9573-1.9162,1.9148-3.8324c6.8891,8.9193,7.2773,23.5184,9.1015,34.4562l109.3155,715.6174C3119.4973,1372.9927,3125.5569,1399.5743,3120.63,1421.8955Z" transform="translate(-877.5129 -175.7838)"/><path class="cls-7" d="M2749.6458,1257.5707c27.9978-12.8059,58.9311-21.4479,90.4467-15.8882q35.9535-157.5325,60.208-317.2994c-70.4743-13.8853-145.7338,15.1281-208.2812,43.8061-108.3789,49.6917-208.4675,124.096-290.8626,210.7479-78.9707,83.0506-145.5522,184.0437-166.9636,298.2549,120.5867-.9221,241.0557-5.8529,361.2588-15.5726C2606.4326,1374.9106,2672.468,1292.8711,2749.6458,1257.5707Z" transform="translate(-877.5129 -175.7838)"/><path class="cls-35" d="M2927.28,1328.3212c53.89-52.352,102.166-110.3935,129.4021-181.2-20.6406-87.8068-53.5554-203.3879-156.3816-222.7382q-24.0039,159.7968-60.208,317.2994C2885.885,1249.8049,2912.4133,1287.1964,2927.28,1328.3212Z" transform="translate(-877.5129 -175.7838)"/><path class="cls-36" d="M2711.3857,1022.7q2.1933,213.351,2.3584,426.7143a3.751,3.751,0,0,0,1.1,2.7365q37.4776,36.939,74.1846,74.6349c2.9605,3.0539,9.7879.148,11.4788-4.8856q20.4129-61.0969,38.9414-122.7792a5.7,5.7,0,0,0,.0886-3.2423q-56.777-189.5792-115.48-378.5718C2722.2083,1011.3563,2711.3162,1015.9921,2711.3857,1022.7Z" transform="translate(-877.5129 -175.7838)"/></g><g class="cls-37"><path class="cls-38" d="M1002.1641,1705.7767c27.7943,44.5863,83.299,67.4,131.0064,83.1575,67.1191,22.1689,137.82,33.2521,207.9445,40.5355,217.671,22.6082,439.3291,7.2108,655.5843-21.6435,29.0152-4.4475,59.6161-29.8325,53.7287-62.2552q-51.355-336.1875-102.71-672.375c-4.0668-32.7362-40.9651-47.8537-70.018-44.3822-216.2553,28.8545-437.9134,44.2518-655.5845,21.6437-70.1248-7.2834-140.8253-18.3667-207.9444-40.5356-47.7074-15.7573-103.2122-38.5711-131.0064-83.1575l-2.4094-2.222c-4.462,10.5224,1.3437,29.2269,2.8143,39.6292q51.3549,336.1878,102.71,672.3753C989.88,1659.16,991.9655,1684.9381,1002.1641,1705.7767Z" transform="translate(-877.5129 -175.7838)"/><path class="cls-39" d="M1096.1516,1235.9558c-44.9425-11.5657-90.2519-25.55-130.0382-50.0747-8.5218-7.3591-11.6052-20.7953-13.2176-31.3883h0c-2.1335-13.9666.1322-22.5039,5.4915-19.189,39.7864,24.525,85.0957,38.5092,130.0384,50.0751,11.842,4.2077,18.3671,17.5046,20.2326,29.1631h0C1110.2542,1222.6333,1108.1062,1238.3918,1096.1516,1235.9558Z" transform="translate(-877.5129 -175.7838)"/><path class="cls-7" d="M1191.2023,1495.0273c-62.1309-11.78-125.8986-26.8039-181.2376-58.5953-14.2829-9.8032-19.3537-35.1744-21.749-50.7225h0c-.7-7.0716-5.4828-36.27,9.24-31.1679,55.339,31.7915,119.1067,46.8151,181.2376,58.5956,20.0839,4.2936,33.1,27.2762,36.0435,45.9559v0C1217.358,1474.5487,1211.2018,1497.9764,1191.2023,1495.0273Z" transform="translate(-877.5129 -175.7838)"/><path class="cls-40" d="M1079.1213,1296.0853c-37.1987-11.1755-74.8032-24.2677-107.4713-45.7925-2.5833-1.6843-5.4545-8.7353-6.5212-15.7187h0c-1.0668-6.9835.0748-11.2548,2.6581-9.57,32.6681,21.5249,70.2727,34.6173,107.4715,45.7929,4.1551,1.1994,8.4628,7.8068,9.53,14.79h0C1085.8547,1292.57,1083.2765,1297.2848,1079.1213,1296.0853Z" transform="translate(-877.5129 -175.7838)"/><path class="cls-40" d="M1231.7576,1569.9006c-75.0436-12.1551-157.34-27.706-222.0279-70.3249-2.5834-1.6843-5.4545-8.7351-6.5213-15.7186h0c-1.0667-6.9834.0748-11.255,2.6581-9.5707,64.6879,42.6188,146.9845,58.17,222.0279,70.3248,5.2.8063,10.3445,7.0942,11.4113,14.0778h0C1240.3724,1565.6726,1236.9572,1570.707,1231.7576,1569.9006Z" transform="translate(-877.5129 -175.7838)"/><path class="cls-40" d="M1111.1248,1610.1332c-31.5868-10.5058-62.6122-22.619-90.7257-40.7117-2.5834-1.6843-5.4545-8.7351-6.5212-15.7184h0c-1.0668-6.9834.0748-11.2546,2.6582-9.57,28.1134,18.0925,59.1388,30.2059,90.7256,40.7116,3.9645,1.264,8.12,7.9242,9.1863,14.9077h0C1117.5148,1606.7354,1115.0892,1611.3972,1111.1248,1610.1332Z" transform="translate(-877.5129 -175.7838)"/><path class="cls-41" d="M1574.3022,1491.6876q-36.9552.8941-73.909.9655c-29.22.64-53.3007-25.5279-58.0075-52.7559h0c-3.6739-26.112,13.6979-52.7417,42.0512-51.7q36.9663-.0584,73.909-.9652c28.4462-.1549,57.87,20.9082,61.68,50.3264h0C1625.3286,1465.9733,1601.91,1490.5533,1574.3022,1491.6876Z" transform="translate(-877.5129 -175.7838)"/><path class="cls-42" d="M1318.932,1433.8368c-8.0881-54.0167-.7792-112.5639,33.5938-156.698,33.69-43.257,87.9582-63.6509,141.7874-63.9235" transform="translate(-877.5129 -175.7838)"/><path class="cls-43" d="M1494.3132,1213.2153c123.7871-2.3155,253.62,88.5993,273.3555,214.409,19.314,123.1251-80.9191,237.6151-204.0082,239.5632-127.5393,2.0187-227.0487-113.3589-244.7285-233.3507" transform="translate(-877.5129 -175.7838)"/></g><circle class="cls-44" cx="1480.6926" cy="99.0691" r="99.0691"/><circle class="cls-45" cx="432.1318" cy="1864.5746" r="141.1049"/><path class="cls-46" d="M2436.731,2167.2171c-124.8277,102.3026-119.6812,287.135-43.3329,363.2172l76.02,3.7289s50.2464-91.5712-5.4653-188.4635C2400.1085,2234.6635,2436.731,2167.2171,2436.731,2167.2171Z" transform="translate(-877.5129 -175.7838)"/><path class="cls-47" d="M2318.4254,2315.083s-57.7771,147.0063,11.0052,221.7989h89.1431S2303.2933,2372.682,2318.4254,2315.083Z" transform="translate(-877.5129 -175.7838)"/><path class="cls-48" d="M2479.376,2269.52s-3.0479,208.0439-45.6929,260.9146h63.5763S2556.4122,2380.4191,2479.376,2269.52Z" transform="translate(-877.5129 -175.7838)"/><path class="cls-49" d="M2545.355,2550.8676l-126.7368-6.2634v-.0037l-.0426.0019-.0426-.0019v.0037l-126.7411,6.2634s-13.1064,147.3943,51.1671,173.2147H2494.19C2558.4636,2698.2619,2545.355,2550.8676,2545.355,2550.8676Z" transform="translate(-877.5129 -175.7838)"/><rect class="cls-50" x="1397.6497" y="2350.3394" width="286.8222" height="36.9536"/></svg>