<svg width="4000" height="3000" viewBox="0 0 4000 3000" fill="none" xmlns="http://www.w3.org/2000/svg">
<path d="M3096.52 664.689C2993.16 664.689 2909.37 748.478 2909.37 851.836C2909.37 955.194 2993.16 1038.98 3096.52 1038.98C3199.88 1038.98 3283.66 955.194 3283.66 851.836C3283.66 748.478 3199.88 664.689 3096.52 664.689ZM3096.52 909.16C3085.18 909.16 3074.1 905.798 3064.67 899.499C3055.24 893.2 3047.9 884.248 3043.56 873.773C3039.22 863.298 3038.08 851.772 3040.3 840.653C3042.51 829.533 3047.97 819.319 3055.98 811.302C3064 803.285 3074.22 797.825 3085.33 795.613C3096.45 793.401 3107.98 794.536 3118.46 798.875C3128.93 803.214 3137.88 810.561 3144.18 819.988C3150.48 829.415 3153.84 840.498 3153.84 851.836C3153.84 859.364 3152.36 866.818 3149.48 873.773C3146.6 880.728 3142.38 887.047 3137.05 892.37C3131.73 897.693 3125.41 901.916 3118.46 904.797C3111.5 907.678 3104.05 909.16 3096.52 909.16Z" fill="#F1E5FF"/>
<path d="M796.233 1503C692.875 1503 609.087 1586.79 609.087 1690.15C609.087 1793.5 692.875 1877.29 796.233 1877.29C899.592 1877.29 983.38 1793.5 983.38 1690.15C983.38 1586.79 899.592 1503 796.233 1503ZM796.233 1747.47C784.896 1747.47 773.812 1744.11 764.386 1737.81C754.959 1731.51 747.611 1722.56 743.272 1712.08C738.934 1701.61 737.799 1690.08 740.01 1678.96C742.222 1667.84 747.682 1657.63 755.699 1649.61C763.716 1641.59 773.93 1636.14 785.05 1633.92C796.169 1631.71 807.695 1632.85 818.17 1637.19C828.645 1641.52 837.598 1648.87 843.896 1658.3C850.195 1667.73 853.557 1678.81 853.557 1690.15C853.557 1697.67 852.075 1705.13 849.194 1712.08C846.313 1719.04 842.091 1725.36 836.768 1730.68C831.444 1736 825.125 1740.23 818.17 1743.11C811.215 1745.99 803.761 1747.47 796.233 1747.47Z" fill="#F1E5FF"/>
<path d="M3384.33 1703.95C3365.8 1703.95 3347.69 1709.44 3332.28 1719.73C3316.88 1730.03 3304.87 1744.65 3297.78 1761.77C3290.69 1778.89 3288.84 1797.72 3292.45 1815.89C3296.07 1834.06 3304.99 1850.76 3318.09 1863.86C3331.19 1876.96 3347.88 1885.88 3366.05 1889.49C3384.22 1893.11 3403.06 1891.25 3420.17 1884.16C3437.29 1877.07 3451.92 1865.07 3462.21 1849.66C3472.51 1834.26 3478 1816.15 3478 1797.62C3478 1785.32 3475.58 1773.14 3470.87 1761.77C3466.16 1750.41 3459.26 1740.08 3450.56 1731.38C3441.87 1722.68 3431.54 1715.78 3420.17 1711.08C3408.81 1706.37 3396.63 1703.95 3384.33 1703.95ZM3384.33 1826.31C3378.65 1826.31 3373.1 1824.63 3368.39 1821.48C3363.67 1818.32 3359.99 1813.84 3357.82 1808.6C3355.65 1803.36 3355.08 1797.59 3356.18 1792.02C3357.29 1786.46 3360.02 1781.34 3364.04 1777.33C3368.05 1773.32 3373.16 1770.58 3378.73 1769.48C3384.29 1768.37 3390.06 1768.94 3395.31 1771.11C3400.55 1773.28 3405.03 1776.96 3408.18 1781.68C3411.34 1786.4 3413.02 1791.94 3413.02 1797.62C3413.02 1801.39 3412.28 1805.12 3410.84 1808.6C3409.39 1812.08 3407.28 1815.24 3404.62 1817.91C3401.95 1820.57 3398.79 1822.69 3395.31 1824.13C3391.83 1825.57 3388.09 1826.31 3384.33 1826.31Z" fill="#F1E5FF"/>
<path d="M2832.8 1108.67C2860.12 1108.67 2882.27 1086.52 2882.27 1059.2C2882.27 1031.87 2860.12 1009.72 2832.8 1009.72C2805.48 1009.72 2783.33 1031.87 2783.33 1059.2C2783.33 1086.52 2805.48 1108.67 2832.8 1108.67Z" fill="#E7CEFB"/>
<path d="M1439.2 2119.31C1466.53 2119.31 1488.68 2097.16 1488.68 2069.84C1488.68 2042.51 1466.53 2020.36 1439.2 2020.36C1411.88 2020.36 1389.73 2042.51 1389.73 2069.84C1389.73 2097.16 1411.88 2119.31 1439.2 2119.31Z" fill="#E7CEFB"/>
<path d="M562.079 710.431H520.793V669.146C520.793 661.987 517.949 655.121 512.887 650.058C507.825 644.996 500.959 642.152 493.799 642.152C486.64 642.152 479.774 644.996 474.712 650.058C469.649 655.121 466.805 661.987 466.805 669.146V710.431H425.52C418.361 710.431 411.495 713.275 406.432 718.338C401.37 723.4 398.526 730.266 398.526 737.425C398.526 744.585 401.37 751.451 406.432 756.513C411.495 761.575 418.361 764.419 425.52 764.419H466.805V805.705C466.805 812.864 469.649 819.73 474.712 824.792C479.774 829.855 486.64 832.699 493.799 832.699C500.959 832.699 507.825 829.855 512.887 824.792C517.949 819.73 520.793 812.864 520.793 805.705V764.419H562.079C569.238 764.419 576.104 761.575 581.166 756.513C586.229 751.451 589.073 744.585 589.073 737.425C589.073 730.266 586.229 723.4 581.166 718.338C576.104 713.275 569.238 710.431 562.079 710.431Z" fill="#B498D5"/>
<path d="M2011.19 1715.41H1969.91V1674.12C1969.91 1666.96 1967.06 1660.1 1962 1655.03C1956.94 1649.97 1950.07 1647.13 1942.91 1647.13C1935.75 1647.13 1928.89 1649.97 1923.82 1655.03C1918.76 1660.1 1915.92 1666.96 1915.92 1674.12V1715.41H1874.63C1867.47 1715.41 1860.61 1718.25 1855.55 1723.31C1850.48 1728.37 1847.64 1735.24 1847.64 1742.4C1847.64 1749.56 1850.48 1756.43 1855.55 1761.49C1860.61 1766.55 1867.47 1769.39 1874.63 1769.39H1915.92V1810.68C1915.92 1817.84 1918.76 1824.71 1923.82 1829.77C1928.89 1834.83 1935.75 1837.67 1942.91 1837.67C1950.07 1837.67 1956.94 1834.83 1962 1829.77C1967.06 1824.71 1969.91 1817.84 1969.91 1810.68V1769.39H2011.19C2014.74 1769.39 2018.25 1768.7 2021.52 1767.34C2024.8 1765.98 2027.77 1763.99 2030.28 1761.49C2032.79 1758.98 2034.77 1756.01 2036.13 1752.73C2037.49 1749.46 2038.19 1745.95 2038.19 1742.4C2038.19 1735.24 2035.34 1728.37 2030.28 1723.31C2025.22 1718.25 2018.35 1715.41 2011.19 1715.41Z" fill="#D9E9FF"/>
<path d="M2740.85 2570.82H2699.56V2529.54C2699.56 2522.38 2696.72 2515.51 2691.66 2510.45C2686.59 2505.39 2679.73 2502.55 2672.57 2502.55C2665.41 2502.55 2658.54 2505.39 2653.48 2510.45C2648.42 2515.51 2645.57 2522.38 2645.57 2529.54V2570.83H2604.29C2597.13 2570.83 2590.26 2573.67 2585.2 2578.73C2580.14 2583.79 2577.29 2590.66 2577.29 2597.82C2577.29 2604.98 2580.14 2611.84 2585.2 2616.91C2590.26 2621.97 2597.13 2624.81 2604.29 2624.81H2645.57V2666.1C2645.57 2673.26 2648.42 2680.12 2653.48 2685.19C2658.54 2690.25 2665.41 2693.09 2672.57 2693.09C2679.73 2693.09 2686.59 2690.25 2691.66 2685.19C2696.72 2680.12 2699.56 2673.26 2699.56 2666.1V2624.81H2740.85C2748.01 2624.81 2754.87 2621.97 2759.93 2616.91C2765 2611.84 2767.84 2604.98 2767.84 2597.82C2767.84 2594.27 2767.14 2590.76 2765.79 2587.49C2764.43 2584.21 2762.44 2581.24 2759.93 2578.73C2757.43 2576.22 2754.45 2574.24 2751.18 2572.88C2747.9 2571.52 2744.39 2570.82 2740.85 2570.82Z" fill="#B498D5"/>
<path d="M361.443 2149.65L353.007 2141.22L361.443 2132.78C362.905 2131.32 363.727 2129.34 363.727 2127.27C363.727 2125.2 362.905 2123.22 361.443 2121.75C359.98 2120.29 357.996 2119.47 355.927 2119.47C353.859 2119.47 351.875 2120.29 350.412 2121.75L341.977 2130.19L333.541 2121.75C332.079 2120.29 330.095 2119.47 328.026 2119.47C325.957 2119.47 323.973 2120.29 322.511 2121.75C321.048 2123.22 320.226 2125.2 320.226 2127.27C320.226 2129.34 321.048 2131.32 322.511 2132.78L330.946 2141.22L322.511 2149.65C321.048 2151.12 320.226 2153.1 320.226 2155.17C320.226 2157.24 321.048 2159.22 322.511 2160.68C323.973 2162.15 325.957 2162.97 328.026 2162.97C330.095 2162.97 332.079 2162.15 333.541 2160.68L341.977 2152.25L350.412 2160.68C351.875 2162.15 353.859 2162.97 355.927 2162.97C357.996 2162.97 359.98 2162.15 361.443 2160.68C362.905 2159.22 363.727 2157.24 363.727 2155.17C363.727 2153.1 362.905 2151.12 361.443 2149.65Z" fill="#B498D5"/>
<path d="M1491.97 390.003C1491.98 387.652 1491.27 385.354 1489.95 383.413C1488.62 381.471 1486.74 379.977 1484.54 379.126C1465.33 371.864 1447.89 360.597 1433.36 346.075C1418.84 331.552 1407.58 314.106 1400.31 294.895C1399.46 292.703 1397.97 290.82 1396.03 289.494C1394.08 288.168 1391.79 287.461 1389.44 287.467C1387.08 287.461 1384.79 288.168 1382.85 289.494C1380.9 290.82 1379.41 292.703 1378.56 294.895C1371.3 314.106 1360.03 331.552 1345.51 346.075C1330.98 360.598 1313.54 371.864 1294.33 379.126C1292.14 379.976 1290.25 381.471 1288.93 383.413C1287.6 385.354 1286.89 387.652 1286.9 390.003C1286.89 392.355 1287.6 394.652 1288.93 396.594C1290.25 398.536 1292.14 400.03 1294.33 400.881C1313.54 408.143 1330.99 419.409 1345.51 433.932C1360.03 448.454 1371.3 465.9 1378.56 485.112C1379.41 487.304 1380.9 489.187 1382.85 490.513C1384.79 491.839 1387.08 492.546 1389.44 492.54C1391.79 492.546 1394.08 491.839 1396.03 490.513C1397.97 489.187 1399.46 487.304 1400.31 485.112C1407.58 465.901 1418.84 448.454 1433.36 433.932C1447.89 419.409 1465.33 408.143 1484.54 400.881C1486.74 400.03 1488.62 398.536 1489.95 396.594C1491.27 394.652 1491.98 392.355 1491.97 390.003Z" fill="#D9E9FF"/>
<path d="M3530.25 1161.58C3530.25 1159.23 3529.55 1156.93 3528.22 1154.99C3526.89 1153.05 3525.01 1151.55 3522.82 1150.7C3503.61 1143.44 3486.16 1132.17 3471.64 1117.65C3457.12 1103.13 3445.85 1085.68 3438.59 1066.47C3437.74 1064.28 3436.24 1062.4 3434.3 1061.07C3432.36 1059.74 3430.06 1059.04 3427.71 1059.04C3425.36 1059.04 3423.06 1059.74 3421.12 1061.07C3419.18 1062.4 3417.68 1064.28 3416.83 1066.47C3409.57 1085.68 3398.31 1103.13 3383.78 1117.65C3369.26 1132.17 3351.81 1143.44 3332.6 1150.7C3330.41 1151.55 3328.53 1153.05 3327.2 1154.99C3325.88 1156.93 3325.17 1159.23 3325.17 1161.58C3325.17 1163.93 3325.88 1166.23 3327.2 1168.17C3328.53 1170.11 3330.41 1171.61 3332.6 1172.46C3351.81 1179.72 3369.26 1190.99 3383.78 1205.51C3398.31 1220.03 3409.57 1237.48 3416.83 1256.69C3417.68 1258.88 3419.18 1260.76 3421.12 1262.09C3423.06 1263.42 3425.36 1264.12 3427.71 1264.12C3430.06 1264.12 3432.36 1263.42 3434.3 1262.09C3436.24 1260.76 3437.74 1258.88 3438.59 1256.69C3445.85 1237.48 3457.12 1220.03 3471.64 1205.51C3486.16 1190.99 3503.61 1179.72 3522.82 1172.46C3525.01 1171.61 3526.89 1170.11 3528.22 1168.17C3529.55 1166.23 3530.25 1163.93 3530.25 1161.58Z" fill="#D9E9FF"/>
<path d="M3171.01 2178.06C3171.01 2178.06 3152.16 1417.12 3358.38 1245.7" stroke="#634684" stroke-width="16" stroke-linecap="round" stroke-linejoin="round"/>
<path d="M3364.02 1369.46C3466.79 1369.46 3550.1 1285.99 3550.1 1183.02C3550.1 1080.06 3466.79 996.583 3364.02 996.583C3261.25 996.583 3177.94 1080.06 3177.94 1183.02C3177.94 1285.99 3261.25 1369.46 3364.02 1369.46Z" fill="white" stroke="#634684" stroke-width="16" stroke-linecap="round" stroke-linejoin="round"/>
<path d="M3370.81 1091.08C3361.4 1083.68 3347.93 1092.21 3350.56 1103.89C3350.95 1105.63 3350.98 1107.43 3350.63 1109.18C3350.28 1110.92 3349.57 1112.58 3348.55 1114.03C3347.52 1115.49 3346.2 1116.71 3344.68 1117.62C3343.15 1118.54 3341.45 1119.12 3339.68 1119.33C3327.81 1120.76 3324.3 1136.34 3334.4 1142.74C3335.91 1143.69 3337.19 1144.95 3338.18 1146.43C3339.17 1147.91 3339.83 1149.59 3340.14 1151.34C3340.44 1153.1 3340.37 1154.89 3339.93 1156.62C3339.5 1158.35 3338.7 1159.96 3337.61 1161.36C3330.22 1170.79 3338.73 1184.28 3350.39 1181.65C3352.13 1181.26 3353.93 1181.24 3355.67 1181.59C3357.42 1181.94 3359.07 1182.65 3360.52 1183.68C3361.97 1184.7 3363.19 1186.02 3364.1 1187.55C3365.01 1189.08 3365.59 1190.79 3365.8 1192.55C3367.23 1204.45 3382.77 1207.97 3389.16 1197.84C3390.11 1196.33 3391.36 1195.04 3392.84 1194.05C3394.32 1193.07 3395.99 1192.4 3397.74 1192.1C3399.49 1191.79 3401.29 1191.86 3403.01 1192.3C3404.74 1192.74 3406.35 1193.53 3407.75 1194.63C3417.15 1202.03 3430.63 1193.51 3428 1181.82C3427.6 1180.08 3427.58 1178.28 3427.93 1176.54C3428.27 1174.79 3428.98 1173.14 3430.01 1171.68C3431.03 1170.23 3432.35 1169 3433.88 1168.09C3435.41 1167.18 3437.11 1166.59 3438.88 1166.38C3450.75 1164.95 3454.26 1149.38 3444.15 1142.98C3442.65 1142.02 3441.36 1140.76 3440.38 1139.28C3439.39 1137.8 3438.72 1136.13 3438.42 1134.37C3438.12 1132.62 3438.19 1130.82 3438.62 1129.09C3439.06 1127.37 3439.85 1125.75 3440.95 1124.35C3448.34 1114.93 3439.83 1101.43 3428.16 1104.06C3426.43 1104.45 3424.63 1104.47 3422.88 1104.13C3421.14 1103.78 3419.49 1103.07 3418.04 1102.04C3416.58 1101.01 3415.36 1099.69 3414.45 1098.16C3413.54 1096.63 3412.96 1094.93 3412.75 1093.16C3411.33 1081.27 3395.79 1077.75 3389.4 1087.87C3388.45 1089.38 3387.19 1090.67 3385.72 1091.66C3384.24 1092.65 3382.57 1093.32 3380.82 1093.62C3379.06 1093.92 3377.27 1093.85 3375.54 1093.41C3373.82 1092.98 3372.2 1092.18 3370.81 1091.08Z" fill="white" stroke="#634684" stroke-width="16" stroke-linecap="round" stroke-linejoin="round"/>
<path d="M3238.77 1491.23C3253.18 1472.9 3224.25 1426.11 3174.15 1386.72C3124.05 1347.33 3071.75 1330.26 3057.34 1348.59C3042.93 1366.92 3071.86 1413.71 3121.96 1453.1C3172.07 1492.49 3224.36 1509.56 3238.77 1491.23Z" fill="#CBFFE6" stroke="#634684" stroke-width="16" stroke-linecap="round" stroke-linejoin="round"/>
<path d="M3317.99 1673.8C3376.28 1648.09 3415.9 1609.95 3406.49 1588.61C3397.07 1567.26 3342.19 1570.8 3283.91 1596.5C3225.62 1622.21 3186 1660.35 3195.41 1681.69C3204.82 1703.03 3259.7 1699.5 3317.99 1673.8Z" fill="#CBFFE6" stroke="#634684" stroke-width="16" stroke-linecap="round" stroke-linejoin="round"/>
<path d="M2965.03 1978.96H3331.08L3424.04 2411.03C3461.95 2587.21 3327.94 2753.51 3148.06 2753.51C2968.18 2753.51 2834.17 2587.21 2872.07 2411.03L2965.03 1978.96Z" fill="#CBFFE6"/>
<path d="M2965.03 1978.96H3331.08L3424.04 2411.03C3461.95 2587.21 3327.94 2753.51 3148.06 2753.51C2968.18 2753.51 2834.17 2587.21 2872.07 2411.03L2965.03 1978.96Z" stroke="#634684" stroke-width="16" stroke-linecap="round" stroke-linejoin="round"/>
<path d="M3057.32 1915.61C3141.62 1915.61 3209.95 1847.14 3209.95 1762.68C3209.95 1678.22 3141.62 1609.76 3057.32 1609.76C2973.02 1609.76 2904.69 1678.22 2904.69 1762.68C2904.69 1847.14 2973.02 1915.61 3057.32 1915.61Z" fill="#CBFFE6" stroke="#634684" stroke-width="16" stroke-linecap="round" stroke-linejoin="round"/>
<path d="M2997.77 1779.46C3025.77 1779.46 3048.47 1756.71 3048.47 1728.65C3048.47 1700.59 3025.77 1677.85 2997.77 1677.85C2969.76 1677.85 2947.06 1700.59 2947.06 1728.65C2947.06 1756.71 2969.76 1779.46 2997.77 1779.46Z" fill="white" stroke="#634684" stroke-width="16" stroke-linecap="round" stroke-linejoin="round"/>
<path d="M3171.08 2335.85L3222.87 2304.72" stroke="#634684" stroke-width="16" stroke-linecap="round" stroke-linejoin="round"/>
<path d="M3093 1704.94C3097.95 1727.29 3097.3 1750.51 3091.13 1772.55" stroke="#634684" stroke-width="16" stroke-linecap="round" stroke-linejoin="round"/>
<path d="M3158.96 1414.47L3170.54 1431.38" stroke="#634684" stroke-width="16" stroke-linecap="round" stroke-linejoin="round"/>
<path d="M3289.88 1627.1C3291.28 1627.25 3292.71 1627.1 3294.04 1626.65C3295.38 1626.2 3296.61 1625.46 3297.63 1624.48" stroke="#634684" stroke-width="16" stroke-linecap="round" stroke-linejoin="round"/>
<path d="M3483.15 1131.45C3485.39 1137.74 3486.51 1144.37 3486.46 1151.04" stroke="#634684" stroke-width="16" stroke-linecap="round" stroke-linejoin="round"/>
<path d="M1373.64 1213.3H711.551C621.185 1213.3 547.93 1139.9 547.93 1049.36V385.976C547.93 295.435 621.185 222.036 711.551 222.036H1373.64C1464.01 222.036 1537.26 295.435 1537.26 385.976V1049.36C1537.26 1139.9 1464.01 1213.3 1373.64 1213.3Z" fill="#CBFFE6"/>
<path d="M1373.64 1213.3H711.551C621.185 1213.3 547.93 1139.9 547.93 1049.36V385.976C547.93 295.435 621.185 222.036 711.551 222.036H1373.64C1464.01 222.036 1537.26 295.435 1537.26 385.976V1049.36C1537.26 1139.9 1464.01 1213.3 1373.64 1213.3Z" stroke="#634684" stroke-width="16" stroke-linecap="round" stroke-linejoin="round"/>
<path d="M976.776 841.719L825.258 700.556C817.619 693.432 813.117 683.569 812.739 673.131C812.36 662.692 816.138 652.529 823.242 644.871L823.247 644.865C826.76 641.077 830.985 638.02 835.681 635.868C840.377 633.716 845.451 632.512 850.613 632.324C855.775 632.137 860.923 632.969 865.763 634.774C870.603 636.58 875.039 639.322 878.817 642.844L991.987 748.278C993.22 749.427 994.667 750.321 996.246 750.907C997.826 751.494 999.506 751.762 1001.19 751.697C1002.87 751.631 1004.53 751.233 1006.06 750.525C1007.58 749.817 1008.96 748.814 1010.1 747.573L1204.24 536.242C1207.73 532.436 1211.94 529.357 1216.63 527.18C1221.31 525.004 1226.38 523.774 1231.54 523.559C1236.7 523.345 1241.85 524.151 1246.7 525.931C1251.55 527.712 1256 530.431 1259.8 533.935C1267.48 541.019 1272.03 550.859 1272.46 561.295C1272.89 571.731 1269.17 581.913 1262.1 589.607L1032.48 839.548C1028.98 843.367 1024.75 846.453 1020.05 848.631C1015.35 850.808 1010.26 852.033 1005.08 852.235C999.904 852.436 994.736 851.611 989.878 849.806C985.02 848.001 980.567 845.253 976.776 841.719Z" fill="white" stroke="#634684" stroke-width="16" stroke-linecap="round" stroke-linejoin="round"/>
<path d="M1268.54 824.264L1244.36 851.909" stroke="#634684" stroke-width="16" stroke-linecap="round" stroke-linejoin="round"/>
<path d="M1404.01 1071.01L1394.86 1080.18" stroke="#634684" stroke-width="16" stroke-linecap="round" stroke-linejoin="round"/>
<path d="M685.08 1292.02H816.128C842.262 1292.02 867.325 1302.4 885.804 1320.88C904.284 1339.36 914.665 1364.42 914.665 1390.56V1390.65H685.08V1292.02Z" fill="#B498D5" stroke="#634684" stroke-width="16" stroke-linecap="round" stroke-linejoin="round"/>
<path d="M1396.45 1346.27H617.247V1603.43H1396.45V1346.27Z" fill="white" stroke="#634684" stroke-width="16" stroke-linecap="round" stroke-linejoin="round"/>
<path d="M1448.63 1447.72H565.069L593.655 1758.52H1420.04L1448.63 1447.72Z" fill="white"/>
<mask id="mask0_80_3" style="mask-type:luminance" maskUnits="userSpaceOnUse" x="565" y="1447" width="884" height="312">
<path d="M1448.63 1447.72H565.069L593.655 1758.52H1420.04L1448.63 1447.72Z" fill="white"/>
</mask>
<g mask="url(#mask0_80_3)">
<path d="M565.069 1862.13C556.573 1555.89 1225.04 1615.53 1332.79 1605.54C1440.54 1595.55 712.696 1452.34 712.696 1452.34L503.799 1503.62L490.605 1569.11" fill="#CBFFE6"/>
</g>
<path d="M1448.63 1447.72H565.069L593.655 1758.52H1420.04L1448.63 1447.72Z" stroke="#634684" stroke-width="16" stroke-linecap="round" stroke-linejoin="round"/>
<path d="M650.187 2373.13L687.845 2782.56C687.845 2792.43 830.669 2800.44 1006.85 2800.44C1183.03 2800.44 1325.85 2792.43 1325.85 2782.56L1363.51 2373.13H650.187Z" fill="white" stroke="#634684" stroke-width="16" stroke-linecap="round" stroke-linejoin="round"/>
<path d="M593.655 1758.52L650.186 2373.13H1363.51L1420.04 1758.52H593.655Z" fill="white"/>
<path d="M593.655 1758.52L650.186 2373.13H1363.51L1420.04 1758.52H593.655Z" stroke="#634684" stroke-width="16" stroke-linecap="round" stroke-linejoin="round"/>
<path d="M1563.42 1447.72H450.276V1605.54H1563.42V1447.72Z" fill="white" stroke="#634684" stroke-width="16" stroke-linecap="round" stroke-linejoin="round"/>
<path d="M1006.85 2300.44C1136.25 2300.44 1241.16 2195.34 1241.16 2065.68C1241.16 1936.02 1136.25 1830.92 1006.85 1830.92C877.442 1830.92 772.539 1936.02 772.539 2065.68C772.539 2195.34 877.442 2300.44 1006.85 2300.44Z" fill="#B498D5" stroke="#634684" stroke-width="16" stroke-linecap="round" stroke-linejoin="round"/>
<path d="M1083.59 1505.55L1066 1531.99" stroke="#634684" stroke-width="16" stroke-linecap="round" stroke-linejoin="round"/>
<path d="M1224.45 2536.77C1201.13 2561.78 1172.56 2581.33 1140.79 2594" stroke="#634684" stroke-width="16" stroke-linecap="round" stroke-linejoin="round"/>
<path d="M737.27 1889.83L701.329 1933.26" stroke="#634684" stroke-width="16" stroke-linecap="round" stroke-linejoin="round"/>
<path d="M1195.77 2102.02C1192.34 2120.29 1184.01 2137.3 1171.69 2151.22" stroke="#634684" stroke-width="16" stroke-linecap="round" stroke-linejoin="round"/>
<path d="M2879.81 573.622C2895.2 557.677 2912.01 498.595 2936.09 481.121C2960.17 463.646 2961.05 460.929 2961.05 460.929C2961.05 460.929 2976.52 459.244 2951.54 490.21C2951.54 490.21 2976.43 488.37 2983.9 475.618C2991.37 462.866 3013.27 425.844 3013.27 425.844C3013.27 425.844 3019.04 424.035 3019.6 437.368C3019.6 437.368 3027.08 438.3 3023.25 457.353C3019.41 476.406 3008.18 508.137 2995.79 526.152C2991.32 532.633 2953.16 545.939 2948.37 553.449C2943.58 560.96 2930.42 594.715 2930.42 594.715L2879.81 573.622Z" fill="white"/>
<mask id="mask1_80_3" style="mask-type:luminance" maskUnits="userSpaceOnUse" x="2879" y="425" width="146" height="170">
<path d="M2879.81 573.622C2895.2 557.677 2912.01 498.595 2936.09 481.121C2960.17 463.646 2961.05 460.929 2961.05 460.929C2961.05 460.929 2976.52 459.244 2951.54 490.21C2951.54 490.21 2976.43 488.37 2983.9 475.618C2991.37 462.866 3013.27 425.844 3013.27 425.844C3013.27 425.844 3019.04 424.035 3019.6 437.368C3019.6 437.368 3027.08 438.3 3023.25 457.353C3019.41 476.406 3008.18 508.137 2995.79 526.152C2991.32 532.633 2953.16 545.939 2948.37 553.449C2943.58 560.96 2930.42 594.715 2930.42 594.715L2879.81 573.622Z" fill="white"/>
</mask>
<g mask="url(#mask1_80_3)">
<path d="M2970.92 571.436C2967.01 558.506 2896.54 545.083 2896.54 545.083L2897.75 565.624L2921.35 580.085" fill="#CBFFE6"/>
<path d="M3037.56 510.239C2995.79 526.152 2905.33 493.35 2905.33 493.35C2905.33 493.35 2970.09 478.519 2983.9 475.618C2997.71 472.717 3046.61 478.161 3046.61 478.161" fill="#CBFFE6"/>
</g>
<path d="M2879.81 573.622C2895.2 557.677 2912.01 498.595 2936.09 481.121C2960.17 463.646 2961.05 460.929 2961.05 460.929C2961.05 460.929 2976.52 459.244 2951.54 490.21C2951.54 490.21 2976.43 488.37 2983.9 475.618C2991.37 462.866 3013.27 425.844 3013.27 425.844C3013.27 425.844 3019.04 424.035 3019.6 437.368C3019.6 437.368 3027.08 438.3 3023.25 457.353C3019.41 476.406 3008.18 508.137 2995.79 526.152C2991.32 532.633 2953.16 545.939 2948.37 553.449C2943.58 560.96 2930.42 594.715 2930.42 594.715L2879.81 573.622Z" stroke="#634684" stroke-width="16" stroke-linecap="round" stroke-linejoin="round"/>
<path d="M2968.46 1991.4L2951.58 1954.13L2915.1 1929.7L2894.4 1805.07L2808.9 1791.63L2860.09 1991.4H2968.46Z" fill="white"/>
<mask id="mask2_80_3" style="mask-type:luminance" maskUnits="userSpaceOnUse" x="2808" y="1791" width="161" height="201">
<path d="M2968.46 1991.4L2951.58 1954.13L2915.1 1929.7L2894.4 1805.07L2808.9 1791.63L2860.09 1991.4H2968.46Z" fill="white"/>
</mask>
<g mask="url(#mask2_80_3)">
<path d="M2718.5 1969.94C2819.98 1963.14 2927.62 1863.11 2927.62 1863.11L2808.9 1877.39L2799.6 1891.52" fill="#CBFFE6"/>
</g>
<path d="M2968.46 1991.4L2951.58 1954.13L2915.1 1929.7L2894.4 1805.07L2808.9 1791.63L2860.09 1991.4H2968.46Z" stroke="#634684" stroke-width="16" stroke-linecap="round" stroke-linejoin="round"/>
<path d="M2038.87 1583.32L2072.09 1564.38L2093.87 1523.45L2204.97 1500.23L2216.95 1404.32L2038.87 1461.74V1583.32Z" fill="white"/>
<mask id="mask3_80_3" style="mask-type:luminance" maskUnits="userSpaceOnUse" x="2038" y="1404" width="179" height="180">
<path d="M2038.87 1583.32L2072.09 1564.38L2093.87 1523.45L2204.97 1500.23L2216.95 1404.32L2038.87 1461.74V1583.32Z" fill="white"/>
</mask>
<g mask="url(#mask3_80_3)">
<path d="M2167.24 1407.81C2123.77 1489.47 2118.33 1573.86 2118.33 1573.86L2201.2 1548L2179.46 1479.26" fill="#CBFFE6"/>
</g>
<path d="M2038.87 1583.32L2072.09 1564.38L2093.87 1523.45L2204.97 1500.23L2216.95 1404.32L2038.87 1461.74V1583.32Z" stroke="#634684" stroke-width="16" stroke-linecap="round" stroke-linejoin="round"/>
<path d="M2718.5 1918.09C2718.5 1918.09 2849.2 1921.76 2927.62 1863.11L2823.06 1401.26L2685.83 873.435L2509.39 924.752L2682.56 1426.92L2718.5 1918.09Z" fill="#B498D5"/>
<path d="M2718.5 1918.09C2718.5 1918.09 2849.2 1921.76 2927.62 1863.11L2823.06 1401.26L2685.83 873.435L2509.39 924.752L2682.56 1426.92L2718.5 1918.09Z" stroke="#634684" stroke-width="16" stroke-linecap="round" stroke-linejoin="round"/>
<path d="M2666.22 898.63H2483.92L2509.39 1331.62L2156.5 1415.92C2156.5 1415.92 2133.63 1621.19 2195.71 1613.86L2589.86 1475.19C2635.64 1459.08 2666.22 1416.22 2666.22 1368.16V1068.27" fill="#B498D5"/>
<mask id="mask4_80_3" style="mask-type:luminance" maskUnits="userSpaceOnUse" x="2152" y="898" width="515" height="717">
<path d="M2666.22 898.63H2483.92L2509.39 1331.62L2156.5 1415.92C2156.5 1415.92 2133.63 1621.19 2195.71 1613.86L2589.86 1475.19C2635.64 1459.08 2666.22 1416.22 2666.22 1368.16V1068.27" fill="white"/>
</mask>
<g mask="url(#mask4_80_3)">
<path d="M2231.46 1362.92C2182.13 1375.17 2195.71 1613.86 2267.59 1622.89Z" fill="#B498D5"/>
<path d="M2231.46 1362.92C2182.13 1375.17 2195.71 1613.86 2267.59 1622.89" stroke="#634684" stroke-width="16" stroke-linecap="round" stroke-linejoin="round"/>
</g>
<path d="M2666.22 898.63H2483.92L2509.39 1331.62L2156.5 1415.92C2156.5 1415.92 2133.63 1621.19 2195.71 1613.86L2589.86 1475.19C2635.64 1459.08 2666.22 1416.22 2666.22 1368.16V1068.27" stroke="#634684" stroke-width="16" stroke-linecap="round" stroke-linejoin="round"/>
<path d="M2458.71 919.995C2458.71 919.995 2446.93 970.356 2463.86 986.35C2483.04 1004.48 2694.17 931.433 2695.08 887.15C2695.99 842.867 2458.71 919.995 2458.71 919.995Z" fill="white" stroke="#634684" stroke-width="16" stroke-linecap="round" stroke-linejoin="round"/>
<path d="M2890.97 542.728C2890.97 542.728 2936.37 557.82 2981.53 627.282L2847.6 813.399C2838.99 825.381 2826.22 833.72 2811.78 836.784C2797.35 839.848 2782.29 837.417 2769.55 829.966L2636.82 752.304C2636.82 752.304 2676.25 562.637 2690.28 568.332C2704.32 574.028 2806.32 670.459 2806.32 670.459L2890.97 542.728Z" fill="white"/>
<mask id="mask5_80_3" style="mask-type:luminance" maskUnits="userSpaceOnUse" x="2636" y="542" width="346" height="297">
<path d="M2890.97 542.728C2890.97 542.728 2936.37 557.82 2981.53 627.282L2847.6 813.399C2838.99 825.381 2826.22 833.72 2811.78 836.784C2797.35 839.848 2782.29 837.417 2769.55 829.966L2636.82 752.304C2636.82 752.304 2676.25 562.637 2690.28 568.332C2704.32 574.028 2806.32 670.459 2806.32 670.459L2890.97 542.728Z" fill="white"/>
</mask>
<g mask="url(#mask5_80_3)">
<path d="M2698.81 637.904C2756.63 780.731 2669.83 752.866 2739.6 812.439C2809.36 872.012 2750.19 894.918 2740.78 898.961C2731.36 903.003 2571.33 777.692 2576.71 776.345C2582.09 774.997 2670.5 661.185 2670.5 661.185" fill="#CBFFE6"/>
<path d="M2850.47 553.515C2912.05 564.404 2965.49 671.478 2965.49 671.478L3008.05 612.496L2885.79 493.626" fill="white"/>
<path d="M2850.47 553.515C2912.05 564.404 2965.49 671.478 2965.49 671.478L3008.05 612.496L2885.79 493.626" stroke="#634684" stroke-width="16" stroke-linecap="round" stroke-linejoin="round"/>
<path d="M2846.06 565.423L2859.63 592.965C2859.89 593.495 2860.28 593.954 2860.75 594.302C2861.23 594.649 2861.79 594.876 2862.37 594.961L2892.71 599.378C2893.38 599.477 2894.01 599.762 2894.53 600.201C2895.05 600.64 2895.44 601.216 2895.65 601.863C2895.86 602.51 2895.88 603.202 2895.72 603.863C2895.55 604.523 2895.21 605.125 2894.72 605.6L2872.77 627.039C2872.35 627.452 2872.03 627.962 2871.85 628.524C2871.67 629.086 2871.63 629.685 2871.73 630.268L2876.91 660.54C2877.02 661.21 2876.95 661.899 2876.69 662.529C2876.44 663.159 2876.01 663.705 2875.46 664.105C2874.91 664.506 2874.26 664.744 2873.58 664.793C2872.91 664.843 2872.23 664.701 2871.62 664.385L2844.49 650.093C2843.97 649.817 2843.39 649.674 2842.8 649.674C2842.21 649.674 2841.63 649.817 2841.1 650.093L2813.97 664.385C2813.37 664.701 2812.69 664.843 2812.01 664.793C2811.33 664.744 2810.68 664.506 2810.13 664.105C2809.58 663.705 2809.16 663.159 2808.9 662.529C2808.64 661.899 2808.57 661.21 2808.69 660.54L2813.87 630.268C2813.97 629.685 2813.93 629.086 2813.74 628.524C2813.56 627.962 2813.24 627.452 2812.82 627.039L2790.87 605.6C2790.38 605.125 2790.04 604.523 2789.88 603.863C2789.71 603.202 2789.74 602.51 2789.95 601.863C2790.16 601.216 2790.54 600.64 2791.06 600.201C2791.58 599.762 2792.22 599.477 2792.89 599.378L2823.22 594.961C2823.81 594.876 2824.36 594.65 2824.84 594.302C2825.32 593.954 2825.7 593.496 2825.97 592.966L2839.53 565.423C2839.83 564.813 2840.3 564.299 2840.87 563.939C2841.45 563.58 2842.12 563.389 2842.8 563.389C2843.48 563.389 2844.14 563.58 2844.72 563.939C2845.3 564.299 2845.76 564.813 2846.06 565.423Z" fill="#B498D5" stroke="#634684" stroke-width="16" stroke-linecap="round" stroke-linejoin="round"/>
</g>
<path d="M2890.97 542.728C2890.97 542.728 2936.37 557.82 2981.53 627.282L2847.6 813.399C2838.99 825.381 2826.22 833.72 2811.78 836.784C2797.35 839.848 2782.29 837.417 2769.55 829.966L2636.82 752.304C2636.82 752.304 2676.25 562.637 2690.28 568.332C2704.32 574.028 2806.32 670.459 2806.32 670.459L2890.97 542.728Z" stroke="#634684" stroke-width="16" stroke-linecap="round" stroke-linejoin="round"/>
<path d="M2693.9 570.418C2693.9 570.418 2616.05 519.322 2476.46 571.865C2464.26 576.458 2454.93 581.044 2442.49 607.241L2431.03 943.325C2522.74 974.077 2718.5 894.95 2718.5 894.95C2718.5 894.95 2637.86 807.898 2697.78 735.904C2708.58 723.124 2716.52 708.195 2721.1 692.108" fill="white"/>
<mask id="mask6_80_3" style="mask-type:luminance" maskUnits="userSpaceOnUse" x="2431" y="548" width="291" height="403">
<path d="M2693.9 570.418C2693.9 570.418 2616.05 519.322 2476.46 571.865C2464.26 576.458 2454.93 581.044 2442.49 607.241L2431.03 943.325C2522.74 974.077 2718.5 894.95 2718.5 894.95C2718.5 894.95 2637.86 807.898 2697.78 735.904C2708.58 723.124 2716.52 708.195 2721.1 692.108" fill="white"/>
</mask>
<g mask="url(#mask6_80_3)">
<path d="M2471.91 692.208L2525.07 716.788C2431.03 943.325 2468.57 964.723 2616.05 928.804C2763.53 892.884 2492.91 1051.47 2492.91 1051.47L2311.34 971.798L2392.22 767.662L2471.91 692.208Z" fill="#CBFFE6"/>
<path d="M2586.26 878.469L2599.83 906.012C2600.09 906.542 2600.48 907 2600.96 907.348C2601.43 907.696 2601.99 907.922 2602.57 908.007L2632.91 912.424C2633.58 912.523 2634.21 912.808 2634.73 913.247C2635.25 913.686 2635.64 914.262 2635.85 914.909C2636.06 915.556 2636.08 916.248 2635.92 916.909C2635.76 917.569 2635.41 918.171 2634.93 918.646L2612.98 940.085C2612.55 940.498 2612.24 941.008 2612.05 941.57C2611.87 942.133 2611.83 942.731 2611.93 943.314L2617.11 973.586C2617.23 974.256 2617.15 974.945 2616.9 975.575C2616.64 976.205 2616.21 976.751 2615.66 977.151C2615.12 977.552 2614.46 977.79 2613.79 977.839C2613.11 977.889 2612.43 977.748 2611.83 977.431L2584.69 963.139C2584.17 962.864 2583.59 962.72 2583 962.72C2582.41 962.72 2581.83 962.864 2581.31 963.139L2554.17 977.431C2553.57 977.748 2552.89 977.889 2552.21 977.839C2551.54 977.79 2550.88 977.552 2550.33 977.151C2549.79 976.751 2549.36 976.205 2549.1 975.575C2548.85 974.945 2548.77 974.256 2548.89 973.586L2554.07 943.314C2554.17 942.731 2554.13 942.133 2553.95 941.57C2553.76 941.008 2553.45 940.498 2553.02 940.085L2531.07 918.646C2530.59 918.171 2530.24 917.569 2530.08 916.909C2529.92 916.248 2529.94 915.556 2530.15 914.909C2530.36 914.262 2530.75 913.686 2531.27 913.247C2531.79 912.808 2532.42 912.523 2533.09 912.424L2563.43 908.007C2564.01 907.922 2564.57 907.696 2565.04 907.348C2565.52 907 2565.91 906.542 2566.17 906.012L2579.74 878.469C2580.03 877.859 2580.5 877.345 2581.08 876.985C2581.65 876.626 2582.32 876.436 2583 876.436C2583.68 876.436 2584.35 876.626 2584.92 876.985C2585.5 877.345 2585.96 877.859 2586.26 878.469Z" fill="#B498D5" stroke="#634684" stroke-width="16" stroke-linecap="round" stroke-linejoin="round"/>
</g>
<path d="M2693.9 570.418C2693.9 570.418 2616.05 519.322 2476.46 571.865C2464.26 576.458 2454.93 581.044 2442.49 607.241L2431.03 943.325C2522.74 974.077 2718.5 894.95 2718.5 894.95C2718.5 894.95 2637.86 807.898 2697.78 735.904C2708.58 723.124 2716.52 708.195 2721.1 692.108" stroke="#634684" stroke-width="16" stroke-linecap="round" stroke-linejoin="round"/>
<path d="M2319.76 910.866C2319.76 910.866 2304.51 1025.83 2300.64 1036.05C2296.77 1046.27 2294.46 1101.89 2283.42 1122.4C2272.37 1142.91 2248.6 1177.73 2265.69 1176.39C2265.69 1176.39 2252.37 1203.36 2268.28 1204.01C2268.28 1204.01 2261.83 1223.27 2285.39 1215.16C2285.39 1215.16 2355.66 1134.3 2356.51 1100.75C2357.35 1067.2 2356.58 1039.2 2356.58 1039.2L2411.46 885.798L2319.76 910.866Z" fill="white"/>
<mask id="mask7_80_3" style="mask-type:luminance" maskUnits="userSpaceOnUse" x="2259" y="885" width="153" height="333">
<path d="M2319.76 910.866C2319.76 910.866 2304.51 1025.83 2300.64 1036.05C2296.77 1046.27 2294.46 1101.89 2283.42 1122.4C2272.37 1142.91 2248.6 1177.73 2265.69 1176.39C2265.69 1176.39 2252.37 1203.36 2268.28 1204.01C2268.28 1204.01 2261.83 1223.27 2285.39 1215.16C2285.39 1215.16 2355.66 1134.3 2356.51 1100.75C2357.35 1067.2 2356.58 1039.2 2356.58 1039.2L2411.46 885.798L2319.76 910.866Z" fill="white"/>
</mask>
<g mask="url(#mask7_80_3)">
<path d="M2274.33 1041.67C2317.8 1073.88 2365.35 1063.9 2365.35 1063.9L2294.25 1015.81L2247.16 1035.77" fill="#CBFFE6"/>
</g>
<path d="M2319.76 910.866C2319.76 910.866 2304.51 1025.83 2300.64 1036.05C2296.77 1046.27 2294.46 1101.89 2283.42 1122.4C2272.37 1142.91 2248.6 1177.73 2265.69 1176.39C2265.69 1176.39 2252.37 1203.36 2268.28 1204.01C2268.28 1204.01 2261.83 1223.27 2285.39 1215.16C2285.39 1215.16 2355.66 1134.3 2356.51 1100.75C2357.35 1067.2 2356.58 1039.2 2356.58 1039.2L2411.46 885.798L2319.76 910.866Z" stroke="#634684" stroke-width="16" stroke-linecap="round" stroke-linejoin="round"/>
<path d="M2855.74 1972.46V1994.44C2855.76 1998.19 2857.27 2001.78 2859.93 2004.42C2862.6 2007.06 2866.2 2008.53 2869.95 2008.51H3071.93V2002.55C3071.93 1990.69 3063.73 1980.93 3053.17 1980.35C3023.47 1978.73 2967.37 1973.17 2951.58 1954.13C2951.58 1954.13 2963.02 2005.45 2855.74 1972.46Z" fill="#B498D5" stroke="#634684" stroke-width="16" stroke-linecap="round" stroke-linejoin="round"/>
<path d="M2055.75 1456.86L2031.72 1462.53C2029.43 1463.06 2027.38 1464.35 2025.91 1466.19C2024.44 1468.03 2023.63 1470.31 2023.62 1472.67V1699.39H2028.93C2039.51 1699.39 2048.21 1690.19 2048.72 1678.34C2050.16 1645.02 2055.12 1582.08 2072.09 1564.38C2072.09 1564.38 2026.35 1577.21 2055.75 1456.86Z" fill="#B498D5" stroke="#634684" stroke-width="16" stroke-linecap="round" stroke-linejoin="round"/>
<path d="M2453.57 588.79L2333.01 789.594C2324.32 802.832 2317.98 817.475 2314.28 832.873L2267.59 1027.3C2267.59 1027.3 2347.65 1069.86 2373.79 1068.23L2426.07 855.429L2535.59 702.063" fill="white"/>
<mask id="mask8_80_3" style="mask-type:luminance" maskUnits="userSpaceOnUse" x="2267" y="588" width="269" height="481">
<path d="M2453.57 588.79L2333.01 789.594C2324.32 802.832 2317.98 817.475 2314.28 832.873L2267.59 1027.3C2267.59 1027.3 2347.65 1069.86 2373.79 1068.23L2426.07 855.429L2535.59 702.063" fill="white"/>
</mask>
<g mask="url(#mask8_80_3)">
<path d="M2338.84 751.31L2352.41 778.853C2352.67 779.383 2353.06 779.842 2353.53 780.189C2354.01 780.537 2354.57 780.763 2355.15 780.849L2385.49 785.265C2386.16 785.364 2386.79 785.65 2387.31 786.089C2387.83 786.528 2388.22 787.103 2388.43 787.75C2388.64 788.397 2388.66 789.09 2388.5 789.75C2388.34 790.41 2387.99 791.012 2387.51 791.487L2365.55 812.926C2365.13 813.34 2364.82 813.849 2364.63 814.412C2364.45 814.974 2364.41 815.572 2364.51 816.155L2369.69 846.427C2369.81 847.097 2369.73 847.786 2369.48 848.417C2369.22 849.047 2368.79 849.593 2368.24 849.993C2367.69 850.393 2367.04 850.632 2366.37 850.681C2365.69 850.73 2365.01 850.589 2364.41 850.273L2337.27 835.98C2336.75 835.705 2336.17 835.561 2335.58 835.561C2334.99 835.561 2334.41 835.705 2333.88 835.98L2306.75 850.272C2306.15 850.589 2305.47 850.73 2304.79 850.681C2304.11 850.631 2303.46 850.393 2302.91 849.993C2302.36 849.592 2301.94 849.046 2301.68 848.416C2301.43 847.786 2301.35 847.097 2301.47 846.427L2306.65 816.155C2306.75 815.572 2306.71 814.974 2306.53 814.411C2306.34 813.849 2306.03 813.339 2305.6 812.926L2283.65 791.487C2283.17 791.012 2282.82 790.41 2282.66 789.75C2282.5 789.089 2282.52 788.397 2282.73 787.75C2282.94 787.103 2283.33 786.528 2283.85 786.088C2284.37 785.649 2285 785.364 2285.67 785.265L2316.01 780.848C2316.59 780.763 2317.15 780.537 2317.62 780.189C2318.1 779.841 2318.49 779.383 2318.75 778.853L2332.31 751.31C2332.61 750.7 2333.08 750.186 2333.66 749.827C2334.23 749.467 2334.9 749.277 2335.58 749.277C2336.26 749.277 2336.93 749.467 2337.5 749.827C2338.08 750.186 2338.54 750.7 2338.84 751.31Z" fill="#B498D5" stroke="#634684" stroke-width="16" stroke-linecap="round" stroke-linejoin="round"/>
<path d="M2267.59 976.364C2313.65 1021.28 2409.3 1040.58 2409.3 1040.58L2391.12 1081.17L2240.97 1040.58L2264.75 983.17" fill="white"/>
<path d="M2267.59 976.364C2313.65 1021.28 2409.3 1040.58 2409.3 1040.58L2391.12 1081.17L2240.97 1040.58L2264.75 983.17" stroke="#634684" stroke-width="16" stroke-linecap="round" stroke-linejoin="round"/>
</g>
<path d="M2453.57 588.79L2333.01 789.594C2324.32 802.832 2317.98 817.475 2314.28 832.873L2267.59 1027.3C2267.59 1027.3 2347.65 1069.86 2373.79 1068.23L2426.07 855.429L2535.59 702.063" stroke="#634684" stroke-width="16" stroke-linecap="round" stroke-linejoin="round"/>
<path d="M2496.66 484.596C2516.59 463.385 2523.12 437.148 2511.26 425.995C2499.39 414.841 2473.61 422.994 2453.67 444.205C2433.74 465.416 2427.2 491.652 2439.07 502.806C2450.94 513.96 2476.72 505.807 2496.66 484.596Z" fill="#B498D5" stroke="#634684" stroke-width="16" stroke-linecap="round" stroke-linejoin="round"/>
<path d="M2524.62 415.276C2525.6 394.04 2498.72 375.537 2464.57 373.947C2430.42 372.358 2401.94 388.284 2400.95 409.52C2399.96 430.756 2426.84 449.26 2460.99 450.849C2495.14 452.439 2523.63 436.512 2524.62 415.276Z" fill="#B498D5"/>
<mask id="mask9_80_3" style="mask-type:luminance" maskUnits="userSpaceOnUse" x="2400" y="373" width="125" height="78">
<path d="M2524.62 415.276C2525.6 394.04 2498.72 375.537 2464.57 373.947C2430.42 372.358 2401.94 388.284 2400.95 409.52C2399.96 430.756 2426.84 449.26 2460.99 450.849C2495.14 452.439 2523.63 436.512 2524.62 415.276Z" fill="white"/>
</mask>
<g mask="url(#mask9_80_3)">
<path d="M2519.24 447.014C2539.53 443.757 2552.37 418.664 2547.93 390.965C2543.48 363.267 2523.43 343.453 2503.14 346.71C2482.86 349.966 2470.01 375.06 2474.46 402.758C2478.91 430.457 2498.96 450.27 2519.24 447.014Z" fill="white" stroke="#634684" stroke-width="16" stroke-linecap="round" stroke-linejoin="round"/>
</g>
<path d="M2524.62 415.276C2525.6 394.04 2498.72 375.537 2464.57 373.947C2430.42 372.358 2401.94 388.284 2400.95 409.52C2399.96 430.756 2426.84 449.26 2460.99 450.849C2495.14 452.439 2523.63 436.512 2524.62 415.276Z" stroke="#634684" stroke-width="16" stroke-linecap="round" stroke-linejoin="round"/>
<path d="M2530.27 540.073C2554.67 535.296 2570.36 510.492 2565.31 484.672C2560.25 458.852 2536.37 441.794 2511.97 446.571C2487.56 451.348 2471.87 476.152 2476.92 501.972C2481.98 527.792 2505.86 544.851 2530.27 540.073Z" fill="#B498D5" stroke="#634684" stroke-width="16" stroke-linecap="round" stroke-linejoin="round"/>
<path d="M2627.69 541.647L2620.51 443.804L2542.68 460.709V553.218L2555.4 579.138L2623.08 588.79L2634.6 581.414L2656.21 557.598L2627.69 541.647Z" fill="white"/>
<mask id="mask10_80_3" style="mask-type:luminance" maskUnits="userSpaceOnUse" x="2542" y="443" width="115" height="146">
<path d="M2627.69 541.647L2620.51 443.804L2542.68 460.709V553.218L2555.4 579.138L2623.08 588.79L2634.6 581.414L2656.21 557.598L2627.69 541.647Z" fill="white"/>
</mask>
<g mask="url(#mask10_80_3)">
<path d="M2585.35 490.877C2564.59 521.539 2639.47 526.427 2643.82 533.904C2648.18 541.38 2618.62 472.121 2618.62 472.121" fill="#CBFFE6"/>
</g>
<path d="M2627.69 541.647L2620.51 443.804L2542.68 460.709V553.218L2555.4 579.138L2623.08 588.79L2634.6 581.414L2656.21 557.598L2627.69 541.647Z" stroke="#634684" stroke-width="16" stroke-linecap="round" stroke-linejoin="round"/>
<path d="M2624.6 282.353C2591.84 265.146 2550.9 285.314 2530.66 327.452C2497.27 328.113 2460.79 351.021 2517.35 447.259L2535.14 450.714C2539.04 451.233 2543.01 450.888 2546.76 449.703C2548.54 449.118 2550.25 448.346 2551.87 447.4C2553.04 448.131 2554.17 448.913 2555.4 449.559C2589.68 467.56 2632.95 444.724 2652.06 398.552C2671.17 352.38 2658.87 300.356 2624.6 282.353Z" fill="#B498D5" stroke="#634684" stroke-width="16" stroke-linecap="round" stroke-linejoin="round"/>
<path d="M2580.31 494.952C2656.24 535.399 2676.04 419.26 2622.38 351.142C2615.54 352.669 2608.55 353.425 2601.54 353.396C2591.54 353.485 2581.6 351.946 2572.11 348.84C2579.63 375.159 2577.02 428.248 2554.91 445.448C2552.47 447.34 2549.71 448.781 2546.76 449.703C2546.01 461.293 2545.85 468.853 2545.85 468.853" fill="white"/>
<mask id="mask11_80_3" style="mask-type:luminance" maskUnits="userSpaceOnUse" x="2545" y="348" width="108" height="156">
<path d="M2580.31 494.952C2656.24 535.399 2676.04 419.26 2622.38 351.142C2615.54 352.669 2608.55 353.425 2601.54 353.396C2591.54 353.485 2581.6 351.946 2572.11 348.84C2579.63 375.159 2577.02 428.248 2554.91 445.448C2552.47 447.34 2549.71 448.781 2546.76 449.703C2546.01 461.293 2545.85 468.853 2545.85 468.853" fill="white"/>
</mask>
<g mask="url(#mask11_80_3)">
<path d="M2605.46 449.377C2606.6 451.729 2608.52 453.612 2610.9 454.708C2613.27 455.803 2615.95 456.042 2618.48 455.384" stroke="#634684" stroke-width="16" stroke-linecap="round" stroke-linejoin="round"/>
<path d="M2576.64 383.836C2564.65 390.585 2568.72 396.471 2576.49 392.742C2584.26 389.013 2584.47 379.427 2576.64 383.836Z" fill="#B498D5"/>
</g>
<path d="M2580.31 494.952C2656.24 535.399 2676.04 419.26 2622.38 351.142C2615.54 352.669 2608.55 353.425 2601.54 353.396C2591.54 353.485 2581.6 351.946 2572.11 348.84C2579.63 375.159 2577.02 428.248 2554.91 445.448C2552.47 447.34 2549.71 448.781 2546.76 449.703C2546.01 461.293 2545.85 468.853 2545.85 468.853" stroke="#634684" stroke-width="16" stroke-linecap="round" stroke-linejoin="round"/>
<path d="M2554.09 473.608C2502.98 477.495 2491.47 405.894 2554.15 431.807L2555.4 449.559" fill="white"/>
<path d="M2554.09 473.608C2502.98 477.495 2491.47 405.894 2554.15 431.807L2555.4 449.559" stroke="#634684" stroke-width="16" stroke-linecap="round" stroke-linejoin="round"/>
<path d="M2636.13 581.044C2644.44 632.986 2666.09 619.224 2656.21 557.598C2656.21 557.598 2624.99 529.548 2630.23 542.727C2642.74 574.236 2636.13 581.044 2636.13 581.044Z" fill="white" stroke="#634684" stroke-width="16" stroke-linecap="round" stroke-linejoin="round"/>
<path d="M2634.77 646.591C2639.56 646.591 2643.44 642.701 2643.44 637.903C2643.44 633.106 2639.56 629.216 2634.77 629.216C2629.98 629.216 2626.1 633.106 2626.1 637.903C2626.1 642.701 2629.98 646.591 2634.77 646.591Z" fill="#B498D5"/>
<path d="M2636.82 697.859C2641.61 697.859 2645.49 693.97 2645.49 689.172C2645.49 684.374 2641.61 680.485 2636.82 680.485C2632.03 680.485 2628.15 684.374 2628.15 689.172C2628.15 693.97 2632.03 697.859 2636.82 697.859Z" fill="#B498D5"/>
<path d="M2634.6 581.414C2638.83 637.48 2563.61 646.978 2501.8 560.774C2501.8 560.774 2535.92 523.486 2541.53 536.508C2561.57 583.006 2634.6 581.414 2634.6 581.414Z" fill="white" stroke="#634684" stroke-width="16" stroke-linecap="round" stroke-linejoin="round"/>
<path d="M3462.09 120.957H2791.16C2772 120.957 2756.47 136.491 2756.47 155.655V461.493C2756.47 480.657 2772 496.192 2791.16 496.192H3462.09C3481.26 496.192 3496.79 480.657 3496.79 461.493V155.655C3496.79 136.491 3481.26 120.957 3462.09 120.957Z" fill="white"/>
<path d="M3462.09 120.957H2791.16C2772 120.957 2756.47 136.491 2756.47 155.655V461.493C2756.47 480.657 2772 496.192 2791.16 496.192H3462.09C3481.26 496.192 3496.79 480.657 3496.79 461.493V155.655C3496.79 136.491 3481.26 120.957 3462.09 120.957Z" stroke="#634684" stroke-width="16" stroke-linecap="round" stroke-linejoin="round"/>
<path d="M2997.64 172.376H2835.79C2829.57 172.376 2824.54 177.412 2824.54 183.624V183.646C2824.54 189.858 2829.57 194.894 2835.79 194.894H2997.64C3003.85 194.894 3008.89 189.858 3008.89 183.646V183.624C3008.89 177.412 3003.85 172.376 2997.64 172.376Z" fill="white" stroke="#634684" stroke-width="16" stroke-linecap="round" stroke-linejoin="round"/>
<path d="M3096.05 172.376H3036.29C3030.08 172.376 3025.04 177.412 3025.04 183.624V183.646C3025.04 189.858 3030.08 194.894 3036.29 194.894H3096.05C3102.27 194.894 3107.3 189.858 3107.3 183.646V183.624C3107.3 177.412 3102.27 172.376 3096.05 172.376Z" fill="white" stroke="#634684" stroke-width="16" stroke-linecap="round" stroke-linejoin="round"/>
<path d="M2845.43 247.305H2818.85V443.022H2845.43V247.305Z" fill="#B498D5" stroke="#634684" stroke-width="16" stroke-linecap="round" stroke-linejoin="round"/>
<path d="M2872.02 340.68H2845.43V443.023H2872.02V340.68Z" fill="#B498D5" stroke="#634684" stroke-width="16" stroke-linecap="round" stroke-linejoin="round"/>
<path d="M2898.61 307.657H2872.02V443.022H2898.61V307.657Z" fill="white" stroke="#634684" stroke-width="16" stroke-linecap="round" stroke-linejoin="round"/>
<path d="M2925.19 360.209H2898.61V443.022H2925.19V360.209Z" fill="white" stroke="#634684" stroke-width="16" stroke-linecap="round" stroke-linejoin="round"/>
<path d="M3064.94 443.022H3091.53V334.266H3064.94V443.022Z" fill="white" stroke="#634684" stroke-width="16" stroke-linecap="round" stroke-linejoin="round"/>
<path d="M3038.35 443.009H3064.93V262.203H3038.35V443.009Z" fill="white" stroke="#634684" stroke-width="16" stroke-linecap="round" stroke-linejoin="round"/>
<path d="M3011.76 443.022H3038.35V334.61H3011.76V443.022Z" fill="#B498D5" stroke="#634684" stroke-width="16" stroke-linecap="round" stroke-linejoin="round"/>
<path d="M2985.17 443.009H3011.76V296.704H2985.17V443.009Z" fill="#B498D5" stroke="#634684" stroke-width="16" stroke-linecap="round" stroke-linejoin="round"/>
<path d="M3231.27 443.033H3257.86V360.219H3231.27V443.033Z" fill="white" stroke="#634684" stroke-width="16" stroke-linecap="round" stroke-linejoin="round"/>
<path d="M3204.68 443.027H3231.26V365.621H3204.68V443.027Z" fill="white" stroke="#634684" stroke-width="16" stroke-linecap="round" stroke-linejoin="round"/>
<path d="M3178.09 443.022H3204.68V307.657H3178.09V443.022Z" fill="#B498D5" stroke="#634684" stroke-width="16" stroke-linecap="round" stroke-linejoin="round"/>
<path d="M3151.5 443.008H3178.09V294.98H3151.5V443.008Z" fill="#B498D5" stroke="#634684" stroke-width="16" stroke-linecap="round" stroke-linejoin="round"/>
<path d="M3397.59 443.022H3424.18V325.592H3397.59V443.022Z" fill="white" stroke="#634684" stroke-width="16" stroke-linecap="round" stroke-linejoin="round"/>
<path d="M3371.01 443.022H3397.59V340.68H3371.01V443.022Z" fill="white" stroke="#634684" stroke-width="16" stroke-linecap="round" stroke-linejoin="round"/>
<path d="M3344.42 443.022H3371.01V243.619H3344.42V443.022Z" fill="#B498D5" stroke="#634684" stroke-width="16" stroke-linecap="round" stroke-linejoin="round"/>
<path d="M3317.83 443.022H3344.42V360.209H3317.83V443.022Z" fill="#B498D5" stroke="#634684" stroke-width="16" stroke-linecap="round" stroke-linejoin="round"/>
<path d="M3259.67 197.547C3252.94 216.444 3241.18 233.145 3225.66 245.846" stroke="#634684" stroke-width="16" stroke-linecap="round" stroke-linejoin="round"/>
<path d="M2565.39 803.417C2574.32 821.374 2594.56 833.014 2614.54 831.671" stroke="#634684" stroke-width="16" stroke-linecap="round" stroke-linejoin="round"/>
<path d="M2534.34 445.664C2533.76 446.237 2533.35 446.971 2533.18 447.772C2533.01 448.574 2533.08 449.408 2533.38 450.171C2533.68 450.933 2534.2 451.591 2534.87 452.061C2535.54 452.531 2536.34 452.793 2537.16 452.814" stroke="#634684" stroke-width="16" stroke-linecap="round" stroke-linejoin="round"/>
<path d="M2503.73 1330.02C2513.17 1337.69 2524.64 1342.42 2536.74 1343.64" stroke="#634684" stroke-width="16" stroke-linecap="round" stroke-linejoin="round"/>
<path d="M2837.74 1667.41L2776.33 1747.39" stroke="#634684" stroke-width="16" stroke-linecap="round" stroke-linejoin="round"/>
<path d="M1891.74 738.507L1880.62 785.617C1880.62 785.617 1873.37 795.985 1869.84 802.531C1869.84 802.531 1876.55 810.682 1884.56 802.966C1884.56 802.966 1889.51 808.123 1889.15 809.547C1888.78 810.97 1878.59 842.047 1878.59 842.047C1878.59 842.047 1888.63 859.928 1902.76 811.304L1902.53 808.807L1907.75 818.27L1889.2 854.85C1889.2 854.85 1895.69 877.197 1918.03 826.923L1894.73 876.617C1894.73 876.617 1898.84 880.076 1902.05 878.39C1909.4 874.538 1931.46 834.758 1932.5 825.262C1933.55 815.766 1922.55 793.016 1922.55 793.016L1929.71 764.068L1891.74 738.507Z" fill="white"/>
<mask id="mask12_80_3" style="mask-type:luminance" maskUnits="userSpaceOnUse" x="1869" y="738" width="64" height="141">
<path d="M1891.74 738.507L1880.62 785.617C1880.62 785.617 1873.37 795.985 1869.84 802.531C1869.84 802.531 1876.55 810.682 1884.56 802.966C1884.56 802.966 1889.51 808.123 1889.15 809.547C1888.78 810.97 1878.59 842.047 1878.59 842.047C1878.59 842.047 1888.63 859.928 1902.76 811.304L1902.53 808.807L1907.75 818.27L1889.2 854.85C1889.2 854.85 1895.69 877.197 1918.03 826.923L1894.73 876.617C1894.73 876.617 1898.84 880.076 1902.05 878.39C1909.4 874.538 1931.46 834.758 1932.5 825.262C1933.55 815.766 1922.55 793.016 1922.55 793.016L1929.71 764.068L1891.74 738.507Z" fill="white"/>
</mask>
<g mask="url(#mask12_80_3)">
<path d="M1888.26 742.072C1879.26 765.773 1930.65 801.069 1930.65 801.069L1929.71 764.068L1891.74 738.508" fill="#CBFFE6"/>
</g>
<path d="M1891.74 738.507L1880.62 785.617C1880.62 785.617 1873.37 795.985 1869.84 802.531C1869.84 802.531 1876.55 810.682 1884.56 802.966C1884.56 802.966 1889.51 808.123 1889.15 809.547C1888.78 810.97 1878.59 842.047 1878.59 842.047C1878.59 842.047 1888.63 859.928 1902.76 811.304L1902.53 808.807L1907.75 818.27L1889.2 854.85C1889.2 854.85 1895.69 877.197 1918.03 826.923L1894.73 876.617C1894.73 876.617 1898.84 880.076 1902.05 878.39C1909.4 874.538 1931.46 834.758 1932.5 825.262C1933.55 815.766 1922.55 793.016 1922.55 793.016L1929.71 764.068L1891.74 738.507Z" stroke="#634684" stroke-width="16" stroke-linecap="round" stroke-linejoin="round"/>
<path d="M1888.26 742.072C1884.79 756.841 1936.24 797.893 1946.75 791.591L2011.4 634.845L2038.34 440.684C2042.39 411.504 2022.89 385.335 1996.08 383.98C1971.95 382.76 1950.65 402.247 1947.36 428.557L1924.72 609.566L1888.26 742.072Z" fill="#B498D5"/>
<mask id="mask13_80_3" style="mask-type:luminance" maskUnits="userSpaceOnUse" x="1888" y="383" width="151" height="410">
<path d="M1888.26 742.072C1884.79 756.841 1936.24 797.893 1946.75 791.591L2011.4 634.845L2038.34 440.684C2042.39 411.504 2022.89 385.335 1996.08 383.98C1971.95 382.76 1950.65 402.247 1947.36 428.557L1924.72 609.566L1888.26 742.072Z" fill="white"/>
</mask>
<g mask="url(#mask13_80_3)">
<path d="M1879.17 492.351H1789.02C1770.37 492.351 1755.26 507.465 1755.26 526.11V527.851C1755.26 546.495 1770.37 561.609 1789.02 561.609H1879.17C1897.81 561.609 1912.93 546.495 1912.93 527.851V526.11C1912.93 507.465 1897.81 492.351 1879.17 492.351Z" fill="#B498D5" stroke="#634684" stroke-width="16" stroke-linecap="round" stroke-linejoin="round"/>
<path d="M2000.84 611.343H1910.68C1892.04 611.343 1876.92 626.457 1876.92 645.102V646.842C1876.92 665.487 1892.04 680.601 1910.68 680.601H2000.84C2019.48 680.601 2034.59 665.487 2034.59 646.842V645.102C2034.59 626.457 2019.48 611.343 2000.84 611.343Z" fill="#B498D5" stroke="#634684" stroke-width="16" stroke-linecap="round" stroke-linejoin="round"/>
<path d="M2090.72 489.091H2000.57C1981.92 489.091 1966.81 504.206 1966.81 522.85V524.591C1966.81 543.235 1981.92 558.35 2000.57 558.35H2090.72C2109.37 558.35 2124.48 543.235 2124.48 524.591V522.85C2124.48 504.206 2109.37 489.091 2090.72 489.091Z" fill="#B498D5" stroke="#634684" stroke-width="16" stroke-linecap="round" stroke-linejoin="round"/>
</g>
<path d="M1888.26 742.072C1884.79 756.841 1936.24 797.893 1946.75 791.591L2011.4 634.845L2038.34 440.684C2042.39 411.504 2022.89 385.335 1996.08 383.98C1971.95 382.76 1950.65 402.247 1947.36 428.557L1924.72 609.566L1888.26 742.072Z" stroke="#634684" stroke-width="16" stroke-linecap="round" stroke-linejoin="round"/>
<path d="M1893.72 360.738C1872.93 425.615 1882.45 447.296 1900.12 449.437C1900.12 449.437 1959.11 422.594 1961.74 411.039C1966.39 390.503 1939.43 314.832 1939.43 314.832L1892.78 344.531" fill="white"/>
<path d="M1893.72 360.738C1872.93 425.615 1882.45 447.296 1900.12 449.437C1900.12 449.437 1959.11 422.594 1961.74 411.039C1966.39 390.503 1939.43 314.832 1939.43 314.832L1892.78 344.531" stroke="#634684" stroke-width="16" stroke-linecap="round" stroke-linejoin="round"/>
<path d="M2367.53 826.661L2374.21 818.086C2375 817.056 2376.14 816.35 2377.42 816.097C2378.7 815.845 2380.02 816.063 2381.15 816.713L2418.67 838.35L2419.84 858.755L2367.53 826.661Z" fill="#B498D5" stroke="#634684" stroke-width="16" stroke-linecap="round" stroke-linejoin="round"/>
<path d="M2252.76 896.792L2367.53 858.755L2476.06 896.792L2491.68 922.151C2491.68 922.151 2526.81 920.962 2472.94 919.971C2419.06 918.981 2332.4 921.358 2304.29 943.546C2276.18 965.735 2252.76 896.792 2252.76 896.792Z" fill="white"/>
<mask id="mask14_80_3" style="mask-type:luminance" maskUnits="userSpaceOnUse" x="2252" y="858" width="251" height="90">
<path d="M2252.76 896.792L2367.53 858.755L2476.06 896.792L2491.68 922.151C2491.68 922.151 2526.81 920.962 2472.94 919.971C2419.06 918.981 2332.4 921.358 2304.29 943.546C2276.18 965.735 2252.76 896.792 2252.76 896.792Z" fill="white"/>
</mask>
<g mask="url(#mask14_80_3)">
<path d="M2379.76 940.921C2372.85 904.114 2322.17 870.29 2322.17 870.29L2328.76 933.127L2367.53 947.947" fill="#CBFFE6"/>
</g>
<path d="M2252.76 896.792L2367.53 858.755L2476.06 896.792L2491.68 922.151C2491.68 922.151 2526.81 920.962 2472.94 919.971C2419.06 918.981 2332.4 921.358 2304.29 943.546C2276.18 965.735 2252.76 896.792 2252.76 896.792Z" stroke="#634684" stroke-width="16" stroke-linecap="round" stroke-linejoin="round"/>
<path d="M2342.35 866.482C2342.35 866.482 2356.21 820.718 2372.8 823.69L2532.07 918.237C2526.89 942.486 2472.94 919.971 2472.94 919.971C2472.94 919.971 2442.05 882.631 2418.68 890.368C2416.07 891.273 2413.76 892.903 2412.04 895.069C2410.31 897.234 2409.24 899.845 2408.94 902.597L2406.77 921.16L2396.23 921.754C2414.96 870.048 2342.35 866.482 2342.35 866.482Z" fill="#B498D5" stroke="#634684" stroke-width="16" stroke-linecap="round" stroke-linejoin="round"/>
<path d="M2327.19 869.321C2327.19 869.321 2381.52 941.255 2367.53 972.798L2089.67 1015.8C2085.51 1016.22 2081.31 1015.8 2077.32 1014.56C2073.32 1013.32 2069.62 1011.29 2066.42 1008.6C2063.23 1005.9 2060.6 1002.59 2058.71 998.865C2056.82 995.137 2055.69 991.067 2055.4 986.896L2038.17 667.45L2174.03 630.505L2198.56 894.146L2327.19 869.321Z" fill="white" stroke="#634684" stroke-width="16" stroke-linecap="round" stroke-linejoin="round"/>
<path d="M2250.16 1166L2293.78 1345.3L2169.79 1378.52L2142.88 1367.56C2142.88 1367.56 2115.36 1385.98 2159.16 1359.81C2179.56 1347.62 2200.14 1334.4 2223.2 1318.4C2231.56 1312.6 2178.26 1196.32 2178.4 1191.79C2179.4 1159.75 2250.16 1166 2250.16 1166Z" fill="white"/>
<mask id="mask15_80_3" style="mask-type:luminance" maskUnits="userSpaceOnUse" x="2134" y="1165" width="160" height="214">
<path d="M2250.16 1166L2293.78 1345.3L2169.79 1378.52L2142.88 1367.56C2142.88 1367.56 2115.36 1385.98 2159.16 1359.81C2179.56 1347.62 2200.14 1334.4 2223.2 1318.4C2231.56 1312.6 2178.26 1196.32 2178.4 1191.79C2179.4 1159.75 2250.16 1166 2250.16 1166Z" fill="white"/>
</mask>
<g mask="url(#mask15_80_3)">
<path d="M2191.13 1305.42C2269.9 1296.89 2285.89 1265.41 2285.89 1265.41L2187.03 1274.4" fill="#CBFFE6"/>
</g>
<path d="M2250.16 1166L2293.78 1345.3L2169.79 1378.52L2142.88 1367.56C2142.88 1367.56 2115.36 1385.98 2159.16 1359.81C2179.56 1347.62 2200.14 1334.4 2223.2 1318.4C2231.56 1312.6 2178.26 1196.32 2178.4 1191.79C2179.4 1159.75 2250.16 1166 2250.16 1166Z" stroke="#634684" stroke-width="16" stroke-linecap="round" stroke-linejoin="round"/>
<path d="M2296.63 1376.2L2296.13 1385.88C2296.03 1387.08 2295.48 1388.21 2294.6 1389.04C2293.71 1389.86 2292.55 1390.33 2291.34 1390.36L2248.96 1393.09L2236.46 1378.58L2296.63 1376.2Z" fill="#B498D5" stroke="#634684" stroke-width="16" stroke-linecap="round" stroke-linejoin="round"/>
<path d="M2294.27 1334.17C2294.27 1334.17 2309.08 1374.94 2294.08 1381.03L2095.92 1393.85C2081.55 1370.57 2159.16 1359.81 2159.16 1359.81C2159.16 1359.81 2205.11 1372.01 2219.48 1354.62C2221.05 1352.68 2221.99 1350.3 2222.15 1347.8C2222.3 1345.31 2221.68 1342.83 2220.36 1340.71L2211.58 1325.89L2219.71 1320.18C2233.98 1367.79 2294.27 1334.17 2294.27 1334.17Z" fill="#B498D5" stroke="#634684" stroke-width="16" stroke-linecap="round" stroke-linejoin="round"/>
<path d="M2051.25 724.978L2104.21 957.786L2198.1 1276.52C2198.1 1276.52 2290.33 1290 2314.8 1247.86L2220.85 935.339C2220.85 935.339 2199.09 660.146 2171.63 598.08C2140.61 527.94 2038.17 667.45 2038.17 667.45" fill="white"/>
<mask id="mask16_80_3" style="mask-type:luminance" maskUnits="userSpaceOnUse" x="2038" y="578" width="277" height="701">
<path d="M2051.25 724.978L2104.21 957.786L2198.1 1276.52C2198.1 1276.52 2290.33 1290 2314.8 1247.86L2220.85 935.339C2220.85 935.339 2199.09 660.146 2171.63 598.08C2140.61 527.94 2038.17 667.45 2038.17 667.45" fill="white"/>
</mask>
<g mask="url(#mask16_80_3)">
<path d="M1972.99 700.917C2219.96 549.112 2210.46 815.994 2210.46 815.994L2278.55 523.614L2091.74 533.695" fill="#CBFFE6"/>
</g>
<path d="M2051.25 724.978L2104.21 957.786L2198.1 1276.52C2198.1 1276.52 2290.33 1290 2314.8 1247.86L2220.85 935.339C2220.85 935.339 2199.09 660.146 2171.63 598.08C2140.61 527.94 2038.17 667.45 2038.17 667.45" stroke="#634684" stroke-width="16" stroke-linecap="round" stroke-linejoin="round"/>
<path d="M1976.62 607.683C1968.1 592.667 1957.22 575.15 1943.32 554.809C1921.77 523.259 1960.37 390.762 1960.37 390.762C1960.37 390.762 2028.87 358.121 2047.65 405.336C2087.88 506.468 2141.79 551.13 2176.28 570.353C2197.54 582.203 2201.06 611.687 2182.96 627.976C2126.3 678.973 2006.71 688.446 2006.71 688.446C2006.71 688.446 2011.24 668.748 1976.62 607.683Z" fill="#B498D5"/>
<mask id="mask17_80_3" style="mask-type:luminance" maskUnits="userSpaceOnUse" x="1936" y="379" width="259" height="310">
<path d="M1976.62 607.683C1968.1 592.667 1957.22 575.15 1943.32 554.809C1921.77 523.259 1960.37 390.762 1960.37 390.762C1960.37 390.762 2028.87 358.121 2047.65 405.336C2087.88 506.468 2141.79 551.13 2176.28 570.353C2197.54 582.203 2201.06 611.687 2182.96 627.976C2126.3 678.973 2006.71 688.446 2006.71 688.446C2006.71 688.446 2011.24 668.748 1976.62 607.683Z" fill="white"/>
</mask>
<g mask="url(#mask17_80_3)">
<path d="M1902.59 476.265C1943.21 486.657 1963.09 489.689 1965.15 418.24C1967.21 346.791 1933.44 408.188 1933.44 408.188L1929.61 438.592" fill="white"/>
<path d="M1902.59 476.265C1943.21 486.657 1963.09 489.689 1965.15 418.24C1967.21 346.791 1933.44 408.188 1933.44 408.188L1929.61 438.592" stroke="#634684" stroke-width="16" stroke-linecap="round" stroke-linejoin="round"/>
</g>
<path d="M1976.62 607.683C1968.1 592.667 1957.22 575.15 1943.32 554.809C1921.77 523.259 1960.37 390.762 1960.37 390.762C1960.37 390.762 2028.87 358.121 2047.65 405.336C2087.88 506.468 2141.79 551.13 2176.28 570.353C2197.54 582.203 2201.06 611.687 2182.96 627.976C2126.3 678.973 2006.71 688.446 2006.71 688.446C2006.71 688.446 2011.24 668.748 1976.62 607.683Z" stroke="#634684" stroke-width="16" stroke-linecap="round" stroke-linejoin="round"/>
<path d="M1610.75 1288.63L1371.28 1288.19L1340.17 1066.39L1579.64 1066.84L1610.75 1288.63Z" fill="#B498D5" stroke="#634684" stroke-width="16" stroke-linecap="round" stroke-linejoin="round"/>
<path d="M2098.07 768.534H1237.97C1216.33 768.534 1198.79 786.078 1198.79 807.719V1359.4C1198.79 1381.04 1216.33 1398.58 1237.97 1398.58H2098.07C2119.71 1398.58 2137.25 1381.04 2137.25 1359.4V807.719C2137.25 786.078 2119.71 768.534 2098.07 768.534Z" fill="white"/>
<mask id="mask18_80_3" style="mask-type:luminance" maskUnits="userSpaceOnUse" x="1198" y="768" width="940" height="631">
<path d="M2098.07 768.534H1237.97C1216.33 768.534 1198.79 786.078 1198.79 807.719V1359.4C1198.79 1381.04 1216.33 1398.58 1237.97 1398.58H2098.07C2119.71 1398.58 2137.25 1381.04 2137.25 1359.4V807.719C2137.25 786.078 2119.71 768.534 2098.07 768.534Z" fill="white"/>
</mask>
<g mask="url(#mask18_80_3)">
<path d="M1990.06 760.422C1977.21 795.211 2022.2 799.397 2036.91 830.851C2051.62 862.304 2116.1 751.103 2116.1 751.103L1980.93 757.315" fill="#CBFFE6"/>
</g>
<path d="M2098.07 768.534H1237.97C1216.33 768.534 1198.79 786.078 1198.79 807.719V1359.4C1198.79 1381.04 1216.33 1398.58 1237.97 1398.58H2098.07C2119.71 1398.58 2137.25 1381.04 2137.25 1359.4V807.719C2137.25 786.078 2119.71 768.534 2098.07 768.534Z" stroke="#634684" stroke-width="16" stroke-linecap="round" stroke-linejoin="round"/>
<path d="M1612 864.865H1312.61C1298.82 864.865 1287.63 876.046 1287.63 889.838V889.887C1287.63 903.679 1298.82 914.86 1312.61 914.86H1612C1625.79 914.86 1636.97 903.679 1636.97 889.887V889.838C1636.97 876.046 1625.79 864.865 1612 864.865Z" fill="white" stroke="#634684" stroke-width="16" stroke-linecap="round" stroke-linejoin="round"/>
<path d="M1779.12 1064.84H1312.61C1298.82 1064.84 1287.63 1076.02 1287.63 1089.82V1089.86C1287.63 1103.66 1298.82 1114.84 1312.61 1114.84H1779.12C1792.91 1114.84 1804.09 1103.66 1804.09 1089.86V1089.82C1804.09 1076.02 1792.91 1064.84 1779.12 1064.84Z" fill="#B498D5" stroke="#634684" stroke-width="16" stroke-linecap="round" stroke-linejoin="round"/>
<path d="M1807.69 864.865H1727.44C1713.65 864.865 1702.47 876.046 1702.47 889.838V889.887C1702.47 903.679 1713.65 914.86 1727.44 914.86H1807.69C1821.48 914.86 1832.66 903.679 1832.66 889.887V889.838C1832.66 876.046 1821.48 864.865 1807.69 864.865Z" fill="#B498D5" stroke="#634684" stroke-width="16" stroke-linecap="round" stroke-linejoin="round"/>
<path d="M1528.55 964.854H1312.61C1298.82 964.854 1287.63 976.035 1287.63 989.827V989.875C1287.63 1003.67 1298.82 1014.85 1312.61 1014.85H1528.55C1542.34 1014.85 1553.52 1003.67 1553.52 989.875V989.827C1553.52 976.035 1542.34 964.854 1528.55 964.854Z" fill="white" stroke="#634684" stroke-width="16" stroke-linecap="round" stroke-linejoin="round"/>
<path d="M1677.5 964.854H1628.35C1614.56 964.854 1603.38 976.035 1603.38 989.827V989.875C1603.38 1003.67 1614.56 1014.85 1628.35 1014.85H1677.5C1691.29 1014.85 1702.47 1003.67 1702.47 989.875V989.827C1702.47 976.035 1691.29 964.854 1677.5 964.854Z" fill="white" stroke="#634684" stroke-width="16" stroke-linecap="round" stroke-linejoin="round"/>
<path d="M2015.1 864.865H1934.86C1921.07 864.865 1909.88 876.046 1909.88 889.838V889.887C1909.88 903.679 1921.07 914.86 1934.86 914.86H2015.1C2028.89 914.86 2040.07 903.679 2040.07 889.887V889.838C2040.07 876.046 2028.89 864.865 2015.1 864.865Z" fill="white" stroke="#634684" stroke-width="16" stroke-linecap="round" stroke-linejoin="round"/>
<path d="M1984.58 1195.38H1343.13C1312.48 1195.38 1287.63 1220.23 1287.63 1250.88V1250.99C1287.63 1281.64 1312.48 1306.48 1343.13 1306.48H1984.58C2015.23 1306.48 2040.07 1281.64 2040.07 1250.99V1250.88C2040.07 1220.23 2015.23 1195.38 1984.58 1195.38Z" fill="#B498D5" stroke="#634684" stroke-width="16" stroke-linecap="round" stroke-linejoin="round"/>
<path d="M1907.41 375.375C1931.86 392.805 1953.56 434.537 1953.56 434.537L1992.64 382.13L1938.23 333.656L1907.41 375.375Z" fill="white"/>
<mask id="mask19_80_3" style="mask-type:luminance" maskUnits="userSpaceOnUse" x="1907" y="333" width="86" height="102">
<path d="M1907.41 375.375C1931.86 392.805 1953.56 434.537 1953.56 434.537L1992.64 382.13L1938.23 333.656L1907.41 375.375Z" fill="white"/>
</mask>
<g mask="url(#mask19_80_3)">
<path d="M1941.54 419.598C1920.48 370.547 1936.2 356.766 1936.2 356.766C1936.2 356.766 1907.54 342.591 1906.85 345.268C1906.16 347.945 1893.09 373.754 1893.09 373.754L1896.5 389.675" fill="#CBFFE6"/>
</g>
<path d="M1907.41 375.375C1931.86 392.805 1953.56 434.537 1953.56 434.537L1992.64 382.13L1938.23 333.656L1907.41 375.375Z" stroke="#634684" stroke-width="16" stroke-linecap="round" stroke-linejoin="round"/>
<path d="M1907.4 364.141C1813.87 365.394 1797.08 298.639 1861.88 295.459Z" fill="white"/>
<path d="M1907.4 364.141C1813.87 365.394 1797.08 298.639 1861.88 295.459" stroke="#634684" stroke-width="16" stroke-linecap="round" stroke-linejoin="round"/>
<path d="M1950.48 361.427C1985.11 310.501 1928.24 302.281 1928.24 302.281C1928.24 302.281 1871.96 288.922 1861.25 311.811C1847.47 341.255 1884.55 425.912 1932.29 386.662" fill="white"/>
<path d="M1950.48 361.427C1985.11 310.501 1928.24 302.281 1928.24 302.281C1928.24 302.281 1871.96 288.922 1861.25 311.811C1847.47 341.255 1884.55 425.912 1932.29 386.662" stroke="#634684" stroke-width="16" stroke-linecap="round" stroke-linejoin="round"/>
<path d="M2021.16 386.193L2122.91 330.943C2128.39 307.598 2083.92 282.76 2034.69 294.487C1990.94 304.909 2002.69 270.917 1964.68 278.332C1926.74 285.735 1917.08 197.327 1848.86 300.116C1860.02 359.71 1934.58 312.184 1935.85 375.584C1936.56 411.247 1941.75 433.451 1958.37 432.944C1958.37 432.944 1991.14 418.418 2021.16 386.193Z" fill="white" stroke="#634684" stroke-width="16" stroke-linecap="round" stroke-linejoin="round"/>
<path d="M1995.03 712.609L1995.9 756.007C1995.9 756.007 1991.74 766.736 1990.06 773.253C1990.06 773.253 1998.04 778.645 2003.51 770.018C2003.51 770.018 2009.2 773.257 2009.2 774.576C2009.2 775.895 2007.19 805.222 2007.19 805.222C2007.19 805.222 2020.44 818.2 2021.95 772.756L2021.16 770.657L2028.09 777.549L2019.78 813.677C2019.78 813.677 2030.86 831.379 2039.42 782.5L2029.85 831.115C2029.85 831.115 2034.38 833.094 2036.91 830.85C2042.67 825.724 2053.42 785.972 2052.16 777.518C2050.91 769.063 2035.65 752.116 2035.65 752.116L2035.41 725.37L1995.03 712.609Z" fill="white"/>
<mask id="mask20_80_3" style="mask-type:luminance" maskUnits="userSpaceOnUse" x="1990" y="712" width="63" height="120">
<path d="M1995.03 712.609L1995.9 756.007C1995.9 756.007 1991.74 766.736 1990.06 773.253C1990.06 773.253 1998.04 778.645 2003.51 770.018C2003.51 770.018 2009.2 773.257 2009.2 774.576C2009.2 775.895 2007.19 805.222 2007.19 805.222C2007.19 805.222 2020.44 818.2 2021.95 772.756L2021.16 770.657L2028.09 777.549L2019.78 813.677C2019.78 813.677 2030.86 831.379 2039.42 782.5L2029.85 831.115C2029.85 831.115 2034.38 833.094 2036.91 830.85C2042.67 825.724 2053.42 785.972 2052.16 777.518C2050.91 769.063 2035.65 752.116 2035.65 752.116L2035.41 725.37L1995.03 712.609Z" fill="white"/>
</mask>
<g mask="url(#mask20_80_3)">
<path d="M1992.71 716.539C1990.06 739.207 2044.86 757.085 2044.86 757.085L2035.4 725.37L1995.03 712.61" fill="#CBFFE6"/>
</g>
<path d="M1995.03 712.609L1995.9 756.007C1995.9 756.007 1991.74 766.736 1990.06 773.253C1990.06 773.253 1998.04 778.645 2003.51 770.018C2003.51 770.018 2009.2 773.257 2009.2 774.576C2009.2 775.895 2007.19 805.222 2007.19 805.222C2007.19 805.222 2020.44 818.2 2021.95 772.756L2021.16 770.657L2028.09 777.549L2019.78 813.677C2019.78 813.677 2030.86 831.379 2039.42 782.5L2029.85 831.115C2029.85 831.115 2034.38 833.094 2036.91 830.85C2042.67 825.724 2053.42 785.972 2052.16 777.518C2050.91 769.063 2035.65 752.116 2035.65 752.116L2035.41 725.37L1995.03 712.609Z" stroke="#634684" stroke-width="16" stroke-linecap="round" stroke-linejoin="round"/>
<path d="M1992.71 716.539C1993 730.14 2049.19 752.973 2057.25 744.957L2079.43 593.781L2058.72 419.547C2055.61 393.362 2031.84 375.549 2007.22 380.95C1985.06 385.811 1970.28 407.855 1973.41 431.376L1994.96 593.203L1992.71 716.539Z" fill="#B498D5"/>
<mask id="mask21_80_3" style="mask-type:luminance" maskUnits="userSpaceOnUse" x="1972" y="379" width="108" height="368">
<path d="M1992.71 716.539C1993 730.14 2049.19 752.973 2057.25 744.957L2079.43 593.781L2058.72 419.547C2055.61 393.362 2031.84 375.549 2007.22 380.95C1985.06 385.811 1970.28 407.855 1973.41 431.376L1994.96 593.203L1992.71 716.539Z" fill="white"/>
</mask>
<g mask="url(#mask21_80_3)">
<path d="M2084.23 586.996H1998.04C1980.95 586.996 1967.1 600.846 1967.1 617.932V617.992C1967.1 635.078 1980.95 648.929 1998.04 648.929H2084.23C2101.32 648.929 2115.17 635.078 2115.17 617.992V617.932C2115.17 600.846 2101.32 586.996 2084.23 586.996Z" fill="#B498D5" stroke="#634684" stroke-width="16" stroke-linecap="round" stroke-linejoin="round"/>
</g>
<path d="M1992.71 716.539C1993 730.14 2049.19 752.973 2057.25 744.957L2079.43 593.781L2058.72 419.547C2055.61 393.362 2031.84 375.549 2007.22 380.95C1985.06 385.811 1970.28 407.855 1973.41 431.376L1994.96 593.203L1992.71 716.539Z" stroke="#634684" stroke-width="16" stroke-linecap="round" stroke-linejoin="round"/>
<g opacity="0.27">
<path d="M1905.67 367.02C1913.19 367.02 1919.29 360.91 1919.29 353.373C1919.29 345.836 1913.19 339.726 1905.67 339.726C1898.15 339.726 1892.05 345.836 1892.05 353.373C1892.05 360.91 1898.15 367.02 1905.67 367.02Z" fill="#CBFFE6"/>
</g>
<path d="M2216.64 1351.3C2217.27 1350.88 2217.79 1350.32 2218.16 1349.66C2218.53 1349 2218.74 1348.27 2218.77 1347.51C2219 1345.72 2219.72 1344.02 2220.85 1342.6C2221.97 1341.18 2223.46 1340.09 2225.15 1339.45C2225.91 1339.3 2226.6 1338.94 2227.16 1338.42C2227.73 1337.9 2228.14 1337.24 2228.35 1336.5C2228.56 1335.77 2228.56 1334.99 2228.35 1334.25C2228.15 1333.51 2227.74 1332.84 2227.18 1332.32C2226.08 1330.88 2225.39 1329.17 2225.18 1327.37C2224.98 1325.57 2225.26 1323.75 2226 1322.09C2226.43 1321.46 2226.67 1320.71 2226.71 1319.95C2226.74 1319.18 2226.56 1318.42 2226.19 1317.75C2225.82 1317.09 2225.27 1316.53 2224.6 1316.15C2223.93 1315.78 2223.18 1315.59 2222.41 1315.62C2220.61 1315.38 2218.92 1314.66 2217.5 1313.53C2216.08 1312.4 2215 1310.91 2214.36 1309.22C2214.21 1308.47 2213.86 1307.77 2213.34 1307.2C2212.82 1306.64 2212.16 1306.23 2211.43 1306.02C2210.69 1305.81 2209.91 1305.81 2209.17 1306.01C2208.43 1306.22 2207.77 1306.62 2207.25 1307.19C2205.81 1308.29 2204.1 1308.98 2202.31 1309.19C2200.51 1309.4 2198.69 1309.11 2197.04 1308.37C2196.4 1307.94 2195.66 1307.7 2194.9 1307.66C2194.13 1307.63 2193.37 1307.81 2192.7 1308.19C2192.03 1308.56 2191.48 1309.11 2191.11 1309.78C2190.73 1310.44 2190.55 1311.2 2190.57 1311.97C2190.34 1313.76 2189.62 1315.46 2188.49 1316.88C2187.37 1318.3 2185.88 1319.39 2184.19 1320.04C2183.44 1320.18 2182.74 1320.54 2182.18 1321.06C2181.62 1321.58 2181.21 1322.24 2181 1322.98C2180.79 1323.71 2180.78 1324.49 2180.99 1325.23C2181.19 1325.97 2181.6 1326.64 2182.16 1327.16C2183.26 1328.6 2183.95 1330.31 2184.16 1332.11C2184.37 1333.91 2184.08 1335.74 2183.34 1337.39C2182.91 1338.02 2182.67 1338.77 2182.64 1339.53C2182.6 1340.3 2182.78 1341.06 2183.15 1341.73C2183.53 1342.4 2184.08 1342.95 2184.74 1343.33C2185.41 1343.7 2186.17 1343.89 2186.93 1343.86C2188.73 1344.1 2190.43 1344.82 2191.84 1345.95C2193.26 1347.08 2194.35 1348.57 2194.99 1350.26C2195.13 1351.02 2195.48 1351.71 2196 1352.28C2196.52 1352.84 2197.18 1353.25 2197.92 1353.46C2198.65 1353.67 2199.43 1353.67 2200.17 1353.47C2200.91 1353.26 2201.57 1352.86 2202.09 1352.3C2203.53 1351.19 2205.24 1350.5 2207.04 1350.29C2208.83 1350.09 2210.66 1350.37 2212.3 1351.11C2212.96 1351.49 2213.7 1351.7 2214.45 1351.73C2215.2 1351.76 2215.95 1351.61 2216.64 1351.3Z" fill="#B498D5" stroke="#634684" stroke-width="16" stroke-linecap="round" stroke-linejoin="round"/>
<path d="M2204.67 1337.67C2209.04 1337.67 2212.58 1334.12 2212.58 1329.74C2212.58 1325.36 2209.04 1321.81 2204.67 1321.81C2200.3 1321.81 2196.76 1325.36 2196.76 1329.74C2196.76 1334.12 2200.3 1337.67 2204.67 1337.67Z" fill="white" stroke="#634684" stroke-width="16" stroke-linecap="round" stroke-linejoin="round"/>
<path d="M1858.58 1000.37C1856.96 1012.72 1858.46 1025.29 1862.92 1036.93C1867.38 1048.56 1874.67 1058.9 1884.13 1067.02" stroke="#634684" stroke-width="16" stroke-linecap="round" stroke-linejoin="round"/>
<path d="M1993.55 334.339C1990.63 341.703 1986.69 348.618 1981.84 354.879" stroke="#634684" stroke-width="16" stroke-linecap="round" stroke-linejoin="round"/>
<path d="M2227.36 1084.03L2208.42 1102.24" stroke="#634684" stroke-width="16" stroke-linecap="round" stroke-linejoin="round"/>
<path d="M2839.43 2226.4H2349.83C2337.51 2226.4 2327.52 2236.38 2327.52 2248.7V2562.74C2327.52 2575.06 2337.51 2585.04 2349.83 2585.04H2839.43C2851.75 2585.04 2861.73 2575.06 2861.73 2562.74V2248.7C2861.73 2236.38 2851.75 2226.4 2839.43 2226.4Z" fill="white" stroke="#634684" stroke-width="16" stroke-linecap="round" stroke-linejoin="round"/>
<path d="M1091.2 2419.86C1091.19 2442.5 1100.19 2464.22 1116.19 2480.23C1132.2 2496.24 1153.92 2505.24 1176.56 2505.25H2651.44C2674.08 2505.24 2695.8 2496.24 2711.81 2480.23C2727.81 2464.22 2736.81 2442.5 2736.8 2419.86V1553.37H1091.2V2419.86Z" fill="#CBFFE6" stroke="#634684" stroke-width="16" stroke-linecap="round" stroke-linejoin="round"/>
<path d="M2651.44 1395.2H1176.56C1153.92 1395.2 1132.2 1404.2 1116.19 1420.22C1100.19 1436.23 1091.19 1457.95 1091.2 1480.59V1553.37H2736.8V1480.59C2736.81 1457.95 2727.81 1436.23 2711.81 1420.22C2695.8 1404.2 2674.08 1395.2 2651.44 1395.2Z" fill="white" stroke="#634684" stroke-width="16" stroke-linecap="round" stroke-linejoin="round"/>
<path d="M2388.51 1946.03H1898.91C1886.59 1946.03 1876.61 1956.02 1876.61 1968.34V2282.37C1876.61 2294.69 1886.59 2304.68 1898.91 2304.68H2388.51C2400.83 2304.68 2410.82 2294.69 2410.82 2282.37V1968.34C2410.82 1956.02 2400.83 1946.03 2388.51 1946.03Z" fill="white" stroke="#634684" stroke-width="16" stroke-linecap="round" stroke-linejoin="round"/>
<path d="M2111.82 2000.87H1941.4C1933.55 2000.87 1927.18 2007.23 1927.18 2015.08V2015.11C1927.18 2022.96 1933.55 2029.33 1941.4 2029.33H2111.82C2119.67 2029.33 2126.04 2022.96 2126.04 2015.11V2015.08C2126.04 2007.23 2119.67 2000.87 2111.82 2000.87Z" fill="white" stroke="#634684" stroke-width="16" stroke-linecap="round" stroke-linejoin="round"/>
<path d="M2206.96 2114.7H1941.4C1933.55 2114.7 1927.18 2121.07 1927.18 2128.92V2128.95C1927.18 2136.8 1933.55 2143.16 1941.4 2143.16H2206.96C2214.81 2143.16 2221.17 2136.8 2221.17 2128.95V2128.92C2221.17 2121.07 2214.81 2114.7 2206.96 2114.7Z" fill="white" stroke="#634684" stroke-width="16" stroke-linecap="round" stroke-linejoin="round"/>
<path d="M2223.22 2000.87H2177.54C2169.69 2000.87 2163.32 2007.23 2163.32 2015.08V2015.11C2163.32 2022.96 2169.69 2029.33 2177.54 2029.33H2223.22C2231.07 2029.33 2237.43 2022.96 2237.43 2015.11V2015.08C2237.43 2007.23 2231.07 2000.87 2223.22 2000.87Z" fill="white" stroke="#634684" stroke-width="16" stroke-linecap="round" stroke-linejoin="round"/>
<path d="M2064.32 2057.79H1941.4C1933.55 2057.79 1927.18 2064.15 1927.18 2072V2072.03C1927.18 2079.88 1933.55 2086.24 1941.4 2086.24H2064.32C2072.17 2086.24 2078.54 2079.88 2078.54 2072.03V2072C2078.54 2064.15 2072.17 2057.79 2064.32 2057.79Z" fill="white" stroke="#634684" stroke-width="16" stroke-linecap="round" stroke-linejoin="round"/>
<path d="M2149.11 2057.79H2121.13C2113.28 2057.79 2106.92 2064.15 2106.92 2072V2072.03C2106.92 2079.88 2113.28 2086.24 2121.13 2086.24H2149.11C2156.96 2086.24 2163.32 2079.88 2163.32 2072.03V2072C2163.32 2064.15 2156.96 2057.79 2149.11 2057.79Z" fill="white" stroke="#634684" stroke-width="16" stroke-linecap="round" stroke-linejoin="round"/>
<path d="M2341.29 2000.87H2295.61C2287.76 2000.87 2281.39 2007.23 2281.39 2015.08V2015.11C2281.39 2022.96 2287.76 2029.33 2295.61 2029.33H2341.29C2349.14 2029.33 2355.5 2022.96 2355.5 2015.11V2015.08C2355.5 2007.23 2349.14 2000.87 2341.29 2000.87Z" fill="white" stroke="#634684" stroke-width="16" stroke-linecap="round" stroke-linejoin="round"/>
<path d="M2323.91 2189.01H1958.77C1941.33 2189.01 1927.18 2203.16 1927.18 2220.6V2220.66C1927.18 2238.11 1941.33 2252.25 1958.77 2252.25H2323.91C2341.36 2252.25 2355.5 2238.11 2355.5 2220.66V2220.6C2355.5 2203.16 2341.36 2189.01 2323.91 2189.01Z" fill="white" stroke="#634684" stroke-width="16" stroke-linecap="round" stroke-linejoin="round"/>
<path d="M1774.71 1944.87H1211.72C1198.55 1944.87 1187.87 1955.54 1187.87 1968.71V2279.66C1187.87 2292.84 1198.55 2303.51 1211.72 2303.51H1774.71C1787.88 2303.51 1798.56 2292.84 1798.56 2279.66V1968.71C1798.56 1955.54 1787.88 1944.87 1774.71 1944.87Z" fill="white" stroke="#634684" stroke-width="16" stroke-linecap="round" stroke-linejoin="round"/>
<path d="M1663.49 2053.04H1569.11C1561.26 2053.04 1554.9 2059.41 1554.9 2067.26V2067.29C1554.9 2075.14 1561.26 2081.5 1569.11 2081.5H1663.49C1671.34 2081.5 1677.71 2075.14 1677.71 2067.29V2067.26C1677.71 2059.41 1671.34 2053.04 1663.49 2053.04Z" fill="white" stroke="#634684" stroke-width="16" stroke-linecap="round" stroke-linejoin="round"/>
<path d="M1722.25 2166.88H1569.11C1561.26 2166.88 1554.9 2173.24 1554.9 2181.09V2181.12C1554.9 2188.97 1561.26 2195.34 1569.11 2195.34H1722.25C1730.1 2195.34 1736.46 2188.97 1736.46 2181.12V2181.09C1736.46 2173.24 1730.1 2166.88 1722.25 2166.88Z" fill="white" stroke="#634684" stroke-width="16" stroke-linecap="round" stroke-linejoin="round"/>
<path d="M1634.16 2109.96H1569.11C1561.26 2109.96 1554.9 2116.32 1554.9 2124.18V2124.2C1554.9 2132.05 1561.26 2138.42 1569.11 2138.42H1634.16C1642.01 2138.42 1648.37 2132.05 1648.37 2124.2V2124.18C1648.37 2116.32 1642.01 2109.96 1634.16 2109.96Z" fill="white" stroke="#634684" stroke-width="16" stroke-linecap="round" stroke-linejoin="round"/>
<path d="M1458.73 2032.66C1446.35 2019.61 1431.44 2009.21 1414.91 2002.12C1398.38 1995.02 1380.57 1991.37 1362.58 1991.38V2025.16C1388.83 2025.18 1414.01 2035.62 1432.57 2054.19C1451.13 2072.76 1461.56 2097.94 1461.57 2124.19H1495.34C1495.38 2090.1 1482.26 2057.32 1458.73 2032.66Z" fill="white" stroke="#634684" stroke-width="16" stroke-linecap="round" stroke-linejoin="round"/>
<path d="M1461.57 2124.19C1461.59 2143.98 1455.67 2163.32 1444.58 2179.72C1433.48 2196.11 1417.73 2208.8 1399.35 2216.15C1380.98 2223.49 1360.82 2225.16 1341.48 2220.94C1322.15 2216.71 1304.52 2206.78 1290.89 2192.44C1277.53 2178.41 1268.58 2160.76 1265.15 2141.7C1261.72 2122.63 1263.96 2102.97 1271.59 2085.17C1279.22 2067.36 1291.91 2052.18 1308.08 2041.52C1324.26 2030.85 1343.2 2025.16 1362.58 2025.16V1991.38C1336.31 1991.37 1310.63 1999.16 1288.78 2013.74C1266.94 2028.33 1249.91 2049.07 1239.85 2073.34C1229.79 2097.6 1227.15 2124.31 1232.27 2150.07C1237.39 2175.84 1250.04 2199.5 1268.61 2218.08C1287.18 2236.66 1310.84 2249.31 1336.61 2254.44C1362.37 2259.57 1389.08 2256.94 1413.35 2246.89C1437.62 2236.84 1458.36 2219.82 1472.95 2197.98C1487.55 2176.14 1495.34 2150.46 1495.34 2124.19H1461.57Z" fill="white" stroke="#634684" stroke-width="16" stroke-linecap="round" stroke-linejoin="round"/>
<path d="M2155.09 1613.92H1232.29C1207.76 1613.92 1187.87 1633.8 1187.87 1658.33V1806.28C1187.87 1830.81 1207.76 1850.7 1232.29 1850.7H2155.09C2179.62 1850.7 2199.51 1830.81 2199.51 1806.28V1658.33C2199.51 1633.8 2179.62 1613.92 2155.09 1613.92Z" fill="white" stroke="#634684" stroke-width="16" stroke-linecap="round" stroke-linejoin="round"/>
<path d="M1347.62 1798.02C1383.89 1798.02 1413.3 1768.6 1413.3 1732.31C1413.3 1696.02 1383.89 1666.6 1347.62 1666.6C1311.34 1666.6 1281.93 1696.02 1281.93 1732.31C1281.93 1768.6 1311.34 1798.02 1347.62 1798.02Z" fill="white" stroke="#634684" stroke-width="16" stroke-linecap="round" stroke-linejoin="round"/>
<path d="M1932.43 1748.24H1484.48C1475.92 1748.24 1468.98 1755.18 1468.98 1763.74V1763.77C1468.98 1772.33 1475.92 1779.26 1484.48 1779.26H1932.43C1940.99 1779.26 1947.93 1772.33 1947.93 1763.77V1763.74C1947.93 1755.18 1940.99 1748.24 1932.43 1748.24Z" fill="white" stroke="#634684" stroke-width="16" stroke-linecap="round" stroke-linejoin="round"/>
<path d="M1623.98 1685.35H1489.28C1478.07 1685.35 1468.98 1694.44 1468.98 1705.65V1705.69C1468.98 1716.9 1478.07 1725.99 1489.28 1725.99H1623.98C1635.19 1725.99 1644.28 1716.9 1644.28 1705.69V1705.65C1644.28 1694.44 1635.19 1685.35 1623.98 1685.35Z" fill="white" stroke="#634684" stroke-width="16" stroke-linecap="round" stroke-linejoin="round"/>
<path d="M1157.2 1500.14C1166.28 1500.14 1173.63 1492.78 1173.63 1483.71C1173.63 1474.63 1166.28 1467.28 1157.2 1467.28C1148.13 1467.28 1140.78 1474.63 1140.78 1483.71C1140.78 1492.78 1148.13 1500.14 1157.2 1500.14Z" fill="white" stroke="#634684" stroke-width="16" stroke-linecap="round" stroke-linejoin="round"/>
<path d="M1222.28 1500.14C1231.35 1500.14 1238.7 1492.78 1238.7 1483.71C1238.7 1474.63 1231.35 1467.28 1222.28 1467.28C1213.21 1467.28 1205.85 1474.63 1205.85 1483.71C1205.85 1492.78 1213.21 1500.14 1222.28 1500.14Z" fill="white" stroke="#634684" stroke-width="16" stroke-linecap="round" stroke-linejoin="round"/>
<path d="M1287.35 1500.14C1296.42 1500.14 1303.78 1492.78 1303.78 1483.71C1303.78 1474.63 1296.42 1467.28 1287.35 1467.28C1278.28 1467.28 1270.93 1474.63 1270.93 1483.71C1270.93 1492.78 1278.28 1500.14 1287.35 1500.14Z" fill="white" stroke="#634684" stroke-width="16" stroke-linecap="round" stroke-linejoin="round"/>
<path d="M2858.03 1542.25H2393.73C2382.05 1542.25 2372.58 1551.72 2372.58 1563.4V1861.21C2372.58 1872.89 2382.05 1882.36 2393.73 1882.36H2858.03C2869.71 1882.36 2879.18 1872.89 2879.18 1861.21V1563.4C2879.18 1551.72 2869.71 1542.25 2858.03 1542.25Z" fill="#B498D5" stroke="#634684" stroke-width="16" stroke-linecap="round" stroke-linejoin="round"/>
<path d="M2621.26 1717.22C2635.81 1716.55 2650.25 1720 2662.93 1727.18L2720.98 1618.92C2688.77 1601.27 2652.32 1592.86 2615.63 1594.6C2525.83 1598.72 2452.55 1661.31 2430.82 1743.91L2549.51 1775.19C2553.74 1759.14 2562.98 1744.87 2575.88 1734.44C2588.79 1724.02 2604.68 1717.98 2621.26 1717.22Z" fill="white" stroke="#634684" stroke-width="16" stroke-linecap="round" stroke-linejoin="round"/>
<path d="M2700.89 1778.72L2820.93 1752.97C2814.89 1724.75 2802.83 1698.17 2785.58 1675.04C2768.33 1651.91 2746.3 1632.76 2720.98 1618.92L2662.93 1727.18C2672.55 1732.59 2680.91 1739.98 2687.45 1748.87C2694 1757.75 2698.58 1767.93 2700.89 1778.72Z" fill="#CBFFE6" stroke="#634684" stroke-width="16" stroke-linecap="round" stroke-linejoin="round"/>
<path d="M2620.25 1619.09L2594.65 1786.78C2594.58 1787.22 2594.68 1787.66 2594.92 1788.03L2620.52 1828.96C2620.83 1829.35 2621.23 1829.67 2621.68 1829.89C2622.12 1830.11 2622.62 1830.22 2623.12 1830.22C2623.62 1830.22 2624.11 1830.11 2624.56 1829.89C2625.01 1829.67 2625.4 1829.35 2625.71 1828.96L2651.32 1788.03C2651.55 1787.66 2651.65 1787.22 2651.59 1786.78L2625.98 1619.09C2625.58 1616.45 2620.65 1616.45 2620.25 1619.09Z" fill="white" stroke="#634684" stroke-width="16" stroke-linecap="round" stroke-linejoin="round"/>
<path d="M947.637 2240.36V2618.47C947.637 2628.16 955.496 2636.02 965.19 2636.02H1217.21C1226.9 2636.02 1234.76 2628.16 1234.76 2618.47V2240.36C1234.76 2230.66 1226.9 2222.8 1217.21 2222.8H965.19C955.496 2222.8 947.637 2230.66 947.637 2240.36Z" fill="white" stroke="#634684" stroke-width="16" stroke-linecap="round" stroke-linejoin="round"/>
<path d="M1091.2 2410.36C1124.75 2410.36 1151.96 2383.1 1151.96 2349.48C1151.96 2315.86 1124.75 2288.6 1091.2 2288.6C1057.64 2288.6 1030.44 2315.86 1030.44 2349.48C1030.44 2383.1 1057.64 2410.36 1091.2 2410.36Z" fill="white" stroke="#634684" stroke-width="16" stroke-linecap="round" stroke-linejoin="round"/>
<path d="M1169.91 2439.97H1012.48C1003.52 2439.97 996.256 2447.23 996.256 2456.19V2456.22C996.256 2465.18 1003.52 2472.45 1012.48 2472.45H1169.91C1178.88 2472.45 1186.14 2465.18 1186.14 2456.22V2456.19C1186.14 2447.23 1178.88 2439.97 1169.91 2439.97Z" fill="white" stroke="#634684" stroke-width="16" stroke-linecap="round" stroke-linejoin="round"/>
<path d="M1123.57 2491.59H1058.82C1049.86 2491.59 1042.6 2498.85 1042.6 2507.81V2507.85C1042.6 2516.81 1049.86 2524.07 1058.82 2524.07H1123.57C1132.54 2524.07 1139.8 2516.81 1139.8 2507.85V2507.81C1139.8 2498.85 1132.54 2491.59 1123.57 2491.59Z" fill="white" stroke="#634684" stroke-width="16" stroke-linecap="round" stroke-linejoin="round"/>
<path d="M2636.16 2298.92L2622.97 2316.55" stroke="#634684" stroke-width="16" stroke-linecap="round" stroke-linejoin="round"/>
<path d="M1853.35 1660L1826.96 1677.62" stroke="#634684" stroke-width="16" stroke-linecap="round" stroke-linejoin="round"/>
<path d="M2610.96 1286.98C2343.49 1181.07 2282.62 1824.58 2550.9 1768.41L2707.06 1768.86C3222.33 1837.82 2764.05 1240.12 2610.96 1286.98Z" fill="#B498D5" stroke="#634684" stroke-width="16" stroke-linecap="round" stroke-linejoin="round"/>
<path d="M2478.21 2869.91L2665.43 2762.3C2665.97 2761.99 2666.4 2761.52 2666.66 2760.95C2666.92 2760.39 2667 2759.75 2666.88 2759.14C2666.76 2758.53 2666.46 2757.97 2666.01 2757.54C2665.56 2757.11 2664.99 2756.83 2664.38 2756.74L2387.15 2716.63L2393.41 2832.54L2369.64 2861.37L2473.32 2870.98C2475.02 2871.14 2476.73 2870.76 2478.21 2869.91Z" fill="white" stroke="#634684" stroke-width="16" stroke-linecap="round" stroke-linejoin="round"/>
<path d="M2472.66 2862.44L2659.88 2754.82C2660.42 2754.51 2660.84 2754.04 2661.1 2753.48C2661.36 2752.91 2661.44 2752.28 2661.32 2751.67C2661.21 2751.06 2660.9 2750.5 2660.45 2750.07C2660.01 2749.64 2659.43 2749.36 2658.82 2749.27L2381.6 2709.16L2387.85 2825.07L2364.09 2853.89L2467.77 2863.5C2469.47 2863.66 2471.17 2863.29 2472.66 2862.44Z" fill="white" stroke="#634684" stroke-width="16" stroke-linecap="round" stroke-linejoin="round"/>
<path d="M2116.58 2695.33L2193.32 2685.71L2968.22 2671.99L2993.86 1828.16C2993.86 1828.16 2712.28 1725.4 2399.21 1862.41L2242.24 2529.42L2251.68 2739.74" fill="#B498D5"/>
<mask id="mask22_80_3" style="mask-type:luminance" maskUnits="userSpaceOnUse" x="2116" y="1791" width="878" height="949">
<path d="M2116.58 2695.33L2193.32 2685.71L2968.22 2671.99L2993.86 1828.16C2993.86 1828.16 2712.28 1725.4 2399.21 1862.41L2242.24 2529.42L2251.68 2739.74" fill="white"/>
</mask>
<g mask="url(#mask22_80_3)">
<path d="M2743.74 1934.1C2857.82 1859.73 2916.98 1748.31 2875.86 1685.24C2834.75 1622.17 2708.93 1631.33 2594.85 1705.71C2480.76 1780.08 2421.61 1891.5 2462.72 1954.57C2503.84 2017.64 2629.65 2008.47 2743.74 1934.1Z" fill="white" stroke="#634684" stroke-width="16" stroke-linecap="round" stroke-linejoin="round"/>
<path d="M2725.75 1894.79C2831.48 1840.57 2891.92 1747.33 2860.74 1686.53C2829.56 1625.72 2718.57 1620.39 2612.84 1674.61C2507.11 1728.83 2446.67 1822.07 2477.85 1882.87C2509.03 1943.67 2620.02 1949.01 2725.75 1894.79Z" fill="white" stroke="#634684" stroke-width="16" stroke-linecap="round" stroke-linejoin="round"/>
<path d="M2612.35 2050.34C2512.12 2050.34 2425.39 2129.61 2418.66 2227.36C2411.93 2325.12 2487.74 2404.38 2587.97 2404.38C2688.21 2404.38 2774.94 2325.12 2781.67 2227.36C2788.4 2129.61 2712.59 2050.34 2612.35 2050.34ZM2590.59 2366.45C2511.83 2366.45 2452.27 2304.18 2457.56 2227.36C2462.85 2150.55 2530.98 2088.27 2609.74 2088.27C2688.5 2088.27 2748.06 2150.55 2742.77 2227.36C2737.48 2304.18 2669.35 2366.45 2590.59 2366.45Z" fill="#B498D5"/>
<path d="M2542.09 2188.24C2552.83 2188.24 2562.12 2179.75 2562.84 2169.28C2563.56 2158.8 2555.44 2150.31 2544.7 2150.31C2533.96 2150.31 2524.67 2158.8 2523.95 2169.28C2523.22 2179.75 2531.35 2188.24 2542.09 2188.24Z" fill="#B498D5"/>
<path d="M2666.24 2150.31C2655.5 2150.31 2646.21 2158.8 2645.49 2169.28C2644.77 2179.75 2652.89 2188.24 2663.63 2188.24C2674.37 2188.24 2683.66 2179.75 2684.38 2169.28C2685.1 2158.8 2676.98 2150.31 2666.24 2150.31Z" fill="#B498D5"/>
<path d="M2665.26 2211.6C2656.35 2211.6 2648.64 2218.61 2647.98 2227.28H2647.98L2647.97 2227.36C2646.2 2253.12 2623.37 2273.99 2596.95 2273.99C2571.08 2273.99 2551.41 2253.98 2552.28 2228.95C2552.38 2228.4 2552.45 2227.84 2552.48 2227.28C2553.08 2218.55 2546.32 2211.48 2537.37 2211.48C2528.42 2211.48 2520.67 2218.55 2520.07 2227.28H2519.95L2519.95 2227.36C2516.97 2270.59 2550.45 2305.6 2594.78 2305.6C2639.07 2305.6 2677.36 2270.63 2680.38 2227.44L2680.38 2227.4L2680.38 2227.39L2680.38 2227.36L2680.39 2227.28H2680.39C2680.92 2218.61 2674.17 2211.6 2665.26 2211.6Z" fill="#B498D5"/>
</g>
<path d="M2116.58 2695.33L2193.32 2685.71L2968.22 2671.99L2993.86 1828.16C2993.86 1828.16 2712.28 1725.4 2399.21 1862.41L2242.24 2529.42L2251.68 2739.74" stroke="#634684" stroke-width="16" stroke-linecap="round" stroke-linejoin="round"/>
<path d="M2433.11 1848.44L2399.21 1862.41C2357.64 1877.1 2319.81 1900.77 2288.42 1931.74C2257.03 1962.7 2232.84 2000.21 2217.58 2041.58L2017.74 2582.86L2266.43 2615.95L2361.06 2078.94" fill="#B498D5"/>
<path d="M2433.11 1848.44L2399.21 1862.41C2357.64 1877.1 2319.81 1900.77 2288.42 1931.74C2257.03 1962.7 2232.84 2000.21 2217.58 2041.58L2017.74 2582.86L2266.43 2615.95L2361.06 2078.94" stroke="#634684" stroke-width="16" stroke-linecap="round" stroke-linejoin="round"/>
<path d="M2734.14 1807.67L2707.49 1560.36L2548.5 1660.89L2555.22 1819.9" fill="white"/>
<mask id="mask23_80_3" style="mask-type:luminance" maskUnits="userSpaceOnUse" x="2548" y="1560" width="187" height="260">
<path d="M2734.14 1807.67L2707.49 1560.36L2548.5 1660.89L2555.22 1819.9" fill="white"/>
</mask>
<g mask="url(#mask23_80_3)">
<path d="M2696.26 1631.91C2591.31 1763.25 2649.26 1804.01 2520.42 1828.16C2391.57 1852.3 2580.73 1665.3 2580.73 1665.3L2684.04 1637.19" fill="#CBFFE6"/>
</g>
<path d="M2734.14 1807.67L2707.49 1560.36L2548.5 1660.89L2555.22 1819.9" stroke="#634684" stroke-width="16" stroke-linecap="round" stroke-linejoin="round"/>
<path d="M2716.67 1631.2L2701.26 1512.25C2630.61 1529.2 2491.09 1546.2 2466.15 1424.94C2466.14 1424.95 2466.13 1424.96 2466.12 1424.97C2465.89 1425.49 2451.76 1458.03 2436.39 1483.87C2418.03 1577.68 2442.63 1780.45 2550.9 1768.41C2586.84 1764.41 2619.62 1743.26 2646.37 1718.71" fill="white"/>
<mask id="mask24_80_3" style="mask-type:luminance" maskUnits="userSpaceOnUse" x="2430" y="1424" width="287" height="345">
<path d="M2716.67 1631.2L2701.26 1512.25C2630.61 1529.2 2491.09 1546.2 2466.15 1424.94C2466.14 1424.95 2466.13 1424.96 2466.12 1424.97C2465.89 1425.49 2451.76 1458.03 2436.39 1483.87C2418.03 1577.68 2442.63 1780.45 2550.9 1768.41C2586.84 1764.41 2619.62 1743.26 2646.37 1718.71" fill="white"/>
</mask>
<g mask="url(#mask24_80_3)">
<path d="M2560.29 1662.17C2560.42 1667.18 2558.8 1672.08 2555.72 1676.03C2552.64 1679.98 2548.28 1682.74 2543.39 1683.84" stroke="#634684" stroke-width="16" stroke-linecap="round" stroke-linejoin="round"/>
</g>
<path d="M2716.67 1631.2L2701.26 1512.25C2630.61 1529.2 2491.09 1546.2 2466.15 1424.94C2466.14 1424.95 2466.13 1424.96 2466.12 1424.97C2465.89 1425.49 2451.76 1458.03 2436.39 1483.87C2418.03 1577.68 2442.63 1780.45 2550.9 1768.41C2586.84 1764.41 2619.62 1743.26 2646.37 1718.71" stroke="#634684" stroke-width="16" stroke-linecap="round" stroke-linejoin="round"/>
<path d="M2669.29 1534.5C2786.07 1433.79 2789.41 1598.79 2709.42 1637.19Z" fill="white"/>
<path d="M2669.29 1534.5C2786.07 1433.79 2789.41 1598.79 2709.42 1637.19" stroke="#634684" stroke-width="16" stroke-linecap="round" stroke-linejoin="round"/>
<path d="M2948 2487.71L2435.27 2668C2435.27 2668 2330.93 2636.27 2317.97 2642.76C2305.02 2649.25 2089.85 2822.3 2089.85 2822.3H2262.56L2353.23 2778.37L2275.51 2846.09C2275.51 2846.09 2264.36 2885.35 2344.6 2846.09C2344.6 2846.09 2446.07 2795 2467.66 2778.37L2895.64 2728.89C2989.92 2721.63 3149.01 2626.71 3101.67 2544.7C3086.73 2518.76 3063.19 2498.87 3035.12 2488.46C3007.06 2478.06 2976.24 2477.79 2948 2487.71Z" fill="white"/>
<mask id="mask25_80_3" style="mask-type:luminance" maskUnits="userSpaceOnUse" x="2089" y="2480" width="1022" height="384">
<path d="M2948 2487.71L2435.27 2668C2435.27 2668 2330.93 2636.27 2317.97 2642.76C2305.02 2649.25 2089.85 2822.3 2089.85 2822.3H2262.56L2353.23 2778.37L2275.51 2846.09C2275.51 2846.09 2264.36 2885.35 2344.6 2846.09C2344.6 2846.09 2446.07 2795 2467.66 2778.37L2895.64 2728.89C2989.92 2721.63 3149.01 2626.71 3101.67 2544.7C3086.73 2518.76 3063.19 2498.87 3035.12 2488.46C3007.06 2478.06 2976.24 2477.79 2948 2487.71Z" fill="white"/>
</mask>
<g mask="url(#mask25_80_3)">
<path d="M2710.02 2757.92C2952.65 2737.79 2760.64 2558.45 2760.64 2558.45L2803.58 2536.45L2926.98 2682.84L2917.11 2737.79L2905.26 2748.64" fill="#CBFFE6"/>
</g>
<path d="M2948 2487.71L2435.27 2668C2435.27 2668 2330.93 2636.27 2317.97 2642.76C2305.02 2649.25 2089.85 2822.3 2089.85 2822.3H2262.56L2353.23 2778.37L2275.51 2846.09C2275.51 2846.09 2264.36 2885.35 2344.6 2846.09C2344.6 2846.09 2446.07 2795 2467.66 2778.37L2895.64 2728.89C2989.92 2721.63 3149.01 2626.71 3101.67 2544.7C3086.73 2518.76 3063.19 2498.87 3035.12 2488.46C3007.06 2478.06 2976.24 2477.79 2948 2487.71Z" stroke="#634684" stroke-width="16" stroke-linecap="round" stroke-linejoin="round"/>
<path d="M2475.68 2847.65L2391.06 2314.06C2390 2307.31 2386.67 2301.13 2381.62 2296.53C2376.57 2291.93 2370.1 2289.19 2363.28 2288.76L1499.78 2234.91C1496.82 2234.72 1493.9 2235.61 1491.56 2237.41L1479.19 2244.61L1482.94 2252.63L1487.32 2251.28L1618.12 2782.38C1620.29 2791.21 1625.2 2799.13 1632.16 2805C1639.12 2810.86 1647.75 2814.37 1656.83 2815.02L2446.26 2870.61L2440.03 2873.59L2449.23 2877.84L2464.54 2869.14L2464.59 2869.01C2468.48 2867.09 2471.65 2863.99 2473.64 2860.15C2475.64 2856.3 2476.35 2851.92 2475.68 2847.65Z" fill="white" stroke="#634684" stroke-width="16" stroke-linecap="round" stroke-linejoin="round"/>
<path d="M1473.79 2258.01L1604.85 2790.2C1607.02 2799.04 1611.94 2806.96 1618.89 2812.82C1625.85 2818.69 1634.49 2822.19 1643.56 2822.84L2440.9 2878.99C2443.96 2879.2 2447.02 2878.72 2449.87 2877.58C2452.71 2876.45 2455.26 2874.68 2457.33 2872.42C2459.4 2870.16 2460.93 2867.46 2461.81 2864.53C2462.69 2861.59 2462.89 2858.49 2462.41 2855.47L2377.8 2321.88C2376.73 2315.14 2373.4 2308.95 2368.35 2304.36C2363.3 2299.76 2356.83 2297.02 2350.02 2296.59L1486.51 2242.74C1484.58 2242.62 1482.64 2242.96 1480.87 2243.72C1479.09 2244.49 1477.52 2245.67 1476.28 2247.15C1475.04 2248.64 1474.17 2250.4 1473.74 2252.28C1473.3 2254.17 1473.32 2256.13 1473.79 2258.01Z" fill="white"/>
<mask id="mask26_80_3" style="mask-type:luminance" maskUnits="userSpaceOnUse" x="1473" y="2242" width="990" height="638">
<path d="M1473.79 2258.01L1604.85 2790.2C1607.02 2799.04 1611.94 2806.96 1618.89 2812.82C1625.85 2818.69 1634.49 2822.19 1643.56 2822.84L2440.9 2878.99C2443.96 2879.2 2447.02 2878.72 2449.87 2877.58C2452.71 2876.45 2455.26 2874.68 2457.33 2872.42C2459.4 2870.16 2460.93 2867.46 2461.81 2864.53C2462.69 2861.59 2462.89 2858.49 2462.41 2855.47L2377.8 2321.88C2376.73 2315.14 2373.4 2308.95 2368.35 2304.36C2363.3 2299.76 2356.83 2297.02 2350.02 2296.59L1486.51 2242.74C1484.58 2242.62 1482.64 2242.96 1480.87 2243.72C1479.09 2244.49 1477.52 2245.67 1476.28 2247.15C1475.04 2248.64 1474.17 2250.4 1473.74 2252.28C1473.3 2254.17 1473.32 2256.13 1473.79 2258.01Z" fill="white"/>
</mask>
<g mask="url(#mask26_80_3)">
<path d="M1486.51 2242.74C1684.49 2967.72 2512.73 2879.04 2512.73 2879.04L1400.18 3003.33L1317.26 2453.39L1423.88 2242.71" fill="#CBFFE6"/>
<path d="M1944.52 2453.76L2127.26 2693.92L1846.22 2671.36L1944.52 2453.76Z" fill="white" stroke="#634684" stroke-width="16" stroke-linecap="round" stroke-linejoin="round"/>
<path d="M2237.07 2544.85C2266.13 2506.3 2248.75 2444.2 2198.26 2406.13C2147.77 2368.06 2083.27 2368.45 2054.21 2407C2025.15 2445.54 2042.53 2507.65 2093.02 2545.72C2143.52 2583.79 2208.01 2583.4 2237.07 2544.85Z" fill="#B498D5" stroke="#634684" stroke-width="16" stroke-linecap="round" stroke-linejoin="round"/>
<path d="M1705.51 2512.9H1853.92L1814.93 2370.21H1666.52L1705.51 2512.9Z" fill="#B498D5" stroke="#634684" stroke-width="16" stroke-linecap="round" stroke-linejoin="round"/>
</g>
<path d="M1473.79 2258.01L1604.85 2790.2C1607.02 2799.04 1611.94 2806.96 1618.89 2812.82C1625.85 2818.69 1634.49 2822.19 1643.56 2822.84L2440.9 2878.99C2443.96 2879.2 2447.02 2878.72 2449.87 2877.58C2452.71 2876.45 2455.26 2874.68 2457.33 2872.42C2459.4 2870.16 2460.93 2867.46 2461.81 2864.53C2462.69 2861.59 2462.89 2858.49 2462.41 2855.47L2377.8 2321.88C2376.73 2315.14 2373.4 2308.95 2368.35 2304.36C2363.3 2299.76 2356.83 2297.02 2350.02 2296.59L1486.51 2242.74C1484.58 2242.62 1482.64 2242.96 1480.87 2243.72C1479.09 2244.49 1477.52 2245.67 1476.28 2247.15C1475.04 2248.64 1474.17 2250.4 1473.74 2252.28C1473.3 2254.17 1473.32 2256.13 1473.79 2258.01Z" stroke="#634684" stroke-width="16" stroke-linecap="round" stroke-linejoin="round"/>
<path d="M2959.2 2143.68L2924.05 2463.68C2923.1 2472.41 2919.76 2480.69 2914.4 2487.64C2909.04 2494.59 2901.87 2499.92 2893.68 2503.06L2772.14 2549.55C2772.14 2549.55 2890.05 2623.62 2895.64 2728.89L3069.06 2709.16C3144.99 2709.16 3144.99 2615.46 3144.99 2574.82V2025.49C3145.02 1980.55 3130.23 1936.86 3102.9 1901.18C3075.58 1865.51 3037.25 1839.84 2993.86 1828.16L2980 1823.66" fill="#B498D5"/>
<mask id="mask27_80_3" style="mask-type:luminance" maskUnits="userSpaceOnUse" x="2772" y="1823" width="373" height="906">
<path d="M2959.2 2143.68L2924.05 2463.68C2923.1 2472.41 2919.76 2480.69 2914.4 2487.64C2909.04 2494.59 2901.87 2499.92 2893.68 2503.06L2772.14 2549.55C2772.14 2549.55 2890.05 2623.62 2895.64 2728.89L3069.06 2709.16C3144.99 2709.16 3144.99 2615.46 3144.99 2574.82V2025.49C3145.02 1980.55 3130.23 1936.86 3102.9 1901.18C3075.58 1865.51 3037.25 1839.84 2993.86 1828.16L2980 1823.66" fill="white"/>
</mask>
<g mask="url(#mask27_80_3)">
<path d="M3153.91 2805.51C3203.8 2805.51 3244.24 2759.67 3244.24 2703.13C3244.24 2646.6 3203.8 2600.76 3153.91 2600.76C3104.02 2600.76 3063.58 2646.6 3063.58 2703.13C3063.58 2759.67 3104.02 2805.51 3153.91 2805.51Z" fill="#B498D5"/>
</g>
<path d="M2959.2 2143.68L2924.05 2463.68C2923.1 2472.41 2919.76 2480.69 2914.4 2487.64C2909.04 2494.59 2901.87 2499.92 2893.68 2503.06L2772.14 2549.55C2772.14 2549.55 2890.05 2623.62 2895.64 2728.89L3069.06 2709.16C3144.99 2709.16 3144.99 2615.46 3144.99 2574.82V2025.49C3145.02 1980.55 3130.23 1936.86 3102.9 1901.18C3075.58 1865.51 3037.25 1839.84 2993.86 1828.16L2980 1823.66" stroke="#634684" stroke-width="16" stroke-linecap="round" stroke-linejoin="round"/>
<path d="M2760.1 2544.87C2760.1 2544.87 2881.05 2614.62 2859.33 2739.74L2958.57 2725.5C2958.57 2725.5 2916.96 2522.62 2827.22 2523.11L2760.1 2544.87Z" fill="white" stroke="#634684" stroke-width="16" stroke-linecap="round" stroke-linejoin="round"/>
<path d="M2706.21 1553.31C2707.09 1557.27 2706.75 1561.41 2705.25 1565.18" stroke="#634684" stroke-width="16" stroke-linecap="round" stroke-linejoin="round"/>
<path d="M2569.66 1361.46C2567.51 1392.25 2593.59 1422.2 2624.32 1424.24" stroke="#634684" stroke-width="16" stroke-linecap="round" stroke-linejoin="round"/>
<path d="M2817.79 1701.74L2838.51 1698.75" stroke="#634684" stroke-width="16" stroke-linecap="round" stroke-linejoin="round"/>
<path d="M2916.5 2488.57C2924.73 2488.81 2932.81 2490.74 2940.26 2494.24C2947.71 2497.73 2954.36 2502.72 2959.8 2508.89" stroke="#634684" stroke-width="16" stroke-linecap="round" stroke-linejoin="round"/>
<path d="M2865.54 2105.77L2853.81 2113.86" stroke="#634684" stroke-width="16" stroke-linecap="round" stroke-linejoin="round"/>
<path d="M2198.57 2760C2221.08 2771.18 2246.37 2775.5 2271.32 2772.45" stroke="#634684" stroke-width="16" stroke-linecap="round" stroke-linejoin="round"/>
<path d="M2556.37 2449.19C2582.57 2467.08 2614.32 2474.98 2645.85 2471.47" stroke="#634684" stroke-width="16" stroke-linecap="round" stroke-linejoin="round"/>
<path d="M1196.43 2166.37C1196.55 2177.55 1193.26 2188.5 1187.01 2197.78" stroke="#634684" stroke-width="16" stroke-linecap="round" stroke-linejoin="round"/>
<path d="M2702.34 2117.89L2646.59 2160.74" stroke="#634684" stroke-width="16" stroke-linecap="round" stroke-linejoin="round"/>
<path d="M1000.08 487.341L966.359 527.941" stroke="#634684" stroke-width="16" stroke-linecap="round" stroke-linejoin="round"/>
<path d="M1013.98 2028.36L973.44 2089.18" stroke="#634684" stroke-width="16" stroke-linecap="round" stroke-linejoin="round"/>
<path d="M2149.23 1467.49V1481.01" stroke="#634684" stroke-width="16" stroke-linecap="round" stroke-linejoin="round"/>
</svg>
