<svg width="979" height="696" viewBox="0 0 979 696" fill="none" xmlns="http://www.w3.org/2000/svg">
<circle cx="801.755" cy="359.435" r="125.824" transform="rotate(-37.7164 801.755 359.435)" fill="#FFFFFC"/>
<circle cx="801.755" cy="359.435" r="125.824" transform="rotate(-37.7164 801.755 359.435)" fill="url(#paint0_linear_29_12)"/>
<circle cx="212.437" cy="212.437" r="210.513" transform="rotate(-0.52608 212.437 212.437)" fill="#AAFFF0"/>
<circle cx="212.437" cy="212.437" r="210.513" transform="rotate(-0.52608 212.437 212.437)" fill="url(#paint1_linear_29_12)"/>
<g clip-path="url(#clip0_29_12)">
<path d="M578.172 290.491C577.286 323.563 571.745 356.345 561.714 387.87C561.492 388.602 561.245 389.323 561.005 390.054H499.593C499.657 389.398 499.724 388.667 499.788 387.87C503.883 340.797 480.49 57.7064 452.263 8.71094C454.736 12.6854 582.934 140.916 578.172 290.491Z" fill="url(#paint2_linear_29_12)"/>
<path d="M573.564 387.87C573.05 388.602 572.516 389.334 571.969 390.054H525.896C526.245 389.432 526.65 388.7 527.119 387.87C534.73 374.135 557.257 333.066 578.167 290.491C600.63 244.738 621.256 197.251 619.519 180.064C620.057 183.938 635.607 302.11 573.564 387.87Z" fill="url(#paint3_linear_29_12)"/>
<path d="M794.356 628.636H227.181C221.407 628.63 215.872 626.333 211.789 622.251C207.706 618.168 205.41 612.633 205.403 606.859V331.982C205.41 326.208 207.706 320.673 211.789 316.59C215.872 312.508 221.407 310.211 227.181 310.205H794.356C800.13 310.211 805.665 312.508 809.748 316.59C813.831 320.673 816.127 326.208 816.134 331.982V606.859C816.127 612.633 813.831 618.168 809.748 622.251C805.665 626.333 800.13 628.63 794.356 628.636Z" fill="#3F3D56"/>
<path d="M722.584 468.452H297.877V470.388H722.584V468.452Z" fill="#F0F0F0"/>
<path d="M722.584 507.167H297.877V509.103H722.584V507.167Z" fill="#F0F0F0"/>
<path d="M722.584 545.883H297.877V547.818H722.584V545.883Z" fill="#F0F0F0"/>
<g opacity="0.2">
<path d="M722.229 452.689C709.622 439.057 688.558 436.495 670.456 440.627C652.354 444.759 636.102 454.429 619.271 462.269C602.44 470.109 583.752 476.292 565.518 472.785C547.911 469.398 533.366 457.558 518.265 447.892C503.164 438.225 484.766 430.261 467.69 435.73C446.554 442.499 436.816 466.16 421.634 482.348C413.787 490.715 404.194 497.251 393.536 501.491C382.878 505.731 371.416 507.571 359.967 506.881C348.517 506.191 337.36 502.987 327.288 497.498C317.216 492.008 308.478 484.368 301.693 475.119V547.457H721.121L722.229 452.689Z" fill="#BA8FFB"/>
</g>
<path d="M722.584 391.022H297.877V392.958H722.584V391.022Z" fill="#F0F0F0"/>
<path d="M722.584 429.737H297.877V431.673H722.584V429.737Z" fill="#F0F0F0"/>
<path d="M300.439 475.852C318.531 500.285 349.807 512.834 379.724 506.953C394.784 503.988 408.691 496.804 419.825 486.238C429.871 476.627 436.781 464.379 445.686 453.802C449.999 448.68 454.822 443.884 460.634 440.477C467.277 436.626 474.938 434.895 482.592 435.515C499.713 436.758 514.418 446.974 528.217 456.238C541.627 465.242 555.74 473.995 572.279 475.107C589.679 476.277 606.598 469.899 622.048 462.56C637.86 455.05 653.275 446.11 670.476 442.112C684.489 438.855 700.431 439.471 713.008 447.057C716.032 448.89 718.789 451.131 721.202 453.715C722.485 455.08 724.535 453.024 723.255 451.662C713.538 441.326 699.236 437.191 685.353 437.38C669.153 437.601 653.951 443.812 639.565 450.741C623.574 458.442 607.871 467.293 590.299 470.867C581.584 472.786 572.559 472.813 563.834 470.945C555.827 469.089 548.401 465.453 541.38 461.258C527.257 452.818 514.48 442.136 498.903 436.333C484.587 430.999 468.936 430.913 456.103 439.946C445.054 447.722 437.696 459.477 429.761 470.144C425.659 475.893 420.981 481.208 415.799 486.007C409.844 491.272 403.118 495.594 395.853 498.82C381.488 505.282 365.475 507.137 350.013 504.13C335.023 501.088 321.247 493.736 310.376 482.977C307.686 480.305 305.202 477.433 302.946 474.386C301.846 472.901 299.325 474.347 300.439 475.852Z" fill="#BA8FFB"/>
<path d="M480.044 444.527C485.389 444.527 489.722 440.194 489.722 434.848C489.722 429.503 485.389 425.169 480.044 425.169C474.698 425.169 470.365 429.503 470.365 434.848C470.365 440.194 474.698 444.527 480.044 444.527Z" fill="#BA8FFB"/>
<path d="M683.298 447.431C688.643 447.431 692.976 443.097 692.976 437.752C692.976 432.406 688.643 428.073 683.298 428.073C677.952 428.073 673.619 432.406 673.619 437.752C673.619 443.097 677.952 447.431 683.298 447.431Z" fill="#BA8FFB"/>
<path d="M370.674 516.15C376.019 516.15 380.352 511.816 380.352 506.471C380.352 501.126 376.019 496.792 370.674 496.792C365.328 496.792 360.995 501.126 360.995 506.471C360.995 511.816 365.328 516.15 370.674 516.15Z" fill="#BA8FFB"/>
<path d="M162.887 215.349C161.662 215.859 160.564 216.631 159.67 217.611C158.776 218.591 158.108 219.756 157.712 221.022C157.317 222.289 157.204 223.627 157.381 224.942C157.559 226.257 158.023 227.517 158.74 228.633L131.307 267.826L139.91 277.535L171.878 231.084C173.673 229.755 174.919 227.813 175.379 225.627C175.838 223.441 175.48 221.162 174.372 219.223C173.263 217.283 171.482 215.817 169.365 215.103C167.249 214.389 164.944 214.477 162.887 215.349Z" fill="#FFD6D6"/>
<path d="M183.276 615.7H171.41L165.765 569.931L183.278 569.932L183.276 615.7Z" fill="#FFD6D6"/>
<path d="M186.302 627.203L148.041 627.202V626.718C148.042 622.768 149.611 618.98 152.404 616.188C155.196 613.395 158.984 611.826 162.934 611.826H162.935L186.303 611.827L186.302 627.203Z" fill="#2F2E41"/>
<path opacity="0.1" d="M47.0668 623.327L46.5925 623.26L47.1152 623.356L47.0668 623.327Z" fill="black"/>
<path d="M152.943 447.159L165.324 603.365H186.351L192.154 447.159H152.943Z" fill="#EEEEEE"/>
<path d="M185.851 285.277L177.472 281.045L148.665 279.17L151.694 264.78H128.969L120.216 294.975L173.423 304.775L185.851 285.277Z" fill="#EEEEEE"/>
<path d="M201.216 266.971C216.685 266.971 229.226 254.43 229.226 238.961C229.226 223.491 216.685 210.95 201.216 210.95C185.746 210.95 173.205 223.491 173.205 238.961C173.205 254.43 185.746 266.971 201.216 266.971Z" fill="#2F2E41"/>
<path d="M179.352 223.858C183.879 219.332 184.796 212.91 181.401 209.516C178.006 206.121 171.585 207.038 167.059 211.565C162.532 216.091 161.615 222.512 165.01 225.907C168.404 229.302 174.826 228.384 179.352 223.858Z" fill="#2F2E41"/>
<path d="M230.41 214.963C232.296 210.548 229.053 204.931 223.166 202.416C217.279 199.901 210.978 201.442 209.092 205.857C207.206 210.272 210.45 215.89 216.336 218.404C222.223 220.919 228.524 219.378 230.41 214.963Z" fill="#2F2E41"/>
<path d="M202.104 269.419C215.233 269.419 225.876 258.776 225.876 245.647C225.876 232.518 215.233 221.875 202.104 221.875C188.975 221.875 178.332 232.518 178.332 245.647C178.332 258.776 188.975 269.419 202.104 269.419Z" fill="#FFD6D6"/>
<path d="M177.125 230.695C182.557 234.439 189.005 236.431 195.603 236.405C193.249 238.037 190.57 239.139 187.75 239.636C196.521 241.517 205.587 241.568 214.38 239.785C216.334 239.472 218.22 238.824 219.955 237.871C220.819 237.388 221.572 236.729 222.165 235.936C222.758 235.143 223.177 234.234 223.396 233.269C223.98 229.931 221.379 226.899 218.676 224.855C214.538 221.774 209.767 219.651 204.707 218.64C199.648 217.629 194.427 217.755 189.423 219.009C186.155 219.854 182.881 221.281 180.759 223.905C178.636 226.53 178.007 230.576 180.03 233.278L177.125 230.695Z" fill="#2F2E41"/>
<path d="M171.046 526L164.702 536.027L123.006 516.327L132.37 501.528L171.046 526Z" fill="#FFD6D6"/>
<path d="M182.384 529.592L161.927 561.924L161.518 561.666C158.18 559.554 155.818 556.203 154.952 552.35C154.085 548.496 154.784 544.456 156.895 541.119L169.391 521.37L182.384 529.592Z" fill="#2F2E41"/>
<path d="M233.641 272.65L177.472 281.046L167.819 303.337C167.819 303.337 146.321 313.28 160.618 337.149L143.951 397.599C143.951 397.599 65.983 437.161 67.4579 463.695C68.9327 490.23 148.81 533.878 148.81 533.878L160.007 515.766L113.86 470.054L157.066 456.296L191.145 457.907C191.145 457.907 228.17 428.953 206.14 380.71L221.333 336.186L233.641 272.65Z" fill="#EEEEEE"/>
<path d="M192.319 409.843C193.645 409.793 194.944 409.454 196.125 408.848C197.305 408.242 198.338 407.385 199.152 406.337C199.965 405.289 200.539 404.075 200.832 402.781C201.126 401.487 201.132 400.145 200.851 398.848L240.259 371.725L235.595 359.62L189.399 391.957C187.253 392.574 185.407 393.957 184.212 395.845C183.016 397.732 182.555 399.992 182.915 402.197C183.275 404.401 184.431 406.397 186.164 407.807C187.897 409.216 190.087 409.94 192.319 409.843Z" fill="#FFD6D6"/>
<path d="M221.139 281.728L232.673 272.65C232.673 272.65 247.952 284.211 247.971 292.852C247.99 301.494 250.529 370.072 250.529 370.072L229.929 384.828L210.667 373.14L223.908 356.251L217.664 316.846L221.139 281.728Z" fill="#EEEEEE"/>
<path d="M395.862 628.152H27.1006C26.8439 628.152 26.5977 628.05 26.4162 627.869C26.2347 627.687 26.1327 627.441 26.1327 627.184C26.1327 626.927 26.2347 626.681 26.4162 626.5C26.5977 626.318 26.8439 626.216 27.1006 626.216H395.862C396.118 626.216 396.365 626.318 396.546 626.5C396.728 626.681 396.83 626.927 396.83 627.184C396.83 627.441 396.728 627.687 396.546 627.869C396.365 628.05 396.118 628.152 395.862 628.152Z" fill="#3F3D56"/>
</g>
<path d="M658.156 608.795C658.156 560.686 697.156 521.686 745.265 521.686C793.374 521.686 832.374 560.686 832.374 608.795C832.374 656.904 793.374 695.904 745.265 695.904C697.156 695.904 658.156 656.904 658.156 608.795Z" fill="#37FFDB"/>
<path d="M658.156 608.795C658.156 560.686 697.156 521.686 745.265 521.686C793.374 521.686 832.374 560.686 832.374 608.795C832.374 656.904 793.374 695.904 745.265 695.904C697.156 695.904 658.156 656.904 658.156 608.795Z" fill="url(#paint4_linear_29_12)"/>
<defs>
<linearGradient id="paint0_linear_29_12" x1="915.949" y1="386.571" x2="778.063" y2="281.019" gradientUnits="userSpaceOnUse">
<stop stop-color="#FFA8C2" stop-opacity="0.62"/>
<stop offset="1" stop-color="#FFFCAB"/>
<stop offset="1" stop-color="#FFF96B"/>
</linearGradient>
<linearGradient id="paint1_linear_29_12" x1="212.437" y1="1.9241" x2="212.437" y2="422.951" gradientUnits="userSpaceOnUse">
<stop stop-color="#789EFF"/>
<stop offset="1" stop-color="#FB39FF" stop-opacity="0.52"/>
</linearGradient>
<linearGradient id="paint2_linear_29_12" x1="515.282" y1="8.71094" x2="515.282" y2="390.054" gradientUnits="userSpaceOnUse">
<stop stop-color="#3FDCFF"/>
<stop offset="1" stop-color="#3EFE8B" stop-opacity="0.38"/>
</linearGradient>
<linearGradient id="paint3_linear_29_12" x1="573.765" y1="180.064" x2="573.765" y2="390.054" gradientUnits="userSpaceOnUse">
<stop stop-color="#3FDCFF"/>
<stop offset="1" stop-color="#3EFE8B" stop-opacity="0"/>
</linearGradient>
<linearGradient id="paint4_linear_29_12" x1="772.603" y1="668.435" x2="744.953" y2="620.248" gradientUnits="userSpaceOnUse">
<stop stop-color="#3EFE8B" stop-opacity="0.38"/>
<stop offset="1" stop-color="#3FDCFF" stop-opacity="0.61"/>
</linearGradient>
<clipPath id="clip0_29_12">
<rect width="790.001" height="619.925" fill="white" transform="translate(26.1327 8.71094)"/>
</clipPath>
</defs>
</svg>
