<svg width="200" height="200" viewBox="0 0 200 200" fill="none" xmlns="http://www.w3.org/2000/svg">
<path d="M126.766 87.1549C116.846 82.524 119.047 70.0785 109.922 67.9654C100.798 65.8523 94.4135 73.4558 98.5899 82.5361C103.628 93.49 85.8907 94.74 88.5374 105.819C93.1536 125.141 117.271 125.515 117.271 125.515C149.463 123.461 140.534 93.5824 126.766 87.1549Z" fill="white" stroke="#634684" stroke-width="1.2" stroke-linecap="round" stroke-linejoin="round"/>
<path d="M103.102 81.6873C107.145 91.8924 97.7642 93.3426 97.7642 93.3426L104.73 105.537C104.73 105.537 118.543 98.4361 119.086 95.6558C119.479 95.0468 119.651 94.3219 119.575 93.6014C119.499 92.8808 119.179 92.208 118.668 91.6943C116.501 89.3843 111.123 86.8034 112.073 82.4993C113.186 77.4611 103.102 81.6873 103.102 81.6873Z" fill="white"/>
<mask id="mask0_84_3" style="mask-type:luminance" maskUnits="userSpaceOnUse" x="97" y="80" width="23" height="26">
<path d="M103.102 81.6873C107.145 91.8924 97.7642 93.3426 97.7642 93.3426L104.73 105.537C104.73 105.537 118.543 98.4361 119.086 95.6558C119.479 95.0468 119.651 94.3219 119.575 93.6014C119.499 92.8808 119.179 92.208 118.668 91.6943C116.501 89.3843 111.123 86.8034 112.073 82.4993C113.186 77.4611 103.102 81.6873 103.102 81.6873Z" fill="white"/>
</mask>
<g mask="url(#mask0_84_3)">
<path d="M101.388 92.7097C101.388 92.7097 110.169 91.3817 109.922 84.9691C109.675 78.5565 102.722 83.1841 102.722 83.1841L101.388 92.7097Z" fill="#DAE9FF"/>
</g>
<path d="M103.102 81.6873C107.145 91.8924 97.7642 93.3426 97.7642 93.3426L104.73 105.537C104.73 105.537 118.543 98.4361 119.086 95.6558C119.479 95.0468 119.651 94.3219 119.575 93.6014C119.499 92.8808 119.179 92.208 118.668 91.6943C116.501 89.3843 111.123 86.8034 112.073 82.4993C113.186 77.4611 103.102 81.6873 103.102 81.6873Z" stroke="#634684" stroke-width="1.2" stroke-linecap="round" stroke-linejoin="round"/>
<path d="M107.8 71.8376L107.772 71.8076C107.772 71.8321 107.772 71.8516 107.773 71.8782C107.782 71.8645 107.792 71.851 107.8 71.8376Z" fill="white" stroke="#634684" stroke-width="1.2" stroke-linecap="round" stroke-linejoin="round"/>
<path d="M112.704 79.8321L111.654 77.5595C111.654 77.5595 111.581 77.4127 111.447 77.1628C108.242 75.3737 107.806 72.8873 107.774 71.8779C106.431 74.0344 102.294 75.8154 100.062 76.5479C100.048 88.3779 106.383 88.8006 109.923 84.9691" fill="white"/>
<path d="M112.704 79.8321L111.654 77.5595C111.654 77.5595 111.581 77.4127 111.447 77.1628C108.242 75.3737 107.806 72.8873 107.774 71.8779C106.431 74.0344 102.294 75.8154 100.062 76.5479C100.048 88.3779 106.383 88.8006 109.923 84.9691" stroke="#634684" stroke-width="1.2" stroke-linecap="round" stroke-linejoin="round"/>
<path d="M111.703 83.1276C112.152 83.1056 112.589 82.9769 112.977 82.7522C113.366 82.5275 113.696 82.2132 113.939 81.8355C114.167 81.5829 114.339 81.284 114.442 80.9592C114.545 80.6344 114.577 80.2912 114.536 79.9529C114.495 79.6147 114.381 79.2892 114.203 78.9986C114.025 78.708 113.787 78.459 113.504 78.2686C113.222 78.0782 112.902 77.9507 112.565 77.8949C112.229 77.8391 111.885 77.8562 111.556 77.945C111.227 78.0339 110.921 78.1924 110.659 78.4099C110.396 78.6274 110.184 78.8987 110.036 79.2055" fill="white"/>
<path d="M111.703 83.1276C112.152 83.1056 112.589 82.9769 112.977 82.7522C113.366 82.5275 113.696 82.2132 113.939 81.8355C114.167 81.5829 114.339 81.284 114.442 80.9592C114.545 80.6344 114.577 80.2912 114.536 79.9529C114.495 79.6147 114.381 79.2892 114.203 78.9986C114.025 78.708 113.787 78.459 113.504 78.2686C113.222 78.0782 112.902 77.9507 112.565 77.8949C112.229 77.8391 111.885 77.8562 111.556 77.945C111.227 78.0339 110.921 78.1924 110.659 78.4099C110.396 78.6274 110.184 78.8987 110.036 79.2055" stroke="#634684" stroke-width="1.2" stroke-linecap="round" stroke-linejoin="round"/>
<path d="M102.386 130.474V90.4468C102.386 90.4468 84.394 94.8642 81.3953 131.224L102.386 130.474Z" fill="#B498D5" stroke="#634684" stroke-width="1.2" stroke-linecap="round" stroke-linejoin="round"/>
<path d="M82.145 132.349C82.145 132.349 83.059 97.5821 101.022 90.8587C102.295 90.3822 102.385 96.1805 107.025 96.2501C114.85 96.3674 115.897 89.5581 115.897 89.5581C127.38 90.4466 133.791 98.8489 136.502 112.064C139.583 127.08 135.748 131.224 135.748 131.224L82.145 132.349Z" fill="#B498D5"/>
<mask id="mask1_84_3" style="mask-type:luminance" maskUnits="userSpaceOnUse" x="82" y="89" width="56" height="44">
<path d="M82.145 132.349C82.145 132.349 83.059 97.5821 101.022 90.8587C102.295 90.3822 102.385 96.1805 107.025 96.2501C114.85 96.3674 115.897 89.5581 115.897 89.5581C127.38 90.4466 133.791 98.8489 136.502 112.064C139.583 127.08 135.748 131.224 135.748 131.224L82.145 132.349Z" fill="white"/>
</mask>
<g mask="url(#mask1_84_3)">
<path d="M89.468 134.579L89.684 133.326L93.549 110.835L91.891 136.127" fill="#DAE9FF"/>
</g>
<path d="M82.145 132.349C82.145 132.349 83.059 97.5821 101.022 90.8587C102.295 90.3822 102.385 96.1805 107.025 96.2501C114.85 96.3674 115.897 89.5581 115.897 89.5581C127.38 90.4466 133.791 98.8489 136.502 112.064C139.583 127.08 135.748 131.224 135.748 131.224L82.145 132.349Z" stroke="#634684" stroke-width="1.2" stroke-linecap="round" stroke-linejoin="round"/>
<path d="M102.387 120.948L97.5135 101.611L99.3877 99.3623L96.2412 96.6033C96.5697 95.0969 97.3232 93.7164 98.4124 92.6252C99.5016 91.534 100.881 90.778 102.387 90.4468V120.948Z" fill="#B498D5" stroke="#634684" stroke-width="1.2" stroke-linecap="round" stroke-linejoin="round"/>
<path d="M112.617 120.948L120.752 100.722L119.114 98.296L122.522 95.8678C121.987 94.3474 121.116 92.9673 119.974 91.8304C118.831 90.6936 117.447 89.8294 115.924 89.3022L112.617 120.948Z" fill="#B498D5" stroke="#634684" stroke-width="1.2" stroke-linecap="round" stroke-linejoin="round"/>
<path d="M102.386 131.224V90.4468C102.426 91.0642 102.499 91.6789 102.605 92.2882C103.176 96.1498 108.093 97.8106 115.924 89.3022L111.421 132.391L102.386 131.224Z" fill="white"/>
<path d="M102.386 131.224V90.4468C102.426 91.0642 102.499 91.6789 102.605 92.2882C103.176 96.1498 108.093 97.8106 115.924 89.3022L111.421 132.391L102.386 131.224Z" stroke="#634684" stroke-width="1.2" stroke-linecap="round" stroke-linejoin="round"/>
<path d="M105.946 122.84L104.49 122.477C103.227 126.626 103.743 130.366 105.385 130.474C106.702 130.561 108.888 125.116 108.888 125.116L106.848 122.97" fill="#B498D5"/>
<path d="M105.946 122.84L104.49 122.477C103.227 126.626 103.743 130.366 105.385 130.474C106.702 130.561 108.888 125.116 108.888 125.116L106.848 122.97" stroke="#634684" stroke-width="1.2" stroke-linecap="round" stroke-linejoin="round"/>
<path d="M107.78 122.848C103.558 123.2 101.025 120.878 98.8442 121.44C96.663 122.003 92.5822 126.014 93.0747 126.366C93.5672 126.718 95.8264 125.31 95.8264 125.31C95.8264 125.31 93.0043 126.858 93.4969 127.421C93.9895 127.984 99.3943 125.444 100.462 125.873C102.386 126.646 106.725 126.858 109.433 126.929C112.142 126.999 107.78 122.848 107.78 122.848Z" fill="white"/>
<mask id="mask2_84_3" style="mask-type:luminance" maskUnits="userSpaceOnUse" x="93" y="121" width="18" height="7">
<path d="M107.78 122.848C103.558 123.2 101.025 120.878 98.8442 121.44C96.663 122.003 92.5822 126.014 93.0747 126.366C93.5672 126.718 95.8264 125.31 95.8264 125.31C95.8264 125.31 93.0043 126.858 93.4969 127.421C93.9895 127.984 99.3943 125.444 100.462 125.873C102.386 126.646 106.725 126.858 109.433 126.929C112.142 126.999 107.78 122.848 107.78 122.848Z" fill="white"/>
</mask>
<g mask="url(#mask2_84_3)">
<path d="M99.4948 128.528C100.463 125.873 101.289 128.352 103.189 128.704C105.088 129.056 104.894 123.41 104.894 123.41L107.657 126.476L107.797 127.503L99.4948 128.528Z" fill="#DAE9FF"/>
</g>
<path d="M107.78 122.848C103.558 123.2 101.025 120.878 98.8442 121.44C96.663 122.003 92.5822 126.014 93.0747 126.366C93.5672 126.718 95.8264 125.31 95.8264 125.31C95.8264 125.31 93.0043 126.858 93.4969 127.421C93.9895 127.984 99.3943 125.444 100.462 125.873C102.386 126.646 106.725 126.858 109.433 126.929C112.142 126.999 107.78 122.848 107.78 122.848Z" stroke="#634684" stroke-width="1.2" stroke-linecap="round" stroke-linejoin="round"/>
<path d="M124.65 107.097C125.264 115.239 126.751 124.102 126.751 124.102L104.49 122.477C104.865 122.852 106.509 128.225 105.385 130.474C105.385 130.474 139.87 132.349 142.494 131.974C145.118 131.599 133.773 98.2517 127.4 94.1284" fill="#B498D5"/>
<mask id="mask3_84_3" style="mask-type:luminance" maskUnits="userSpaceOnUse" x="104" y="94" width="39" height="39">
<path d="M124.65 107.097C125.264 115.239 126.751 124.102 126.751 124.102L104.49 122.477C104.865 122.852 106.509 128.225 105.385 130.474C105.385 130.474 139.87 132.349 142.494 131.974C145.118 131.599 133.773 98.2517 127.4 94.1284" fill="white"/>
</mask>
<g mask="url(#mask3_84_3)">
<path d="M103.189 128.704C121.349 133.71 137.142 131.062 137.417 126.476C137.692 121.89 141.476 135.094 141.476 135.094L134.562 138.402L103.785 135.399" fill="#DAE9FF"/>
</g>
<path d="M124.65 107.097C125.264 115.239 126.751 124.102 126.751 124.102L104.49 122.477C104.865 122.852 106.509 128.225 105.385 130.474C105.385 130.474 139.87 132.349 142.494 131.974C145.118 131.599 133.773 98.2517 127.4 94.1284" stroke="#634684" stroke-width="1.2" stroke-linecap="round" stroke-linejoin="round"/>
<path d="M89.6801 128.704H108.093C108.684 128.704 109.25 128.939 109.668 129.357C110.086 129.774 110.321 130.341 110.321 130.932V131.224H89.6801V128.704Z" fill="white" stroke="#634684" stroke-width="1.2" stroke-linecap="round" stroke-linejoin="round"/>
<path d="M147.597 119.898C146.882 119.845 146.168 120.008 145.548 120.367C144.927 120.725 144.429 121.262 144.118 121.908C143.807 122.554 143.698 123.279 143.805 123.987C143.912 124.696 144.23 125.356 144.718 125.881C145.205 126.407 145.84 126.773 146.539 126.932C147.238 127.092 147.968 127.037 148.635 126.775C149.303 126.513 149.875 126.056 150.279 125.464C150.683 124.872 150.899 124.172 150.899 123.455C150.931 122.546 150.602 121.661 149.983 120.994C149.364 120.327 148.506 119.933 147.597 119.898ZM147.597 125.572C147.172 125.604 146.747 125.507 146.377 125.293C146.008 125.08 145.711 124.76 145.526 124.376C145.341 123.991 145.276 123.56 145.34 123.138C145.404 122.716 145.593 122.323 145.883 122.011C146.174 121.698 146.551 121.48 146.967 121.385C147.383 121.29 147.818 121.323 148.215 121.479C148.612 121.635 148.953 121.907 149.193 122.259C149.434 122.612 149.562 123.028 149.562 123.455C149.582 123.996 149.386 124.523 149.017 124.92C148.649 125.317 148.138 125.551 147.597 125.572Z" fill="#CBFFE6" stroke="#634684" stroke-width="1.2" stroke-linecap="round" stroke-linejoin="round"/>
<path d="M146.692 131.046H136.47L135.354 116.668H147.597L146.692 131.046Z" fill="#CBFFE6"/>
<path d="M146.692 131.046H136.47L135.354 116.668H147.597L146.692 131.046Z" stroke="#634684" stroke-width="1.2" stroke-linecap="round" stroke-linejoin="round"/>
<path d="M141.476 117.588C144.857 117.588 147.597 117.176 147.597 116.668C147.597 116.16 144.857 115.749 141.476 115.749C138.095 115.749 135.354 116.16 135.354 116.668C135.354 117.176 138.095 117.588 141.476 117.588Z" fill="#CBFFE6" stroke="#634684" stroke-width="1.2" stroke-linecap="round" stroke-linejoin="round"/>
<path d="M144.336 86.3779C143.884 85.7992 143.266 85.3723 142.564 85.1541C141.863 84.936 141.112 84.9369 140.411 85.1569C139.71 85.3769 139.093 85.8054 138.642 86.3853C138.191 86.9651 137.928 87.6687 137.888 88.4021C137.248 93.6378 140.159 100.209 140.522 105.277C140.739 108.673 140.448 112.082 139.66 115.393C139.644 115.433 139.642 115.478 139.656 115.519C139.67 115.56 139.698 115.595 139.735 115.616C139.773 115.638 139.817 115.646 139.86 115.638C139.902 115.629 139.94 115.606 139.967 115.571C141.051 114.093 142.634 110.96 141.605 106.098C140.111 99.0394 142.705 97.6847 145.063 92.3916C145.539 91.4269 145.724 90.3444 145.595 89.2765C145.466 88.2085 145.028 87.2013 144.336 86.3779Z" fill="#B498D5" stroke="#634684" stroke-width="1.2" stroke-linecap="round" stroke-linejoin="round"/>
<path d="M143.87 109.757C143.853 109.66 143.8 109.574 143.722 109.515C143.643 109.456 143.545 109.43 143.448 109.441C143.35 109.452 143.261 109.5 143.197 109.575C143.134 109.65 143.102 109.746 143.107 109.844C143.093 110.366 143.304 111.136 143.337 111.594C143.357 111.804 143.353 112.016 143.325 112.224C143.322 112.235 143.322 112.247 143.327 112.257C143.332 112.267 143.341 112.274 143.351 112.278C143.362 112.282 143.373 112.281 143.383 112.277C143.394 112.272 143.401 112.264 143.405 112.253C143.523 112.004 143.55 111.723 143.484 111.456C143.337 110.76 143.592 110.626 143.825 110.105C143.877 109.996 143.892 109.875 143.87 109.757Z" fill="#B498D5" stroke="#634684" stroke-width="1.2" stroke-linecap="round" stroke-linejoin="round"/>
<path d="M95.8268 130.662H56.9923L52.5535 108.575C52.4834 108.226 52.4916 107.866 52.5775 107.521C52.6635 107.176 52.8251 106.854 53.0505 106.578C53.276 106.303 53.5598 106.081 53.8815 105.929C54.2031 105.777 54.5545 105.698 54.9104 105.698H87.969C88.7701 105.698 89.5466 105.975 90.1664 106.483C90.7862 106.991 91.2111 107.697 91.369 108.483L95.8268 130.662Z" fill="white"/>
<mask id="mask4_84_3" style="mask-type:luminance" maskUnits="userSpaceOnUse" x="52" y="105" width="44" height="26">
<path d="M95.8268 130.662H56.9923L52.5535 108.575C52.4834 108.226 52.4916 107.866 52.5775 107.521C52.6635 107.176 52.8251 106.854 53.0505 106.578C53.276 106.303 53.5598 106.081 53.8815 105.929C54.2031 105.777 54.5545 105.698 54.9104 105.698H87.969C88.7701 105.698 89.5466 105.975 90.1664 106.483C90.7862 106.991 91.2111 107.697 91.369 108.483L95.8268 130.662Z" fill="white"/>
</mask>
<g mask="url(#mask4_84_3)">
<path d="M53.8414 118.18C60.0357 132.917 91.4485 127.374 95.8267 130.662C100.205 133.949 87.0655 137.328 86.2208 137.516C85.3761 137.703 63.0391 134.7 63.0391 134.7L56.0939 134.23L54.2168 127.503" fill="#DAE9FF"/>
<path d="M71.905 118.208L68.329 125.835L76.722 125.119L71.905 118.208Z" fill="white" stroke="#634684" stroke-width="1.2" stroke-linecap="round" stroke-linejoin="round"/>
<path d="M60.3282 117.747C63.0067 117.747 65.1781 115.575 65.1781 112.897C65.1781 110.218 63.0067 108.047 60.3282 108.047C57.6496 108.047 55.4783 110.218 55.4783 112.897C55.4783 115.575 57.6496 117.747 60.3282 117.747Z" fill="#B498D5" stroke="#634684" stroke-width="1.2" stroke-linecap="round" stroke-linejoin="round"/>
</g>
<path d="M95.8268 130.662H56.9923L52.5535 108.575C52.4834 108.226 52.4916 107.866 52.5775 107.521C52.6635 107.176 52.8251 106.854 53.0505 106.578C53.276 106.303 53.5598 106.081 53.8815 105.929C54.2031 105.777 54.5545 105.698 54.9104 105.698H87.969C88.7701 105.698 89.5466 105.975 90.1664 106.483C90.7862 106.991 91.2111 107.697 91.369 108.483L95.8268 130.662Z" stroke="#634684" stroke-width="1.2" stroke-linecap="round" stroke-linejoin="round"/>
<path d="M150.034 130.662H49.9658C49.4884 130.662 49.1013 131.049 49.1013 131.526C49.1013 132.003 49.4884 132.391 49.9658 132.391H150.034C150.512 132.391 150.899 132.003 150.899 131.526C150.899 131.049 150.512 130.662 150.034 130.662Z" fill="#B498D5" stroke="#634684" stroke-width="1.2" stroke-linecap="round" stroke-linejoin="round"/>
<path d="M112.125 80.4111C112.187 80.5073 112.217 80.6205 112.211 80.7349C112.206 80.8492 112.165 80.9589 112.094 81.0486" stroke="#634684" stroke-width="1.2" stroke-linecap="round" stroke-linejoin="round"/>
<path d="M120.127 87.959C121.023 88.8441 122.075 89.5572 123.229 90.063" stroke="#634684" stroke-width="1.2" stroke-linecap="round" stroke-linejoin="round"/>
<path d="M103.099 70.5005C102.814 71.3487 102.272 72.0866 101.546 72.6105" stroke="#634684" stroke-width="1.2" stroke-linecap="round" stroke-linejoin="round"/>
<path d="M93.616 110.689L93.4023 114.142" stroke="#634684" stroke-width="1.2" stroke-linecap="round" stroke-linejoin="round"/>
<path d="M128.839 125.996L129.685 126.557" stroke="#634684" stroke-width="1.2" stroke-linecap="round" stroke-linejoin="round"/>
<path d="M82.8384 118.219C83.3444 119.844 84.1987 121.34 85.3419 122.601" stroke="#634684" stroke-width="1.2" stroke-linecap="round" stroke-linejoin="round"/>
<path d="M141.969 124.688L142.533 125.531" stroke="#634684" stroke-width="1.2" stroke-linecap="round" stroke-linejoin="round"/>
<path d="M105.706 83.3706C105.876 83.2313 106.035 83.0783 106.181 82.9131Z" fill="white"/>
<path d="M105.706 83.3706C105.876 83.2313 106.035 83.0783 106.181 82.9131" stroke="#634684" stroke-width="1.2" stroke-linecap="round" stroke-linejoin="round"/>
</svg>
