<svg width="420" height="410" viewBox="0 0 420 410" fill="none" xmlns="http://www.w3.org/2000/svg">
<path d="M346.409 346.409C321.081 371.737 289.494 389.902 254.864 399.054C220.234 408.207 183.797 408.02 149.262 398.513C114.728 389.006 83.3289 370.519 58.2618 344.933C33.1947 319.346 15.3546 287.575 6.55746 252.853C-2.23963 218.131 -1.67954 181.698 8.1807 147.262C18.0409 112.827 36.8492 81.6192 62.691 56.8156C88.5328 32.012 120.485 14.4984 155.296 6.05759C190.106 -2.38322 226.532 -1.44982 260.864 8.76279L203.066 203.066L346.409 346.409Z" fill="#F8FFD0"/>
<path d="M279.675 14.024C315.642 25.7753 347.602 47.3585 371.939 76.3314C396.277 105.304 412.019 140.51 417.386 177.966L277.04 198.075C275.426 186.815 270.694 176.232 263.378 167.523C256.062 158.813 246.455 152.325 235.643 148.793L279.675 14.024Z" fill="#F8FFD0"/>
</svg>
